<mxfile host="65bd71144e">
    <diagram id="H8tmnDoYLTN6IuS2AelC" name="Page-1">
        <mxGraphModel dx="1901" dy="822" grid="1" gridSize="10" guides="1" tooltips="1" connect="1" arrows="1" fold="1" page="1" pageScale="1" pageWidth="827" pageHeight="1169" math="0" shadow="0">
            <root>
                <mxCell id="0"/>
                <mxCell id="1" parent="0"/>
                <mxCell id="14" style="edgeStyle=none;html=1;exitX=0.25;exitY=0;exitDx=0;exitDy=0;entryX=1;entryY=0.5;entryDx=0;entryDy=0;entryPerimeter=0;startArrow=classic;startFill=1;endArrow=none;endFill=0;" edge="1" parent="1" source="2" target="4">
                    <mxGeometry relative="1" as="geometry"/>
                </mxCell>
                <mxCell id="19" style="edgeStyle=none;html=1;exitX=0.5;exitY=1;exitDx=0;exitDy=0;startArrow=none;startFill=0;endArrow=classic;endFill=1;" edge="1" parent="1" source="2">
                    <mxGeometry relative="1" as="geometry">
                        <mxPoint x="457" y="780" as="targetPoint"/>
                    </mxGeometry>
                </mxCell>
                <mxCell id="23" style="edgeStyle=none;html=1;exitX=0.75;exitY=0;exitDx=0;exitDy=0;startArrow=classic;startFill=1;endArrow=none;endFill=0;" edge="1" parent="1" source="2">
                    <mxGeometry relative="1" as="geometry">
                        <mxPoint x="477" y="580" as="targetPoint"/>
                    </mxGeometry>
                </mxCell>
                <mxCell id="25" style="edgeStyle=none;html=1;exitX=1;exitY=0.5;exitDx=0;exitDy=0;entryX=0;entryY=0.5;entryDx=0;entryDy=0;startArrow=classic;startFill=1;endArrow=none;endFill=0;" edge="1" parent="1" source="2" target="3">
                    <mxGeometry relative="1" as="geometry"/>
                </mxCell>
                <mxCell id="28" style="edgeStyle=none;html=1;exitX=0;exitY=0.5;exitDx=0;exitDy=0;startArrow=none;startFill=0;endArrow=classic;endFill=1;" edge="1" parent="1" source="2">
                    <mxGeometry relative="1" as="geometry">
                        <mxPoint x="347" y="660" as="targetPoint"/>
                    </mxGeometry>
                </mxCell>
                <mxCell id="2" value="Full Adder" style="whiteSpace=wrap;html=1;aspect=fixed;" vertex="1" parent="1">
                    <mxGeometry x="417" y="620" width="80" height="80" as="geometry"/>
                </mxCell>
                <mxCell id="13" style="edgeStyle=none;html=1;exitX=0.25;exitY=0;exitDx=0;exitDy=0;entryX=1;entryY=0.5;entryDx=0;entryDy=0;entryPerimeter=0;startArrow=classic;startFill=1;endArrow=none;endFill=0;" edge="1" parent="1" source="3" target="5">
                    <mxGeometry relative="1" as="geometry"/>
                </mxCell>
                <mxCell id="17" style="edgeStyle=none;html=1;exitX=0.5;exitY=1;exitDx=0;exitDy=0;startArrow=none;startFill=0;endArrow=classic;endFill=1;" edge="1" parent="1" source="3">
                    <mxGeometry relative="1" as="geometry">
                        <mxPoint x="637" y="780" as="targetPoint"/>
                    </mxGeometry>
                </mxCell>
                <mxCell id="24" style="edgeStyle=none;html=1;exitX=0.75;exitY=0;exitDx=0;exitDy=0;startArrow=classic;startFill=1;endArrow=none;endFill=0;" edge="1" parent="1" source="3">
                    <mxGeometry relative="1" as="geometry">
                        <mxPoint x="657" y="580" as="targetPoint"/>
                    </mxGeometry>
                </mxCell>
                <mxCell id="27" style="edgeStyle=none;html=1;exitX=1;exitY=0.5;exitDx=0;exitDy=0;startArrow=classic;startFill=1;endArrow=none;endFill=0;" edge="1" parent="1" source="3">
                    <mxGeometry relative="1" as="geometry">
                        <mxPoint x="747" y="460" as="targetPoint"/>
                        <Array as="points">
                            <mxPoint x="747" y="660"/>
                        </Array>
                    </mxGeometry>
                </mxCell>
                <mxCell id="3" value="Full Adder" style="whiteSpace=wrap;html=1;aspect=fixed;" vertex="1" parent="1">
                    <mxGeometry x="597" y="620" width="80" height="80" as="geometry"/>
                </mxCell>
                <mxCell id="9" style="edgeStyle=none;html=1;exitX=0;exitY=0.25;exitDx=0;exitDy=0;exitPerimeter=0;startArrow=none;startFill=0;endArrow=none;endFill=0;" edge="1" parent="1" source="4">
                    <mxGeometry relative="1" as="geometry">
                        <mxPoint x="767" y="460" as="targetPoint"/>
                    </mxGeometry>
                </mxCell>
                <mxCell id="11" style="edgeStyle=none;html=1;startArrow=none;startFill=0;endArrow=none;endFill=0;exitX=0;exitY=0.75;exitDx=0;exitDy=0;exitPerimeter=0;" edge="1" parent="1" source="4">
                    <mxGeometry relative="1" as="geometry">
                        <mxPoint x="422" y="390" as="targetPoint"/>
                        <mxPoint x="397" y="430" as="sourcePoint"/>
                    </mxGeometry>
                </mxCell>
                <mxCell id="4" value="" style="verticalLabelPosition=bottom;shadow=0;dashed=0;align=center;html=1;verticalAlign=top;shape=mxgraph.electrical.logic_gates.logic_gate;operation=xor;rotation=90;" vertex="1" parent="1">
                    <mxGeometry x="387" y="480" width="100" height="60" as="geometry"/>
                </mxCell>
                <mxCell id="10" style="edgeStyle=none;html=1;exitX=0;exitY=0.75;exitDx=0;exitDy=0;exitPerimeter=0;startArrow=none;startFill=0;endArrow=none;endFill=0;" edge="1" parent="1" source="5">
                    <mxGeometry relative="1" as="geometry">
                        <mxPoint x="602" y="390" as="targetPoint"/>
                    </mxGeometry>
                </mxCell>
                <mxCell id="5" value="" style="verticalLabelPosition=bottom;shadow=0;dashed=0;align=center;html=1;verticalAlign=top;shape=mxgraph.electrical.logic_gates.logic_gate;operation=xor;rotation=90;" vertex="1" parent="1">
                    <mxGeometry x="567" y="480" width="100" height="60" as="geometry"/>
                </mxCell>
                <mxCell id="6" value="Selector" style="text;html=1;align=center;verticalAlign=middle;resizable=0;points=[];autosize=1;strokeColor=none;fillColor=none;" vertex="1" parent="1">
                    <mxGeometry x="767" y="450" width="60" height="20" as="geometry"/>
                </mxCell>
                <mxCell id="7" value="C&lt;sub&gt;in&lt;/sub&gt;" style="text;html=1;align=center;verticalAlign=middle;resizable=0;points=[];autosize=1;strokeColor=none;fillColor=none;" vertex="1" parent="1">
                    <mxGeometry x="677" y="630" width="30" height="20" as="geometry"/>
                </mxCell>
                <mxCell id="8" value="C&lt;sub&gt;in&lt;/sub&gt;" style="text;html=1;align=center;verticalAlign=middle;resizable=0;points=[];autosize=1;strokeColor=none;fillColor=none;" vertex="1" parent="1">
                    <mxGeometry x="507" y="630" width="30" height="20" as="geometry"/>
                </mxCell>
                <mxCell id="15" value="B&lt;sub&gt;0&lt;/sub&gt;" style="text;html=1;align=center;verticalAlign=middle;resizable=0;points=[];autosize=1;strokeColor=none;fillColor=none;" vertex="1" parent="1">
                    <mxGeometry x="587" y="360" width="30" height="20" as="geometry"/>
                </mxCell>
                <mxCell id="16" value="A&lt;sub&gt;0&lt;/sub&gt;" style="text;html=1;align=center;verticalAlign=middle;resizable=0;points=[];autosize=1;strokeColor=none;fillColor=none;" vertex="1" parent="1">
                    <mxGeometry x="637" y="550" width="30" height="20" as="geometry"/>
                </mxCell>
                <mxCell id="18" value="S&lt;sub&gt;0&lt;/sub&gt;" style="text;html=1;align=center;verticalAlign=middle;resizable=0;points=[];autosize=1;strokeColor=none;fillColor=none;" vertex="1" parent="1">
                    <mxGeometry x="622" y="790" width="30" height="20" as="geometry"/>
                </mxCell>
                <mxCell id="20" value="S&lt;sub&gt;1&lt;/sub&gt;" style="text;html=1;align=center;verticalAlign=middle;resizable=0;points=[];autosize=1;strokeColor=none;fillColor=none;" vertex="1" parent="1">
                    <mxGeometry x="442" y="790" width="30" height="20" as="geometry"/>
                </mxCell>
                <mxCell id="21" value="B&lt;sub&gt;1&lt;/sub&gt;" style="text;html=1;align=center;verticalAlign=middle;resizable=0;points=[];autosize=1;strokeColor=none;fillColor=none;" vertex="1" parent="1">
                    <mxGeometry x="407" y="360" width="30" height="20" as="geometry"/>
                </mxCell>
                <mxCell id="22" value="A&lt;sub&gt;1&lt;/sub&gt;" style="text;html=1;align=center;verticalAlign=middle;resizable=0;points=[];autosize=1;strokeColor=none;fillColor=none;" vertex="1" parent="1">
                    <mxGeometry x="457" y="550" width="30" height="20" as="geometry"/>
                </mxCell>
                <mxCell id="26" value="C&lt;sub&gt;out&lt;/sub&gt;" style="text;html=1;align=center;verticalAlign=middle;resizable=0;points=[];autosize=1;strokeColor=none;fillColor=none;" vertex="1" parent="1">
                    <mxGeometry x="557" y="630" width="40" height="20" as="geometry"/>
                </mxCell>
                <mxCell id="29" value="C&lt;sub&gt;out&lt;/sub&gt;" style="text;html=1;align=center;verticalAlign=middle;resizable=0;points=[];autosize=1;strokeColor=none;fillColor=none;" vertex="1" parent="1">
                    <mxGeometry x="377" y="630" width="40" height="20" as="geometry"/>
                </mxCell>
                <mxCell id="31" value="" style="shape=image;verticalLabelPosition=bottom;labelBackgroundColor=#ffffff;verticalAlign=top;aspect=fixed;imageAspect=0;image=data:image/png,iVBORw0KGgoAAAANSUhEUgAAAX8AAAI7CAIAAACLBwzXAAAgAElEQVR4nOydd3hU15n/z+33Tu9qo1HvvSAkQKJ3TMfGBmLHLXaSzS9xNmVL2iZO22yyiZN4HTtugBsYDC50RJcA9d67NKM2ml5u/f0xBmNbaEZCAnYzn4fHDw8+57ynzXvOPeV7IEEQQJAgQYLcdeB7nYEgQYL8gxL0PkGCBLk3BL1PkCBB7g1B7xMkSJB7A3rzb8Hl5yBBgsw6EATd7n996n0YhrHZbDzP360sBflHRxAEQRAgCJqid0435KT4ejUMBzTN53l+xoamZesOC/Vlu7OV1CwiCAIMw3K5HMOwSQOgN8NxHCeRSAJspCBB7hCO41wuF0EQOI5PHZKmaa/Xi+M4QRDTtcLzvNPphGFYLBb7DSwIgt1ux3GcJMnpGvLZcjgcKIpSFOXXETAM43a7CYKYQaG+bNdut1MUdbsf+b2CpmmPxzPFR9VnX14IguA4jqLo7YIGCTKLMAxD0zSGYX5/6hAECYJAEMQMnALHcSzLwjBMEIRfj8Dz/E03N4N5BMdxDMOgKEoQhN9RHIZhnudnVqgv23W73TPzznMNx3FTVEVwphMkSJB7w5dmOoJrqPXy0bdOdLgAAABCcJkuKi1/waK8KGi88dj+o3Vm5tOQCKGMyiwuTMWHys5WD4tiSx7cuiCcwmy9taXHjlaMqfOKC+PFxktnyztG3DfNhaYUlixK99SfPHO1yykACEZIuS4+o6C4uDCWmqi/+Mnhkw22GzM1VKpLKVxaGO66fuxU7YhHAADAqEgRkpBVuHB+ZrRG/GXfyTEey4jJypIqCTLaeO5sGxNf8sCSBCkCAQAA63F0V1+81jwaMm9pYVqkZHLfy1iGWq+UXhsTJyxbURAhISYZBAXvaHdN6YfHKwfs3M3cUsr4/GUri/OjVLMyAeZdYz11ZRevNvSMu4AsLC6roDA/NVopmo3JqWBrvXzyfI09bsHCWLi3vG5IlFhSnB2jutNhGADBNdzdbwfyEL1aGG88X1o9QSUsKcmNVIvurzWJIPcBX+7KnpHu8kNvvNalzcpOCkNp+9iVM2cuVZq++UwRWvPR3tcuQskL82OkMAAIBeQOx8Tw8IVDr+6rItPHY+bnb4pj+5suvvOXP55yZO4SyYG64ejBQz1oQmaMhsIgADDSandM9NeVHnnn+HB0drpBzo3XXjx2uqzFgv3bRnnH1Y/27qtSpuemREhhADCGsLucY/21H7315iUmsiA7muQ8lsoLpecvd+z51hObig3Sz3dpgfNMdJYd+7iFSVpVkjBSeerAaddyw/LiOCmCfBYIAgICgSl/DBAEEBjcfsoIAY6hHZYJs6m3p7mmpkeIysrNTo7VOWl2lhbuPcaG43v/+JdDtW6RVidBHOdOn71UtfWrT25dlKyi7njGKjh7q08ffNe0VJcQmSTAQJgt18CPt5x5++02+ZKde5bJzR2XTn7Uo1iWmpVmUItmyUKQ/ztMNpBCAJVE5q99/AdPLVa5RppO7/3TofqrtX2ZaRzAVXH5O77/k80RCAAARnAScvSdxAhKLkbs7ZX1po0RyEBXa4+VUmg+HUZJRUTBime/vTlLK4YAgDCcAJa6eozSpRQ//PTTq9Owzusf/PfvjtZUNo9vmA8gWGbIfuCx7311iR4CAIIxUiwYqxsBrkmY//AP/nVTGOcYuH707/uPVVW3LktWt1Ue/LhHsuyxp9YlyhCI95ibj+994Q9//aiXiqtqXVWE2gBt676y7yfvVrTy+jU7H9tUGGbu76it6nFG5SRovNdOHjh4/Fq3A4uev27ng5sXJigQAIDAeezDbfWVfXI0b2E831l1cO97pa2jeGjS0ge2b1wyTy9DAcA10Xlbnk1YY207+dp/mT7hVux4ar22+9S1k8flsuWx3NUDL1+aMKx99JvLyep3939iTVq7cUlo9+kjH52uMDLS5KJVmzevyYlABqrPvrv/0OVuizgyY+XG7esWZYSKUQAAECbaKk+89dYVLnf3c89uz5Z5h5rLTl3qMRtHbWOSgeZT731wumbAq0oo2rRj27I01ei1I4dK6+yU3GvqG4MMxQszpcMXj1wyRSzeuWt9AdX1yYHTVWZExo4NjXjkhesffHCtwdc6AkfbjF11ta0yOATrP1VW1YtIZd6euk4Qu2ZVDjxUdaF6XF+0YeemkiQ53XX99IFDxyr6PKF5G/c8uDoRqjt04GS7S67kx7r6xlU5a7cuCG0//refv3TCLi7td1h2FGAEilIYhsLBeU+QSbjtNB6CIAgILO0aGzU7GUgspRAEBkAAkACAIAAAQQiOkRCCAoiSKiKkSmtDTY0xN7yntYdWR0WH3ByfBQB4AQgCADCEijBCQIFvcoEiKMzzbovVBXBdWLgGggAA0GcmIARFSFxAoJtZAgJLW8bNFgdDisU4Crm8DqcXYnnfxw+EUtrYmPj42HBIWbBkXoayq81q7GuoaczXo7aL777KSNTKJxTm4f6+PulwX4ulae/75ULqsq26kfIL7+/HlGHf3JQgAgAIjMc63N/b54ob72m4/NYr7zWp1m7eDHeVX/7wsEyt27owTgQglBApdSKlyKqSizCclWtDDHozOHW5rakpimUqL5ZfcAxp8lenaRqu1jbItbnVR08ePHQdTcpJEY3XHn190MJ9Y4P2yssvHx+NWbm6yNt27dyHR5U69docAwkAcI4MdjR2CIa1y9euy0sSwUJ0THxWiUcQXD1XD//pL+8PyNKXFivaLrz/p/8a45/dFTfaU3Hp/JAsJVvP9ZXt+8/rSUuXJCtB/8l9+1RKagHUU3Hp4pBq4ZaF8fz1U/veoEWax6N8dcpzHuvIQF+fMtISgXRXnDrljSnID4dHT7/xy9raxYsSeWvnxcPva6N1blHngb/uq0cTlsynGs698hIr7FlMdFZdPt0tyV2YjnGDp48cwMhdSyKjojUKS2JJ8YJsvaybwDASQ4MbqUEmZTLvIwje0fqDv3ny6O8RCEIIVWzxjme+sjpZMdANnP3lb/7z0nd+CAGIkIcu2PHtb+4oBACVKSOSopi6pqsfNWY0Gh1hyWk696AvLdtgw8c/fujAf8AQAEASv+Hpf/3Ro1rebWk9+clTZ19BYQBwRcrSx762sVAEGwWeHa7+6BdPnPwNAgGYDEtb+vSPnluEA+Dsvfz6Py/d/0MIQKgkJHPlrm9vKs7OjMDSfrGMhxAMQyAAAITisgh9pCEy1K1JyUyJcwzjpDamcOs//Xip90PpyB+u9RmHLQpfGTmGdpjHRk3A7FauevhHe/4tRIp9eedXYFxO25BpjHHBYdue+I9n9SophU/usFGMCo3UqqXGvvYeTvCKouNUosGuynpPj43XJFG2nppGZ8iCZx//WpGk9133b99vqq5IyrdbB0zjEkYct/mftkSHKSUk9mniXo/HZqdJhVqpFsG+oonkKhFtGuqsvNoJDGt3PfetlbLrKvp3L1dfbyyQqgAh16YvenBXHnzWNviJJ7l45z/H1f1x6C9XjCPj9hBIpArPKt6w5aGEQdV4w8vtLS3dIZOUAeIV+rTizd9Z5HxxqPaAJ2npusciO9946VjncE9PG1NTaxalbdny5EOqE872NyrL2/SpgJTqMhY9+NUHFP1ay18ujNlZeWy0QSsjErMz0uJ1E4M4jhE4FvQ+QSZl0i8vCFMmLN20Z+cSVfvJDy8NapauKkkOU4wNAkCFpq178DtPLglHAIQS8rDYENI2AiBMoYrIlBjfu3j8qJ10GTIXJlkrfN4HEmtjV694cNeSNCUJA0Sk00dr4XaIkEQWbdn4yPZFseRoW/mR9z5+/icI+fMHIRhRJBav3fnYlrxQBECERGlIDHG2VAEqPHP9xq9/Jd188YOPLlnySpYWpOspGAIwgX4h674zV5/+FyZEclVoOCExi2VKSmABf2PJXBKakL3jkW7Tn/b/8bH9v5RFL3z8+z/+p51Fus87IFF05ppdj7X2/PfrP9z5IhlesOGJ7/+/x5ak6yarNYwUhUdo5dc6WmtcJBSXXEy5m5rKz426BGWSXi1pcXkhqVwmkUjEYpWM4PudXEj+pkcf6/r1i3/9zrY/SmMWb/vaP399Z2GCGgEA4BQhkaGeEavVSgsAhwSB4xiaddocVpsTIcPUKjmOyeRShRhxWJ1OlxxCcZFIrpKKGYlIIsUlCrmUpMQ4DgQABADjKCWTSCmxlJLJScB4PG4PMkkZcFIkkyllUl4uFWsIuUwuIykRgmKM2+tx2yY6z//Pv5x69ScIxLDi9C1LHHaAoBKpQipSiEmxCEMg4dOTrRAEwzAEISgulogkIiTofYJMxqQDOYQQsvCk/DWb5xepuZG/vH/6o4vFieskAgAwIQ+NySuap4d94VDabOYBgDGFPirdIT/0p4/LFq3ek5ZAXam4YYCQKmOysufl6sQQAACCIWaYh2BUrAhPSM7Oy9a49Qp7R2VjVWtTDxMNYEKqjkvJLiyMBAAACEZRjxsIAKG0Mekr1u/Ao0T20T+eP33qWnayLlvNOq0OFhbLFGL8Rv+GgAAElvZ6aZrnb393hAOY1LDsqV8ue/Kng1UfvvLXl0s/+bigcN4DiZ+rEI4jVCnr/3Xvhh9YOs+8+/qBC5dOVcxPStBFTnKuAiIoWWSYmhu/WDeuLNyyOlPW3Xup9EKnPmVFXEyy1nhOJAyPjoyOjLjHhsbdqChaKROFJG//+bs7/nWk+cT+1z+svVhaOy8uSh2KAyDRRSQkxwll1y6cuZAbkiV39deeeudgOa2IDmdR3mUZGjTabLbh4SE7r4hVyiV+9sF4j8duNA2NGsWjphEbTIilUso1dZTPg5MkpgqJK8z46sNPrksjWA9HKESOyr3Vl79YCwDAEM/SHq9XkGgy1z2icWPqCOV9dw4lyP3AVN0WISX6rIVLc66/euHEB9cS1mk5QJu7y9/93Y+qfSvIEk1Cdm6UgwcAYEqtITs9gai2RGbnJ0nartxIxGMZvH7kxV836ygUAgBII9ML0sME1j3aduXAa95qHe4Y6W1sHNNllaRH4Y4Kzt5f//Ebv+s9KwEAwIQyNjMnQ+X51IvAiCo+u6R4Xt3+q8fPF0SL44dOvHKoS7b+2e9sTlEgEAAQhFASEcaZmsovlpMGq+d2RWOdw3XHSo9+XI8nFaTJJgRRmCEyQif7wuKoYO+revfAa58Mh5QsSmLskCxMH66RUZPNGgAACEFqIrRy2OuyYDp9aqQSkRDWrv7QNfEpSYYIb25OzYGy91574TI50d6Lpq4sSmQqX//ZK1c8cQvyDXYPqggPDVVLSV/ikCI5f82uHQ2/P/jGjzsvGFTwxNAQrcrcsrYkhwgbGDh45b0/MHXSvqo6JH3NoqxEbW/t1M3stQ33XDn6ukU60lQFGxbnZsQRV6eO8XkotSEmL6eq6WrtmcNsnaN3EEtcuy6H+3JAQipRy9jy6rPnL6QQ0daLx86PyObveWiljJJOx16QfwiQn/70pwAAjuNomiZJEoYFr8vu9Irj8+ZnJ4ZJcYlKjnMCD4vDkg0K3kWjYor3er0er9fDAEwWER8TpqAkmpjceWmhKqlIHFWyZk2CjPbyeERyRlwIxXh5GAgc7YviBSJtTHxSmIjzeHme89gdbp7UpS/e9Mju7ctiSJfNZncDHBd8gb0cLAoxJMRoMSDSp+cXZhokmEguFaEYz+Ga2Ag15rHYYG1CRmaMEocgAGAYJigChTmWQ2Q6fZhSoo1Oy8lN0sBuh4MTR2XlZISLOY5QJeYX5WUmaBHnQEdzm4nWZa97+MENBTFSBAAABJb2uNxAFZ1aWJSTZNAyY70tbb1OKmrhhm0PLMoIE9/isnnGaXfQVGRuQW5ShAxCYYEnQmNzipfkJ+rEKASIyJxVK5ZkGTS6yMgwFeEcMdmBJn/1tp2bl2bERISFyJzDPa0dg4wicemGLasLkrU3fBsqDY1Jy04xSADjoWFxdN6y7bt2PbAoOyE6Ji5SJViHu4dpXfbaXXu2L0zVQm6HG1FEp2Qnh4kExkuFp+RmJ6l4m4sXx6Smaum+po4xcVRKmJgkw7M3bNu6pkAvOOwsEZqamxWlQBlEEZ2UFqOhUEqTlJGZGo7bHDSpz8rPiFeibhpTxqTm5WelJEapBJupd8AmiS1+4IEl6RG4xwOpDKnZqQYJTLtZMjI5Iz8rTiGiGLeH1BoidRKPxQ4rDalJBqX4i4tqPM/TNI2iqN/7Ab7zyiiKzuAgviAIDMNAEITjeCAXyrxeL4IgGIbN4KyzIAg0TcMwHEj0OynUl+16PJ778KICy7Isy05x8hvy3cKgadput8vl8vutAEHuEN45Vv/RX39/sFa58jvffmhRtPxeZ+gGDMM4HA6SJCmKmjqk1+v1eDwzvmlx855XIDctbDYbjuOBXNSa1NbNe15+F9ppmvbd85qVmxYWi0UikdxvNy08Ho/b7ZZKpbfzKsHlwCBBgtwbgjOd/+NAhNRQuPWZiKV4aJI2eN44yP3EP6L3EXieZxieZW/+C4yiSMCzVt9VZo6bZM31VhAEmdlV6dkFQgllVHpR1L3NxST4RF1YlmUYZuqQvuWD+00+Isid89m6z/j4+H0oUDQX0FZr//Hjne+95x4eBgBo8vIyv/1taUxMgNGbmppeeOGF+vr6qYMtWbLkBz/4gVQa3OuZHJvNVldXNzY25neJhOM4lUqVmpqq0Wim2z9vKmwE4rx8S9QwDCMIMrNVZ58nRVH/x7tvynHMyqqzL6n77VQnwzAIgqjV6ttJOH1O30cikSDIbfaTvwTLsi6XC8Mwv6uGPgRBcLvdNE0rFIopgvmkpAKRffHhEzcBAEgkkkDCAwBcLCu4XO7eXnpggAXAExkppaipc3UTQRAQBDEajR0dHVOHzMjIkEqlASY7LXzVKJVK56632e12QRDmVG2O53mO4zwej9+fH8dxPM9TFKVQKP4RRsf/M/i2C6YIMHN1MQRBOI7DMCzAlXbfTNsnEzVFMJ+UVOBSSRzH+T6CAl/w53AcQxAUgjgAeN82fcDmfHkL5DcJw/AcCT6xLOurxrlzDb5OM6cmCILwjfx+ZyUQBKEoOmPRryD3Ct9PPqguFiRIkPuOyWc6POsyG/t6+82IOjLaEK643fHeW2HdE6bu5k4zoYmIiY9R3bFYLe02D3V3D43ZaR4ACEZxUqnVR0SEKm6nbiMItH2kv6d7wOwRAATBCE5J1SHh+jC1CJuGkxV4xm0dGxoyjlldjICK5JpwfUTIba0GlCTjto2ZBk2jFhcDMJFcGxYeppGTaIBJCjzrdTk9AkpRIgL93NgvMC7LiHHQOGZzs4AQKXRh4aEaWcApB2Kco52WYePQyLjNzUK4WBESERGmkeP3aNhiLIOd3X3DVi+AERQnZSpdaGiISkIigeRHcJu6u0acWIghUiufXoPytsH2bhMrj4oK10hwAIDgtY709/aYLO4bik4QRqki42PCVBIskPkZ6xju6x10knpDpE7uR9kaAIFxTwz2DLpQRURkqIwMyALntk64gVgiofBAl1PuMpN6H8Ez1nbsb7/63ZvXFUsf/f53vrEmS+Mv+4J3vP3MK//2rRdqYoq3fuvnv3wow7+I95TQ5v6rr//iF2+e6yVCQqUEYBlOEbVk19e/+dCyuEk1CQWBMzeeefH5n75WyYSG6SQYzwmkPn/9E89+dV2aDglQYkZgnSPtFz7Y//YnZf02lmFYQIYu2P7UM4+sipPPsAlZx3Bt6aG33vmgvH3Uw8GoSJ24YP2u3duXpoaTSAC54hnrYP3Fi81C5LyFhSmaW9w6751oPvfuG/uPVA04WV7gUXlqyaZH92wtiFXjsyOpI9CO4ZpTB946eLxuyM4wHAPLk5fv/PqTDxbo783uva320K9/9F8fdSAhISoRgcrCkorXP7Rj7aKkMKlflyvw5tpTB053yVbu2blYTk1rfPQ0fPDbn7xmKf7xj5/ZmKUDAAgjDaf/8vwvDjZ6JEqVBIUBhMjCC3d/79lNC5JUgdS921Rz+r0PukJ27H5omVztLzRrGbz26vN/blcu/fpzj86P0fh1VwAwQ1c/2NtIrVu/MjtaGUCG7gGTeB9B4CYGejt6bKrkdDU/0NzVV5Sq8SMWKtDjpq6qFmfUwmXxcHdtdcv69DzJnfd/TBaRtfahp3fk6JCesg/+/vdjH53Onb8gLv32PR+lFMklSx7dtSmNGqw68c7ey2dOXFm8KlkbqPdhXWOd146fuT4qK/za11YYoMGy0vMdw4NGKztT78ONNJ87+OablyZiV+z+Sr4eGawvu9hQeel6Zk6ckrT01lyraDPaEGlYQnpORozSM9hwvd2mis+fl0gYG6+V1TtD9dKRyvdfPVxDpPd68d2rs6Nuthk/0XrxxMdlQ4oNX/nG4mi+reJKg906PD7S46yvqrdE5C0oiBf3111r6vOGJceJXX0d/TaEwu3Dw25RdGai1jvU2GoSwlLn5afHakSTlo61jrWXnrrQZAtd89TXC8K45rKLVeax4RFrn7mipsWszS5MC8dNDRXNZjQ6I0Vm66hqHCHlEsg6OMIoohOjMNtQz6BdHp2em50UKiNmZcKEEtK0Fdv2bCrSeZovHP/k5NtvwqTia5tSBWPr9cr6ATvQRGfk56ZFqgnPWF9TdXVTzwhDhaTkF2TFEVJVaLhbIgHOvqozLf02gCPOsXFaHJURp3AONLaYoIjMooK0SBE92l5XXd/e74DksRnzctJiJ+9xsCKpeNH2HWvT1QQEIJRQhMeFodaBmpqKhu4JXK3CGJcbNxQUZmK9l693sTGFRUkqvq/mWrtTmhCvJRVhkWEqkaP19Pud44qs4vxkNTA3V17roRUJiQYw2lHf2DnqRUKT5i/Ki7mleTjXaFdtTVVD9ygrjsgqWpASRhmrztYPcWIFbBke8xL6zNwk8XjNO3978dVm8ZBVePrRVckRygAc1t1msrkPY+nvaepzKYvXlBB913uaOkwL05VqwT420NU75IZVkfGJesXnvJHgNhtbq5tt4Wsf2aGueOVSXVW7JS9bxjjHjX39RjuQGZJidV+66eMfCCWluui4xNRIAjdWKCQYQRAo7zYPDvUPjdOEMjImUkV9LicQjEiUodFxqSky6URjqFzEUiQOWKd5qK9ryIoq9VHRhikXvQGEwDDEumzjxglvQnbBjm8s5GCpRjfTwyaCvbu5rqUPyX7okce+ui5RKjgXL1rc3u+VRYCR5uN7//zmBSOl1eJu26nztRu3LlMPnXz9w97kLaEZ0Yq2Kwf+/PJI8SNrdUODgyNjSuuE1ell+FvaDIYhBGLc1hGzjc7MLN6esQSjZApX7aEP//xCa/FzhszI0IbzH7xZOlH00MaIkTOvHWkioxMUjs76Tm9k9vwkxVhzba8Q2/P1b+4qjADDg0anIAszREd8poIKQQDBIMC47eNmh5CSterh7HUQLtVK6vZ/+Po7bdnfCA+XSOtOvbe/hVz1xFdi+47/7YVPvHHzs8TGmoYBLCozIRQfaW126Ap3Pfu1NUki21Cf0YlHxMUZQmQzrE8AIART6pNyilbkaufHqLGxPxxuqquqiTQ1vP/WyV4kVIt5L1ztHN2zrVDbW7pv3/EaK0RwDvuHZR1PPV0yXHHmeINaER8y2nnoxcONaGSs1N7TNshHpmenqCaqy1q4pL7/9+wDIaZzew+WDnog3j7hvtj25LNPrrlNVqSqkJjE5JQQEoIQFCNJYG85f+ilV492sbqYMLi3unIofNvPDNGis2//7WPPOnVMaCJb8fH+Q6bIrQ+VOK6fOdpiiDZ4Ow69dJJdKdU9kQk3HH3z1WZp1pJBRWPppT6GJNyDAx9cMT337RWRn9rkLL3lZz/cf6KZl8iE8Y/P1I997ZHikWOv//mkUZuVoXQOtnazOTt2rdCbunpHrOOasbEJl5e9P18KncT7MObB3roaMxG3IiONddQ19zR0m0rCeeeV9/7yTtUw42LV2ZufePrhjM+2kgWXebipstksTcnPjXSbtO6ymsb20dQkrvn8wf1HLg5ReY/98JkVMX6nl1/OirWv4vBvvleroQTLyIhTXfhESZba0lx6+IMTZW1WRBy/aMtjWxfryM8Wz1mXpaHized7LioQp9nsEKeuKcmP4s09lw//zyulA5EFOx59fHfaFNt6iEgbV7h+Te/EodNv//ePD8l1hoTcZQ9sf2CZdoY/F8FhtZidvFofEaKRwgAAsToyUx0JBEfziSNHPqxGFn3tW0+UgMqDrxyqLL2iW6j4/NE7GKZCkrI1QxkdfMjiVcW5cUoR7LkhjoEoE5es29o3+t6FA78vO6oMj04tWr5+w6royaSlIRgAAZMastat03Zxf3mxzkpu2vlkIvX3w1VNdfXVrprmK+X1gxNQaO663Xt2JH96egGVaxOWrl81aP/gwr7fnz8gD41KLly1Zev6gslmMTAEwYBGZLHz16/F8b+8dGaYS9iwbGEk/PaVwbau7hjr8JkDBy/Z9duffnbP6tSZVefnioTJNbroSKVQY+ssO9d04fJwzCPfeWa15srr/3O97Fw4HNZ8vtYiz9r56IZwW1dNJ0Px9I2agSAgCJgsOmvdMmXHgdf2tbmVO7fsioN+s/9aQ/vI0uionA0PJ8lCxQNn33rxaFNzx+CS6MlywE80nt77fNs5JYEAlAzN3/LYspi+q1f7mJCSh59Ypex5x9g6BMNgyn06WJtdkBl94URTa0+3DGrusePhWRnpqRq9OkEWGSPtePff//PI1br+bJVv9iNM9DZVnL1mURU//sQ2XeWLP3vrVHl2rE6AEEoaO2/j+rCxj19/valjeFVJbnpi1AUsY+uWFTkG1X048QGTeR9mdKi97MK5Sy3XO1tO8tYxVp6R0mnKjYzLWLE7JN9Y+/HrB69e79624zPvw7vGjc1Xr1Q3dVT+2+OfsOYRK5KQWN+yKmtefEizVeMAACAASURBVHbR4q7ufdUWm4eZifeFMbE6Mi23MFaJ24yttbXt589cTI1cn796e0hCy8XjH9W2dBidhRrysyk9hOLy8JiMvKJosWuoq7Gut7r0TEXOV+bnLl+9qPfthqFRBzPlAW8IFalji7c9E1+0fqCvq6ni8skTH/6+c5gV/ftTSw0z+vSCYQSFAE2zDCcAAAGf3hcA9vHRgQGrLCspPT0x2mOL1kkqek0jDsz7aTwBAB4AAEEIgaMEjuMEJRYR2K0rRRCmSFq47dtxhdv6e9obKs6fLj2w12QVtuZ6Jj09DFFyXURcZpKKD1crh8Ii45PSPG0aCToEKFVy9qbkpNQrHx0+3dTcM+a94X0AJtamL33ouynFD/X3dTSUnz5x6vUXTG6MyL1NcyIiVVRsbEo61himUQF9QnxsKNkov27jaTQ8ZeHS4raaI60jVvcsSe9zLOv1eiEUeG3mcfNAe8/e33Yexy0DJsSAxkS5+qyQIj0mOTE1RZmds4iG0KGBz+LClFwbHpuWrGBDVSpbpCE2KcsWoREjZi/LOGwj1WeOXW3tHejp7vPEzqM99OQZwKQ6fWr2vGgZCSGoLC6cRJgxsxuTxMQmxidr8ZhIHTXm73MTUuXMyw4/d7yuog3m2+ykNi8tTo4O11Z+cu7VXvNIZ3OvZZ6HZVhf72Ot1vHhkYHmyrd+036OtPa09or1QxbCi4ll4bFJiSmhknqdqInjBITEcRzGSIlUTKD/W1ad6fGhjqstlsg1u3YuSRbZTS1Xy1rbalocC5LjYwyu0tKzlWMxa59eEIMA8OlVA8FhNjVWtvD61V/dujiW9Iy0Xb9c0dnQ1D2xYH6oIUYfKm6yzTB3iEgTm7lx96OLolXQWO3Bvzz/wuXLDctWFRSoBit7+ifw9NXzY5VSBHzWNxBcbEhfvHnPEwv0gqn5/Gu/+8+LZWUNO5atjI6PC1O09/oxyHkcQ81Xr7WMiJOLC0sy5xVlGlSen/ypuaPH6AGGmSykw5rwsCgNeaWxsbPHNE8bypsaLx1+9/hYeEocDuGw2+12eXmB9dIeXoBFJIbDAufx0h7B63Y7Hc4pf6aOvrrLl66ZNfkL5q/Kys+KjyTtfz0/1DOUrAYoy3lp1ss5aZeD8fpaCoJgBEYQGIZgGEEQGEFgCIIhCKAiSZheN9pZ2jBIG3IL5seQQHABAADntfTXXa7q8KqyF+YuzSnIj9Pi47/+sL1zIFot8JzXS9MemnO5vSz76eAKITCKwggMwTCEoAgCwzAEwUCAACrV6mNi9Sqxn1OagcM7R/pba1vGUVV2dBTqwjUxxZse3VGSKAYoKROz41f3Xq5z0B4vx9pNAw3NJjKadN8SHYIRGEFhGIZhBEVhBIZhGIZgzjrcfKz0fM2watnj35Q0H9t7dOj251WkUdkrHnxyd0EoBUEAQlDvSMs1DGI52unlGQ/t9dCMT+IOFnjW46EZD8M73V72c9d0IGVWQUrEyeNVZ53CBJm0IkU8Vvnxvver8WUPfmcpdOaXfzh4y4gD4yhBEJrE+QUbNy5LkJMwKlKFaBr3vQdBCIJAvuoG3P35pfVFvuh96NGhtkvlZsPSJ5/6f5vjOauxjnT8+ePW2qa+5LGuI7/+03G05OlvbEjFGQh8unzC2SZMtZXtvG7+rmceXRkuoicaNNDY3isNba0DKTHmoeFRi8Vl7DdNRGml012H5j0TQ03njh8d1pD23upjZ6q9us04MF9+//Brh+tlhduX5UTLcADYW2KwHlNX9bkTBwekrv66y8dqLJKFCi3ptY4YB4bHzROjJuOwLfy2bQMLtNPYcPTVfbWe95etKIpAjeUnzhqlOXp9xEz3ePCEeQuKs8+88NYvv99+MScKH6i5Um1Wr3ly3fZEaUHshx8efefv5BDSfKZphFi4Jt0gbsM/uV5demSvR1x1onwQ5AAIYAjLuwY7G2vb85O1iZqbSSPeocoTb7xe8Wb+8uU5eqjj2tn6CfHKiMRwsVvOfFJ++vB+h7zhYm2vIxFM2Rt550jVsdKDb52n45Y/sjRdgiCfVinEu+2D5e+/8nE7kr5kSWYI23r5RL1Htl0fnSTuIPjeK8c/kPQR9eXNw3iu34qgbeOjpkGbxTLaP2gyJ874BgrPeHorj7/zcs/7o3UXzl13R63YtOSB+Q782vGK7j6TaYwcra62Kuetzo9OiUTfrz/3/ltecee5oy3y3f+8M4BT+TzLON0TZreLcg72DHd2Dozbe43j4+HsJGEF51DLlY/f4xvkvueiFLFxMepQlaui9tR7+8yS/jNXm11x8wGgQjUqhLl+7uhhJMp15XqnOeRz9+5Qadb8tNAj5acu8/Hb1mREifEOy4TFreQcfdXdLaZRi8LYZ7WEsgIAANGFRybHqevbx8wW61DbiTMt1PLdW4TJHCQKANvTVH69MTVaHqmYfFvh3vIF7+MZGe283mgPz05LjcVQFJNK9emx4efbey6V1YnKDpc1d3kanmur2v7cz367J18KAACc0zrW0mTi1UlZaWoSRVEgj4yKT9ZcKa+vL0fqyl7++1uV/UzLqAX69UtP5U3j8xOCERxmzM1n/qf2DIBgTKpNWfDID556dGlY7779pefP11gu11RW7/n3558pCpXgEAAAQAgKC3Rv2eE/lR2GEUyqi5q3as+Tzzya7Wx658Xnf/FyBSNSjuAUsWeH/nZGKWVs8UPfpJFX39x/9NVf24EsLm/tvzz99YeX62e8g0fpC3d/75eqyFdfO3Dy0HVGm1T85Hef2rOxIEzMPP0jGvz+T2/99ixhKNz86LceXV+k80Q725pfOHDsLW7+vMzFhU1uEY5HJuWm6i9/cOWjY/Fp8RHFN7dbybhlu7/Fwn//27sn/3bGiYQmFG1+4vE920oMdMR4d91v9h9817Y6LzIr3QnBKAzjBEXCOArDCEZQIhGJIRCE4gRFEW7zYEVbafm1i70nL5ZXNXz33372UI4YAABgKjR5xVPfYkVvvHnww5dOOpGQ+Pl7vv/M49sLQ534+saWlz44fdaSlRQVbwByBEAIejNhBCMoiiRQBEEwgqIoHHO1XHjj73949XSrBa2zEjLR7gf8O6xJGgjBUZjtKTv8t2uoTBudv/KJr3zloZXZURJI/W2357//9MZ//ICNmv/AU+sKsufpE9TA+7eX3n31JY82Z+ezz+4oCbtwjaQoEkMRFCcpylcbKEGJKAJDIIDgBEXJQsLTU1bZTK8eff8Qu27psm3cuRMXz1zA5AglovDPHgeCEZQg2IGrJ16+ctyXNZE2aev3frl7+SObjH9668IRR2IMFaYX4ygAUPK6nZsbe189efTsaF5cfAJMShCAYDgpoggMgWFUlJJfGP9REwOnZGTHqJI1Ras3XG/5+1t/G1n7+M6HtuHHrh45oV8BCRRJ4qLY+RsfJ50vvvD288+5ZKkbv/mjgiRD23WSokgMgSEYwQlKhOAoHr9w+aKc6jcOvnEgJjNmW0HcF5U77wNmri42g3teLpfL6/WqVKopgvlensdxPPB7Xi6XCwAQ+H1O1+how+uvN7zwgre/nwFAt3z5mhdeUKSkBBJXEISrV69+97vfvXLlytQht23b9vLLLyuVs3/Uwul00jQtl8vn7hqE1WoFAMzpVTKz2Xzu3Dmj0ej3pgXLsjqdbv78+Xq9/n/TTQvjlRd//eu9I7nf/+G3N2fN/nW/+5+guliQIEHuU/4R9X2CBLkbUNqEvJJV1hi9MqhMNDmfeR/fl1TgM22O47xeL8uyfnW2fPgku1mWdTgcUwRjGIamaZ+gVCDJ8jzv8XimpUzkdjq9NE0LAg0ACwDLcU6XC50yVzfx6YQEUmSWZZ1O51xoYvmq0el0zt1niNfrFQQBhuG5M+FyuRiGYRiG5/3sv/uePHC73Q6H43/TlxcaVrj1mUIAABCm7vP/V6Fp2idrcbsAn3kfQRB8OkwBJu3TbQIABB7F56qmdiu+MDAMB+59WJaFICjA8MAnyiEIPAC87/CNILD+cnWTmzohAYYMPFeB4xMV8ZV61hO/aQIAMKcmWJbleZ7n+UDE3n1iQAGOc7fie2fC96ZFIOF9ekMzU/y69UkMv4F9LYggyKyoi/kksQIX57o7+JosIO+DoqhEIgmwLm66KgzDRKKANqN9ulxer1cmu+2xYZ9Km9vt9r0rEEiyNz3mFMl+AdTrJXEchyAAAOMruFgcYHSe50UiUSDN7KvPwHMVOL7F+zldEvb1mLkz4es/OI7jOB7IqjOO4yKRaAZqZ753JhAECfBNC57n7+RNCwDAtN608O2u3KGL9/3IRSLRffWmhc8nut3uKUr3ma+BIAiG4cBb1+dNEAQJMIpvJu/XBMdx00rWFxhMZwoGf3oEDkA3/iABFxz69JFg/91luvUZODdTnjvv40t5rk1AN5g65M3yzkDw1NdLfdEDiXuzYmemrArfQiCGbvbeO0EQhLnrbHeC35q8v7IbJEiQfxyC3idIkCD3hilXeQSB4xiGYXkAoxiOoQFo5AgCx9I0wwEYQVEMDSRKIAg8y9A0y0MwgmI4FoAol8BzLMMwnAAhCI7jgch43RJZ4FiGYT8tOD6LUoFT2UIwbPZqbLL0UQzDEHj215GFG5UNAm6eWTPNswzDsD7LGBaQxOFM4TmaoTlOgBAMw9BAFaNmjsAxDMOyvACjOD4nDXevub33EXiPpf/aiYPvH79mAmHZKx/66sb8EOnUko4CM95x7v3X951pETQJCzbs2LwsJ5ScokMIPMeyHIT6qVrO3ldzbN/LByrHpPqsZVt2bipJkE75sSywDmPT5cPvHrnUYZHEFmx99PE1yYEfNOfdY93lH7934Gz1BByRt3bnY9vma+bsXBRt6Th3+J33zzQ4pNEL1m7fvCw3YuqyTQuBd5t7Ln347pGzNeNETNGardtXZofJ8FntxgJrG6w6e+Tgscs9Lknqim17tq+Ik9ydzRfO3ld38oMDx662uyQpqx96ZMuSZFlglgWB43gOglEYCtCL8BNNp/a+dfhql02RtGjjjs0Lk8Ml6Bz6A97ec/7g2wdKa020tHDrkw+vzo+Uz6W9WxE4r5sW5nzgvf2Xl8B6rP3N7Rb5iq/97FffXafovV43bPVzdVZw9bbVNZqUu3/9yk925wmD9Y1dtqlicO4JU3tVTZfDMeV7cvRoW1NNA13089dffW59jL35cu3w1Duvgtc80tXUBeXs+uVvf/xINlJ2onwi8Eu/rN3Y29JqDX3oh7/9xTPLxN3nznT5ee7uDuBHGqp6XNqN3/uvnz5ehBhbO3qHbyPmMBME1jvRXdfliXjgn376748vEpua2ocnvLMkb3ED2tTb0WrCFj39/B/+eaPO3nKxenSWLdzW8nhba+solfv1X/33v6yPGG25XmMK8HwD73AY202NAx5boE0rjF89X4Nl7fz3X/18RzrobOkamfD6jcQ6xvva6quqKisqK6tq6tr7x110gIcG+JHqy7XOiK3/8tK+/1jDt9e0dBlnsWNMbdo13HL+xPnanjHPHDfkbb0Pz7K2CStHitVh0Wp5WLjU0j9Mc1PnhnNMWCfcsCHRQCl0OgoAu9k8VZXxHut4f1P7kHNyPZpPERwWm9VK69PixaIQnYJE3aOmqSU7eJfHZXYATahCHqpTqzWisZ6ewB2I1+2yWT2ykDCFOkKnUsu5vq6xgCNPF7dpzAVwmT5aI1XpZJzH6rTPlvgNAIDnWMv4BJDKVaExOoVKjjtGJ7zMtA/NTAnntjsdNKQI00i0hgg5gdmGjG7/0WYBwWWzuzyQIiREqoo1qGDOOWL0r+XCce5hc/O1ntJjbcdPdV9rmhh2cgEIUngHhqyUWq0OC5UrNRreZnN6PH4rkh7vrb104oPDhw4dPnT4w2OX6notzgD9o2fQ5CLlitAQCRGZFMbazHar4644ddrSc+mjj64OuUiJbKrvltngtl8UgiCwNA1BCIJhsIDhKPB4gJ9DdhzDMF4WF1EwBKE4Iggce5uuzjOu8b7GmutXq2vr+zGaMadm5xdmGSb/JGBZjvXyJIFCAMNQCOK99NTDAM/zNMMADEVgGENhHBVoNw1AYBfsBZ7jWZpHYBiGcQxBEeByzd2vyUvTrCBIcAxGIByFBIbhOH7WNgMEQeBoGoYBguEYgqKw4PYCYXY7Mc+yHMvBGAbDMIZjABJoDw3AHT4qEBAsy3OMgCIwDJEk5hMc8p9fgbW7Roz2wWHniNNqHJXHREnV/k+s0S4PQBUojqEwgqIwy7A8xwMw9XeeKCr3gcdzHwi4QLfg9Xp5GEIwFAAgImCBYTiWm9NdIoGhWc5jbr5UWmvXLVhVlBImmus9qdt6HwiCMAyDBIFjWR6wDAMIYmqJSABgFEVxhPF4eEHM0DwQUOSOD3ICAKEoimKQneYAYFlOADCOT30+DYJhDEUBzfA8z7IcywNSFPCFBwiGERSDOZ7neV8XI6mAbtvPCBzHEABYhhE4nuUERIQis7hy6mtEwAOeZViO4zgIxfw14nSBEQRBYd7N8jzPeFmBhzHi7uh4QiiCIChEczwveGkWQhCc8N/MGCqN15dICI3K1KHSz89UhIsCqRCMJADHcgzDcjxLA0SCQf5P13iGGq+UXa0fsPICgHFJZNqCRTkJOlkg1YPjOMx7OIYFAPXQPEqh6NwqFDIT7dfLyy5XdHvFGSXrcuN0s7s6OCm3dQ4wikqUcrjVOGHsm6CMQ3aFQYv7qW9UppKrxFxn+4AzZnTMDVC9Wn2bq/WYSBs3b4lSHaIU1RNrV80L095+sBTLpXI12dLW4UhgR81eltDpphbTQChSLJfxTaNm6zA8Nj7qUidFBv6DIESUXEnax01WM2ofH7fBMTNQpA4UkVZD8UbLQN8o5Rm2wmS4RHonL4d9ARhBpGql0GufMPWK6PEJWhKrJLDZXUGHRTKxhASDJrMtzGq00bw0PHzuvPXnEMmlYjEYGRuxmyf6xgVYFBIa4MlyWCGLzMaUuEgZ6G+MiIyQOXvMI8ZhyjxmgWSRIsp/QyGUItQQx0jcAgAQQqhCFGSgT8tRYWGkq8FiGnFEwy1GRJIjlYnneAXYa+6squ9WL34wJy1KTtyNfYPbz31QQq5PjJU1f/Lmr47AmvjCzZlhMj9r7hClT0hNqK985xc/xOQROUvXp0TLpqoxVBYeO29dCKxSTNldcW1cUmpi5b5ffqdUooldsGpTRoifuQ+p0MQmRtUfOfTrYw5Kn758W15ATyx9mitJiD4+TlZ/+M/P2yB12sINW2Pm7gA7HJKaZeg4dPyFn34kC8tcvCE2UjuL11IhlFBGp0Y1Hj7x97M2Qp9VvD4hVDHLDwFCuC4yJk7X8OHe/zzkIuMK1+zI9Pv62yyBq2LjYztbPnz1Vx+7iKiSDVsy/XSMm0AkoQgnpqO5A2vyFqW2Hj76X6dohSFr5QNRWgXht09hyojUeREzEtCHQzILUjsPf/LH773DEUkrHk6MCZnbaxSIPKl4+3PJawllSIiKmvPjBACAqXbcIYRURhU+8NWUxQ5awMVyhULsd5yASE3C0keey17v4lFKKpdLp/5yhFBSogqVTBXEF0welbPp61ElDhomxDK5Quqvj0G4NCJt2R59nsPDIZREoZBP5xeHiLSxi7Y9lb7SyUKERK5QzGWzE+rEpdufzV3l4hBSKpdJqICeqQwUCKHUcSVbn8pa6WJhQiJTSEWz/gophCv0uat3xxU5vDwqksoV0rsm24LKDZlr90QtdHh4VCRXyCVzKGUBa9JWPRpR4PByKCmVyyWBvSc6c1B5wpJtT+esdNIAlyqVMtFcfwkhIkVY3N0VQZuqo0AwSkqUpGQ66nwwSsk01GzfrIQQXKIKlUylifjlGCKFVjSzyoRglJKqKOk07M0YCEJFMrVINlcfdxCMUjI1NWfpAwAAhBBihU58D+T7IASXKLSSu2IZwiiFlrp7hYSQOW+4e83nFDZ8BBhTuIXZCi98nsCTBTeuZU8jJ7f8Cx+wOZ7np2sowMDTYrqNNYP0wVzmH9zSXn5NTLdLzDjunRgC0+y9N4MFojHiNykwx401AwKpis+8D8Mw4+PjgV9Y53meYRgURQNUThIEgWEYQRCmUGkRBMGnK4aiaIC6XD7pKRiGPR5PIOEBAO7xcZvL5eR5DwACAG6aHjeb2dHRQOLyPD8xMcEw/o8Peb3esbGxudD38Ukg+Uo964n7oGlaEASPxzN3ChtWq9XlcgUiaMdxnNPptFgsBEFM94fqqygEQVwul9+4giD4anVmMmaCIHi9XgiCHA6H30L5lNUwDLtz/Tlftn3FvMOkZhHf7x2GYYnktmsrn9P3kUqlgRfAJ68XuBCPIAgul4um6SmE1oUb+j4EQQSuKu9T+QtcVZ5gWTFJkhAEA8ACQGCYQi5XBCb/LghCgLWEYZhCoZgLVXlfNcpksrnzPjabDQAwAz2daeFrZb+SUizLkiQpkUiUSuUMvM+09H1sNpsvVzPT93E4HPdE38dms/3v1veBYXhaqm4+vbjAnbcgCBiG8TzvNzzHcYEnC8OwT7Yu8DEEwzAUQVAI4gDgAYAhCAt4quUrRSC/SZ/02lwoq6Io6qvGuXMNvm4wpyZ8Wnw+jZupQwqC4JsLYxg23R+qr3v42iIQ74NhmM/WDDyCz4ovut96E27RV5uuoS/b9QkqzkVnuxNu6o7eLkBQYSNIkCD3hqD3CRIkyL1hiu8sgfVYe2ovl16qGeZ1GSUrV+QYxH4Pi7jHW66ePnapiVbG55csLUzTz8oBTcYyUHfho2MVRkqfUbR0WUGCyu/3Ieea6Kw8f6nRali6ZWmibFqSM5xzvLP6wukrDRYkLLNkzap5+rm7OsB7zS1XS0vLmmyiqPziJfNTDQEdxA8UgXFPdFScP1/eZMb1uYuWLEyPlBKzPuRwzuG2K6fKBvCYxRsWxoruzkULAABgLIN15aUXqjq98uTiFcvnJ82dFArgWXtn+emLda64ZUvzk8LFc38ez2OsO/7+sWHDyrVLcw0zfnn6Pub2HZGjHUPNlXU9QJeYFYd2XLrcMu7wd6mXMXXWXilvEaUvSVM5WqqvNg9OeT9ToJ1WU2/viMc75cYQb+1pvlZ6dSJh+fIYdLT+yuU2q598ANpqbLt+6uz1xqb6brOXn9ZGJO8e6W+6XjUgSchJDQEdF49fDWg3bIbY2isq6/vRyLx0nbe1pqZzyDKbl0A5xt5fX9FoIiISE3Vcd1VV55iVme1tWXqsv/7auVNXalraei3s7N6gnxLe1tNSU9vhiMgpiAaDFeVXW/x2jDtgtOr08cvl16rbhydsd0PswtxQeq7iall524DJ4l/MY1bhbF3VdW0DY7MotzApUyhsMBPDJhuiTCxYWZSdEQn1tg65/Chs8LZh08CYJ6p45fx5WfEkbTcNjU/5eo5rbLDpyvV2q33K1nSMDw8NmUMWrF9QWJAWhnqGegadU5cKoGJtfMHKNSsyo5XYdHchvQ7rqMlMGnLzFi7Jj9egI3UtE9NMInDogV6TG1VmLS3OyYqXusZM4+Ou2fMOPMuMDw24qJCkghVF6XFK3tg/6gxUYSZgEGloatHKtcW5BvnsT6umwmkeGTUzyoSC/EXLckI4m7G7P8BnswSPZ3zI3D1OOwOvDHniwvXrVs+LVZMB9yh789m//fSZHdu3bNm2ZfvuJ3726tmukYD1EsTRhas3rSpKUgW0pTyLeLtOv/3myYohJxzopbSZctuJKs9xHocDIAgpkRKCWEqy3Vaen1r8gXE73Q4vaVBTCCYSY4LgcTu9U33d8RzLuL0wP+UpKd7rcrntrEIpQWBWTCIQa7c5/Eg4wCghUaiUMhKDAz0FdAOBpb0eJ0NKSRyXQqSIBJ2jEwDM/sY5AAAAp93hFYBCLiNwl5QCnNvjpf0KNwQMz/MeuwPGJKRYJuIpAuEcdp7jZvkJW4QgZbhaIRWh5rskK+aD93o8tIenKALFVAqRwFvsNgcAfm/uAAB4q91YP9yl1M9Lx8QB3XEHgJSrVS45NR3dWElSyWM/LNr96dwbglEMD3wwJCRKQiIX3V2HDoC14cR7ZeaoBQ/kxinn+srMlDctbv5tRqMxJAD0ds6KdY42n9v/5v4jl1tMDujNd9KKNz7xgydLJJNtzsFfUOYJuPFn9mEOAYB8Ie7d09OdZUv/54SAPwcMAAJNt4yCxzNyrfXdD9rONdusRFP60uStW5LmRxJkAG8kzTCf/0vgbGarY6T5zKkWWVLhsqIkf3fKZ4HbK2wgiEgiQTi3x2HzIk6bC1XI/R1iwCgxJSE9o2MuVuOw0UBARbe594eKtRnrv/3Loo3N18/5VdggRahIivZN2DnO4XRzAiqVBzK+zRQMRykJ6vG6vV6b2+2igVY3RxMfAIBYKiHAhNNq9Uq9Do+Ah5HkLA52EAxLpBLIzHmcNpfb5WFQiRS+nw7E3hkkhREUNOH2MLTZ4oIQQqbwf2WZJENKsr6RGL60alr6PjPC0Xrh7XffO9UwzAoAoVQZy3bt2VAUq7vbn1IB4TFWH9v7932X0PkbH92YHSG+G0eHptD3wWShoZKGqrbykxbK3gfFLQsX+xG+ghVhYQYtdercibJIdy9NhYbrtVNOrjBKrAwLwf1MR8XasHCDpuLKkYs80TPIkdFxEX6U8wTWaxs3trW1dvUPeuXNbWohJlYXaCcjpApduLqmqqLyUpvLOMqEFCXNnffBI2JDiL76yrOlw4jRJonI0Kip2fsxwBgmj9CTLY0t5ScGgMOMRCRrJfgsex+BcdtGh1rbuzr7BgVpU4cmIS5cPeeyeAAAIFaHajWtXR3l191ctwmTpcTrAxyWIBwTq8VaKUoELCXBW01dbc1N3QN9ovaO8FB1SqhK5K8qpSnLnv7psqcDtPB5WMfY4JCppdc4ADpamzpCsiPUMmoOP4VIyMIQzAAAIABJREFUTWxqRtEaqS5vSbZeNrdq8je4fXEQXBKWkp81fvpiVZ0QmrNkQbLa70sFiC4uo7Bo+KPzFxtViUWL56WETrn5ikrD4grC4vzlEZYaUnIXjw59XHqOjMwqWVyc4O8OPUc7hzuqrtU1mNwCX3/5MoUpYwL2PhCp1Sfl5w6fvFjbj0XkLVk7TxNYxBkhj5tXMOYovVTdLI0pWJwVHzEtMRB/wJhMnzEvffxsWaMJj5q3ODdBK59tZQjBYx1uvl7ePGi0u6Cq89fUpCrk7ngfSGJIysiaGDtfUelWpi0rKvTbMW4AqxSx8xWx0zHGDrdVXC2rHmVpqLmhRq4LlUkofBZHii9Cm3urL52rtWK80FN7qSw0bFXenHofQEbmbHg2Zw4NfJkpigOhpCK2YMPTBRumkR6pTi55KLnkjvP1eTC5Pu+BZ/ICFshFRarEhVsTF26dmTlEpE5csCVxwZaZRZ8WMK5KLd6WWrxtbpKHUEqVtGhr0qIZVkUAwNLQxOU7E5fvnDMLtweTR+St3p23+i6YwhNLHk4sefguWPIhMuRtfjxv812zdy8InnUOEiTIvSHofYIECXJv+Jy+j8ViCfxqL8dxLMv6lFMCCe+71Mtx3Pj4+BTBWJb1yQYFeGGX53mfqArt55mdz3BPTDjcbhfPewHgAKAZxmyxcFPm6iY+YZpA9H1omp6YmOD52T8CwzAMx3Ecx92hMsMUeL1en9rJ3JmwWq0ej8fj8fhtOI7jXC6X1WqlKGq6+fF1DwRBvF7/54V9Qjk+XYhpWbkZ3dcVp5aV8MGyLE3Ts6Xv4/V6OY67r/R9AAC+n0lA+j4QBBEEEbiiAsdxbrcbw7DAVUXcbrcgCFML9/hyHHiyPrFBv8neikCSGIoiEIQCAAEAwzAZsJyQIAg+xQa/IREECVylaAbcuS7MFHAc56vSuTPh8XgQBEEQxK+oCwRBCILMTAqH4zie52EYDqQhfNJ30+rSt+ITlEBRNJB8+pT2CIK4c4UNn12f3M0dJjW7wDDsG8ZuF+CzhkcQhKKoAPV9fBMZn9iNSOT/LTZwQ/8RhmGx+Lb75TfH22mpiwmCAEHQFMl+AcjlIjAMhyAAAAMAiiAURQUYned5kiQDGWQQBBGJRIHnalpAECQSieZOfMfXuHNnwieciN1g6sAwDPv6QyAKYV/AVxAYhkUiUSD6PgzDEAQxg0kWuOHpAlcX8ylkzYq6GE3TJEnO3VA3AwRBQBDE99u8XZjP6mhaVQDdwh3l8UvJTjcnMwj/aazb/N2vrbmbDgTOXcjDnJqYQTXOsJWn2UvvcuPOYne6H7rlrdz8LQfVxYIECXLfMdV3Fs/RDvOwcdjsFkhlaESEWoz6PRnKeS0jgwPDFp6QaULDdArx7FwWEViPdaR/yAIrI6LD5AGsrfGMyzZiNI7aaVyiDo+MCODpt1uteW3jpqHhCRoWqUIjIjRz+IqkwHmto0bjiIVGJZqQUJ1SMssXiwXe6zSPjJhpXBWmU83+c14AAJ52TIwaTWNODpPrwiNCFHfhEd4blp3mEdPwuI3DFSHhYVo5OafDKc+6J0yDpjEbg0rUIWEhKgk+LeGo6SN4LIP9g2M2D0ypQvX/n733jo7rOO/+5/bdu3c7dtE7CBCFDexVLBJJkVSlui1ZsizHPXZ8fnHivPEb5+S8iZO8rxPrjR1LsZpjy+oSRVJiFStIiAUEARCF6H0BbC+33/n9cSWIkond2eUuyOTF9/Dw8BzemWfu3LnPzp15ns/kOsyGzGdfzZ5m9j5Q4b29Zw58eLplSCDNzvK1D92/vsQePxlPjYx1HH/nzRMDksFkKli8cfvmNaXWOCZUWRJiAmbiDGS8JA6N9w03HXjlt0eGnGue+oun1yQMp9eE0HDL8X2HLwwHBcyct3jrww+szEXdD4BKePzq6Q8+ONM7KWrG7Oq19z20tQxpaSsV8Z72E/s+aOgMAJYrXLhx+8blZVkIGY+o0qSYp/3UB3sPnYuW7Xxy9+1VOWlfGtB47+CFowdOtA6HBc1atWrH3TuXuGcFMAYlb9/lIweOtIyFRNUyf8P2XXcsy0FaL4aqKgqKRFAsgyO/zpoSGr70wbsftg35eWguWrz57h2rS7PYTO4zSSPn9v/+w0vjvIrhpvm3P3DXutqchBkHNy4oBSYCGmu2cMaMOrsZXQOUxeBwzzBvXfPwvbXG/kPvX2wdX1Rgi3uCI4wN93b0eN33/dkThSMffXip9+pATfHCrBn9isr7xrpa+6n6JZV2a5xRA0VBhZS1dD5ioDkUAt6BnhFmwc5vL8/qP3PwyMlzEyvuzkXsRzk8MdLbL+bteOqxgnDLh0cvnu5eX7YwQ5mBqqejfVzOuv3pr5bx54809g2MluRnFabPQ0BVlVVgzsnJC1gykxYAxYmRgQGfcfkD36inO9892nGhZXzhlqLZ2PsVvf19/QHTwke/vYpuff/97ra20QU5SMdew3BkvNc/yrnmF5scyPtbECrQVXfnV3fnRjvONlwZGQ9GC5xsnNmPONnT3NzS7YmoAOCkMad88ZLqIkcSCZxKRGDr7nzisars8eMvHxgd8YUqcriM/RJ+ItXXeebAOV/xyrX1FZn1PjPTxVQ1EgxptMHqyrNwLpcpMj6lJKCLKZFQOChQeSVuhnM4DQBGgsF4sRxQioYmB0a8ghT/0CvCmle++vY76rIR30qVF6OBCGZ3mk1Op83qMAZGh5HpcFAS+EhI5OxOzup2WmxmbWQIKRQoJcWm/DFIctn5NpPFyUEpHI0K6YwQIoyWggUrVi6qzjdl6ORfTYjGYhJuzrKZ7LnZZoqKTkwiBYDdsCAfifA8sDgcrLkwz4qpMe9kOGEpWQl3Dx/f2/aH11rfeO3y+ydGrvoVBQkhg1O2shVbNq4osZExntdMZpMhaXRdkmIrb9u1dXV1Fhnx+zWzxWowZHxPnR+7fOjQmRHIubMyDoubee4DoaooACNwgsAhQRJAkhKBfjRVUWWVZGgcwwgShwCoyvVfJVUMDbceP3r42LmWqx6yveviknXb7r+9xjDD8jiGASyJjoAQKqoKCALHMYLASAIoCfzbtbagBlQF4DiOYxSBEzgQxcyBNGVZ0QAkSQLDMZIAUFETIdySFo7jmdwP0VRVUzWMJDEMI0gCAExJOz1xBqkq0FRA4BiO0RQJoSbLiR8zjpFm1p1rzp8QocWa62ItNPqOGE5iYqD7YsOlQSF/8apiBxd/asC4ylfcXr4CsfbrtpYmgTB+4dAHl/jslevLcy2Z8z5Q5EU5Mnrh2JkRsmzDhqUl9mTWSlPSjN4Hw3GGYXCoKZKkYrIkYkYjSPCYCIqmDJQYjamaWeIVAAmKvn5v4aTBWbxo1QbcxJm76bVrl5ZV5FNpe0VwgmAoCvCSqiqyrMgqZrKgh48RBEEzuKypqibKqqxCkzkjMTsAAAAMDE1iUBJFTdUkBZIcRZK3VsBqIhEkRVKEGpFUVRNjsqZijHF2DrXDKJIgKYxXNRXGeAkjSAOb2DJBGLMd86GqiYBz5NZV2rITwQ+inUfe/P3bh8aytjz+wEZX6PyRS96cRevWLC6zJVoCjnQ3vP/+3hNdUwoEJGOrWnvv/Vvqi5wJpvDh/qaD779xqBUuvmf3/ZsLrr7xu+OTWavuuGNZmSuDSe6i5/LRD/fuO+PLqtpy18qafNssLG/PeDcESZidNqy1f2qoe9I00B/OqssxJOD7kLYse5YJNrf0hCs9EzygrC739Q1gBM1lFVXgihzyyExdTVU8uljSIlgj67Bp50cnvCPqmGc0mrOsGP03w2BibU42PDzo86jB8UkfWTkvc4gNY16uqXHU03t1lJFH/ISxyGzLHOwqI8JNVrPFiPUPefxZEyMBCTqKi2Yp6M1kt5o5ODI2HPTgvZMQt+bnW9FKElmOytsspQRlQNieMxav2PWNytsk3IAH2g6fn8peuH79yvkuhCURtnDhti8VrxUUCACGkQbOajMnXo9n86q2PPyd5fdA1moOHXv56KRz9dYda+dnMRn1BzTLUnxQIQpqViyryjFlGukMAIi350UarEW1te7mF37xZ7+CZZsf+9biHGui22eKahbVXTn77PcekfOW3fPYVxaXxT13hLKX1G15vBoj47OMoL/rzDvP/vUvjwz7Y9Rbzd1feubJxzdWxTthhHHkzKub3/zii99/cSpryY6vfWcFKvgFAIBzecVV1a5zz//1t8eoedu+/M2txZmbjWCuBSvnd7748t99/UXHwrsee7KyNC6PLVmporfjyIvPvfD60ZYp2bx/7d1f+dbXdyzKYdNpg8opmVfdd/nFX/zZL6PuDQ88df9i+yz5T9JRWT2/r/Xlf/7O85HstU88vavehfrOkARDEohTNNxgduaanZoUbT11dM97+3tfecls5IpX7HjsqSc2V8ebj+AM53BzDsQ2fSqCZm1u1gYA0LoOHD55cH/7njf+gzE5qzY/8r0ndtQVoEScJC/MXL3laz/boGEkSZEZjiOYtqknQEiSFA6HrVYr+knKiqLEYjGKopI6x10URYcj3uOQJEkQBD0CHaVaPQURAIB+jntscrL1pZdan31WHBqSAXBv2bL92Wdt1dUoZSGEjY2NP/zhDxsaGuJfuXv37ueffz4T57hHo1FJkqzWhKTb1BUMBgEAZrM5cyZ8Pt+xY8fGxsYSZlooiuJ2u1euXFlQUJBCnlc0GtXzexDPcadpOuVMi2TPcU9LJqCqqoFAgOO4W+ocdwCAIAg8z5vN5pm8ylys85zmNKeboznvM6c5zenm6LMZkaqqoigqCtLWtM4ikCRJ0zTEOaoOT1EURRBmPGJLz3GPn5X/BenNxjAsTrVfkCAIkqLIECoAqAComiaIImJxnReDQu1RVVXn1yC2Cl2yLMuyLAhC5j6LdP5D5kzolSuKgjLeVFXVR4UgCCl8eUmShOM4QRCIOe4g1eRPvZ36G4Hy5SVJkg6HufEcd0VRknprZkHT7zsSYUPTtKRGm/5cdcBFUq2Jg27SwR26U0PkcukvOcrznpYgirr3kXXvo6oCMlAqWe+TGqcqvqa7MdPeJ6Mm9J+6+KNT17T3QaF2/XFZHSQEELLA9SGqj70UPII+NnAc14lC8S/W70inUyVr6I/t6t5HVWfxGOtE0mcS8f3D5/g+HMeh49FSW3WWJCn+8nAKq856m9FXnQlBMNI0g2EYADIAFElyJhNicZ16g9JLFEVxHIfeKnRNd2PmXIM+YjiOy6iDo2kahYmlKArDMCzLms3mFLwPjuPoq86apukrwanNfQAAFEUZDAaUuU+6+HN6s1mWvQVXneNPVz/zPvrsFH3PCwBAfiqUiyGEJEmqqhr/ep3PhF4thmH6legtJ0mSwHECw3AAcL0G5BvX7wJlaOoNS6o/ETWNBMyca9Dda0ZN6JXrin/l9MhE7PlrpT8FHMdRyupjT7eVgvfRbSE+mmTHeRzpHjZDg+1GpPfGHN9nTnOa0y2nOe8zpznN6eYojveBUsRz7t1//c4ju3Y++J1/frc5wCde04Lh4dOv/M1jO7bc/7UfvXC0PZCudG01NHDyhT978iv/45XGKFoJOTTW+Pt//P43/r//aJiSk2yGEhhp/MM/fm33nXc98r1/ff9K+teNr5EaGzn5u79/+r47737qz58/0DqZ7i0yqPCjzXv+5Sff+6t/29vlSf8GHAAAACXQd/r5v/zBD//25YvBjPbWFyV6Ovb98sdfumvrvU//9LUzg5nLBtYFldjQ+df//kff+elvjvZNZdqaLr5j7z9+88HvPneszXcL7WilRzN7H0UIDba0jBq2fPPvfv7j7VTL6WZPIBGJQOi/cv58H/Xo/37tHx5fxHc3NnVH4l2uCYHJ3tbWgWgs/gE1yuiV5iMHjgt5JRZZRXoEgnfoytnjbSEjh2NEkg9NDQ/3tVwatT70P5/92bc2Yc17Dwxm8LF7mxvavdZdP/rlP35tudR/uavPg5yNjyCohLwdZ09cngriBpMhAaIgVQmjPU3nGttCOEvPLlxY8ba3Xh4Edd/91+f/aptr8OKpCxOId6hFo57+ifZxMZxMbyuhqZaTh9uiEkUbGICwVwU1RRL42CfiBUnRktzh8h5//b2ugESbWEKbNeejCZ6Lh4+f7xqNZngPbcZlKlVRAlN+hbW6C6vcBF5saeobF1cVgngZ2GrI5/fxoKy2grOQeezV/tDklFzJzbilocZ8Y1c/bmGc2VkmNs7GB5lTu/6J7ztz9n/YmvgcLQAAAIyjdPndX7EVfHTosJjs+yBGo8GAYC0odmYXmsaz7Vd6OydBkTvJWhAlDHuiwGApqcy1+nKtlzp84WAMZlvS9Q5jpMW9cOdjjvzTRy7GMvWVTWfP23Dv41bD0XNDcFYzZKOBUITHnaUFNrel3HlyPDA2HARuW/xCECq8FBiYutLk6bPlrViSVeZijGh8BdKSvfT+p92Fxw+0ogFfIp0nXn3t9UOtHgUCwuhYsPlLj+9aXeZOglRnXf2lHyztev2f9mWcdvGpNNF74e2X3h7KuatsiTHDuIWZ+T6aJosChhEkQxOQZmgYjSZy94okSrxscHMEhlMMqUFZFiUAruNXoCpF/eNDV9s7ugcH6NYrllhFWUm+baabxXGAJwU2wTCMIEg8IYb6OoKqqkiCStkIAjfQJEVh4XAEgAx5n5ggyhCaDAxOYgYag5KkKGp83HZywjCCIPCMHjOHEzjASQzHEvGf0iwoy7IiQYokcMzEMlBTeD7xp6UshzoHDx/uOd0W9LL+iWD51s3FddkUEor6kw00AgC0b3lz9eav/83mryNde32RNKmos+R4VFXV5NjQxx8eGTSt2nxbfakl06vCM/N9MIwgCAximqpCoKoKSLydh+EEQeKKLENIqAoEkMSJ6xfSFME70Hz2hE4Xi4rhJRKTn2clboFTQfQNeFyDUIOKpmkQzAQpSodIksD1Q8k0qGoQZ4iUXOb/k8JwnMRxTNWgBmRFxXCcRGAN0rRjybwHc221F8e7HQUrF9ryEiFNZN9Ax5XO/ghbUldT4U7m6cj+kavd3UM+HgKAEYyjoLKqONuSCNIjBT193R39k8A9r6qqNHtWENkAqJHhzs7OlqbLvYHcxZtW1RWkkS4+k2bsCJwgOKsFl71hryfEeCejXLYzLvodAEByFs5qlIcHJ4V8v18ARLbVev0Xl2AsxUvv+nJp7dJzx1qYO7cuTyvf58ZEG2jOSkdDvmiYjYSCUaygIFlGArpYh90AJ8Ke8SAb9UUwxs2aDP+16GI3USxnNJrAaDDAh2LjQUAYnFmIsZ2YyZhVloUZDQnghAAAANSob6y3s81roQuLi9wJjzS4tiQfGB/s6RgOahDgNFdIuYvzXJZEH16qEJ4Y6mnvh7Ijt7RkdgD9AGgxT8fxN988Z153/+2LKrMyyDH7TDPPfUjakl+S29Zz7r3nP6YYxr18XZ45gffBuYLSyuLmy+/9+ldWmnBUrqwosscrQbDO3KoVFGExxe/h2ERv8/G33zvY1DEOxuwuZePKlfOy44V1qnxwqP3jAwcOnz7fKvUZ6anbtmxf4kacR1JmV15JIX3o4Ou/UVXcUrDonorMeUYyt2qeq/fI8f/8dSNL2cpXFeZmpTNeVVOins6Go4cOHm/sFVzBcHTbtttqCyxpPVZHi04NXG48+MG+Ux0T4CoA4c2bVldnz8bgZZxFRQXdVxvefqVJ5InipZtq8hDjhnEzlzufy0W72FC4ZOsTS7YCTYmOth589/Dhk41D2lU+Et52x5rKnHgnIBnyajfvrt2MZmZaxuyK9fdWrAcAAHmk6eDehqMfnr1ChKP+iLRzVU2uzZiRDyLKPm/Z7V+y1puLq6vcptkB/MQhI1FsVvmKTYSjeCQMzPnlVcWJD0vCzXnz1+96OKvXo7GuorLyIlvcQYgbrK4SqytxIw1mV/HC9XfNW6Xihqz8bHOi/scIyuTIrV25MadmFSStOQWOJKaRGGXJrlh1B+7sH4/h1oLyqtJkfu6SFZtbt+52Y27/uMg4CsvKC7PSevIEhpFGW17lkk2W0rUaZXHlO9IPrcNIhnPl16y/K2epBAhrntuamcMzrmOZcZct2ECwBcNemc2pmFeem1GoIoaTrL1w/tI7subJkLLn5FuNiQ+4uzHhRkdeWfWGh/JWAwPnzHMYM3h+GGUvWnhbUaZqv67ieQecNDoLq52FSNitT+tj3WWL3GU32qzPi7a4KlZsrUAvgNOsq6TOVVKXmr0bLJ6UMILNLl2QXbogQ7Uztvza5fm1Gan9ExuM2VWx2FWxOIM2ZhJusBZU1RdUzYoxDGccxYtWFy+aFWsAAAAIR/HCNcULZ8/g7Gou1nlOc5rTzdFncx9ZloPBYLKEDZIkERE2Or5AVVW/3x/nMp17QtM0IptimrCBSCYCAPDBYJjnI5omA6ABIMmyPxiEcVs1LQhhKBRCsSXLciAQQGxSUpoGm2Qutk8QBJ12klF4q47s0ZE6caQoSjQaDQaDKHnqX5COf8JxXJIkFMKGIAipgYTANYwaFFKNznJgGObGE9MhhDqs41bLMtVxJSbTjMumnzVX32JHJGzoBAadqoOeHa4oSvw+0jPI9UGPnuOuP2n0ricIgrgmaCOp/GBN0xC7KHM57qqq6s3InGvQ8VqZTqPXnx1Kjvt0mnsKOe46XQwxx11/C1LLcZ/miiHmuBOf6gZ/Ra5t9o3Uk15BCAmCiE8v+qy5JElyHJcUVZ4giKT4PgRBiKKYkO9DUVSm+T4sw+jgbxkAkiDMyfB9TCYTSi/p/ZkJvo/+KmaU76Pj0zJqIim+j9Fo1Dsz03wfCOGNUOUBAOhUeZIk00WVVxTFZDLdgnyf+IC6uXWfOc1pTjdHc95nTnOa083RnPeZ05zmdHMUZ/0CqmJ4uONi44UOL3RULlu7pibXmDhUTQ0Ot587fTmWvWjdbbWONO3JKOHxjnPHTrRMGHIql6xcvbAk0XGOUIlM9jc3Nl4ejnB5NWtuW1M+YwbrdaTygaEr5xouXg2Rrqpl69ctyMlcopcmBfqaPz57qTtiyKtbtmJRRd7MTIAUBBUhNND68bnmniCVU7N0Rf28HFNaI50BAABovLf/4ukmD1WwfFN9oSFzvfXHlgVvb/PJpmFjyaL19WVsgmD8G5Ls7Tl7uqF9JMoVL1ixfFFxFkdlOKpSnOw8eeCEN2/thpU1ubdMJlIaNfPT0uTIeNf5860TEsUR3qZjDVd90YSZvaKn78LRd945er6ltTuYMOEZyrHw5MiIV5TickS08FDHuSMfdVGFhYS3+3zD2Z5wgoqViHegufHCAG8xM5GBcx+c6EqCBAUF73BH49krIcZilCYuHTvc5EMvnLTCvU0fn2+d1GwmeaTp/KXe8VC6iGwAAKDJ4ZG2jy92+lSKksZbGi/0eZMi2iBJ9o1eOf/RvgPHz55vn5DSXn0cqf6hrvMnPzhwrKG5fVRMAoADJSk0FRoLygIywYbvOH2kqT9CcaZw//nG1j5fpuE3ga6Gk2eP7t939krf5Kwi2wBQI0NXOvrG/UI6x+J1NKP30WQpMD7sA7aaDfdsXVefr/R0jEWVRK3BTVnzlm26bWmlA+X3T4l5R9rPnO8OheM6h+jU6PDghH3NA7vu3Lg4DwsN9o7E4tarxcLBkbGgrXLplrvuWFpu81++NIjej2LEPzEyQRau3rB957pqpzrY1BlELpys5NG+4TBmX75j522r5nNhz9jkVBpHmqbIvpGBEJ2z8La7b19eaZNHBiYjYrr9A2a0FdcuX7u8rsDKzG6GLG50FC1YsW7p/GIzQnb7NdJCkbG2sZY+PoT6s6SMXOkM28qWbtu5ub7UGhgZD4RiCb1dpLvh1Z//+Jvf/Poz3/j6N//0z//l9YZBLzJeknFVLd+8bmmFI1EOfrolDZ5659WD54aCWqazvWb88tJUjQ9HAImzFhsLLVajNODXNC3BShFlsmaXlOa1dqPF2amyxIcimhL3eCxNiMViYdnpspEkMBtJXA4FIwCwcaqVpFgkhnFmA8OaTQazQZiY5AFiriiURSEWkQ1uljHYcKPJCAY8fgCsSIWTVjQYFiFmsduNjGQxAjXKi6IKTGl6iaGq8aEwRmcbLXYzZjISSjikqmnlBwEASCPnzCvIy7IOR2eZ/YkZzLbc/BynuXcS9T2Bojh1qXvPvp6TV4I+o2XhhsqdO8rr8+hE9C5+0i8zLhNn5gwGEweGY1FZVq7LrrpGbOHCbV8qXisoEAAMIw2c1WZGTlk32HIL7eN2E0IWfjoV6vzo7VPDtkXbaktsmf60jLfuMx1SqP+FdLof4iGQSnSy/djvXvnde6c7xiPYK3+oXX/30z/62gbuemVxCEkIAY5/0g4MIuApNQgBjmEYwDAMxwBEn5VjABAQ6uF2OKbfeOYmoJoG4Se3BTBM7/P0vcIQ6EdlAgzDMYBhWKZOu9QHySzTxT41ndzlDJO1bP5juY5FTZ5ee8GKhfZCC4HwGw81TY9s1YcUhDhIDHLEGc7h5lLks8wupRYALRbmBX/nkYOXiaKlW9bVOjI/kZ2Z74PjLMsSmiTxMRnnYzHcknSoVxyzJteCnd//X6vvbkfg+xgMhNFEjIYFDfK8qAGS4+JMfAAABEmyBgYGY7Is8bwkKLgtC51mSVKEkSVEWZaVKC+JMrA7MzTxAQCYTCyN+flIVLEqvKTRLgNDp++h4zjOmlgsAGU+KoiiKONGE4b/v84PwgiCNlBGI8UaSQONo61UG+0WTBLEWEyQZD6i0m6GSLwFE2zZ/8ILL+9pGpUhINms+h3PfOPBjZU58UfvTRI/fPad377w2xNgxa6nti0tsiDBHm9QM3sfirJku5mWlr7m0xo71SsXr89n40GdAQAAKmLUOz7smfL6QppnwueyWUyGODNHgqJZq4VOdAz4AAAgAElEQVRJQC3jXNnZ+bZzDQfbOPrqqIi5SgriBxDjJo7LzqY6+rquEKOjA2Owaksx+itnMFuycmyx1ubO5uFwrydqXTLfiVw4WTGFxc5zQ12Xz5yPgB6/0VZld6SRT4GTlDUvl+zo6W0+5demprScFS4u7T9pqsxHAp6JqUmfD46NTRYTOTbTbIxdADSJj4TGJ6Z8Pi/tGZ3wMy4Hi7SjR7izardmJZP5T5XNL1ZPDbWfPx+MDAVN+YssZjahJeuCHT/4+Y4fJGHmM2liJBAMjfuCATDpGZsMcTbOkHY6yjUyZpVWzqtbj+Wt2VRfZKVmhbA585cXwZjza5fWjOw58MFFmL9qx4N1LkuicasFhlr2/+evP+qMyrh58j8Z7e6tKytdM5airIXz1xfOT9RG3FpWs3Td0NXX/v3XbOmK7XdvrkkADgeU1V2xaNnw4N533/Y7ajbcf+eCJKLZMWN24fz62oF3Dr11hipZu/OBtdnohZOWtWrlsrGpvYff6LBU3XbnxsoiezqdA0FbixYvnTey9+iH55mK9dvXV7mt6f6Y1yITPSf2v3GwoWMyirWHpdj9u+9eVTwbu+4wNt595oM39zd0eaKgfVKUH71/1/LSDG1NGxZsuWPg7fcOvnfRVbdx14JStyWzSVWx4eZ9e/YfvTgc1KYCYxH49L1ra/Izue3Olq566C9WZdDAH+uTlQBJksLhsNVqTSrPK4Vz3EVRdDjifQincI57LBYDyeR5xSYnW196qfXZZ8WhIRkA95Yt25991laNhDGCEDY2Nv7whz9saGiIf+Xu3buff/55u92O2Cp0RaNRSZKsVmtGE9BBhvO8fD7fsWPHxsbGUPK83G73ypUrCwoKUsjzikaj6HleoVDoRvK8IpEIep4Xz/PpyvMKBAIcx92aeV5ms3kmrzIX6zynOc3p5ugzn6SqKs/ziPgI8Ck5RQfNoFyvw1P0GVOcyyRJ0qtF3GnSm60TBpDaDUCM5wVZFiGUANAAUDWNFwQ6bqumpd+Fns2M0rBM/ByJoijLciwWy9zERJIkAIDesRkywfO8oiiKoiQcP4qi6DOFWCyWwtxHp+1gCLuxOoJKz3RPjbAhiqLOfkpYXJ/jo4/z+HYVRUEclrMpSZJkWY5zg595H03TZFlGvwFVVWVZRn9OEEK9fn1kx2mxJEno1erNAAAknMBPS5YkRVUVCFUANAA0TZNkOX6rpqXfBYrD1TRNvxfEVqFLURS9GzPnffRXCIXIlbL0wYDy66UTJGRZTqE9+vDQmSQo3mfad6TmffSXbZo5FUf62EC5EsWuPh4yFU+RqnQMXpwLPvM+BEGYTCb0GYTOAKMoCvHDVef7SJLEcfEo7Tr3JKl1H/35xa/2WuGCYKRpA4bhACgAkARhYlnE4hBClmVReknn+6C3Cl08z+uYpMy5BgghhJDjuIx6Hx3ug7LuYzAYWJZNoT3TfB+WZVG8j6Zp+rpPUlZ06T/y+roPytyHIIi0rPvo3odl2Vtt3SchJfIz7zONj0OvXSezobMNdRxf/Ot1+CE6FVBH8IFk2IakzjbEMBwA7NPjA5O6C5R3IHO4Of1JZZRtqNecURPJsg31IZEC23B61KGsOt8Ib1AH3SE+mmTHeXy7SfE5Z036BCVOT86tOs9pTnO6OZrzPnOa05xujuJN1aCmiNFwMByVIcVabFaOQcmHUcRoKBBRac5mTxupBipSNOQLRCScMZktVs6YOPMOaooQCYVjCm11Wo3JJevqZYPhqILRJovNxiVKQbwBQU3hI8FgOKbiDGexmlmUTk7KAFSkaDgcVQiT1WyiM5GzCFUxFg6GIqJGsGab1YzweNJmWpP5sD8sEkbOZmYzm5MNVT4cCMc0g9VqMqYxH2Ymc3IsFAyGY5JGmGwOK2eYnfhj3bYU8XuDIsUZoIybzCYjk5FHOrP3gSrvGzh7cM+B01cCuLN02Z1fvndVvjXBe6jy/s6G937/agOs3fXMn95TmujjV5ElScYYA03E6VkoBwYu7v/9744Oipy9ZOntd+/aVJeA4KHJkfHuk++9vv+iv+7Jv3p6tSuJGHWoRj09Zz5498MLPRHMMW/Vjkcf3JCfseU8carr2J53DpwblDh33boduzYuK7KnMRoZyoL36pkP3t1/OlS888kH75ifk/bjPqHkH7pwdN8Hp1s9AlW4fOvu+7bV2GcHMAbF8NiV42++sK/bvXr3tx9b70DmbGiaJKkKTjAUjuqyYpNXP3rv1b2nhDXPPLVr7Xx7ptFinrYDb7/zUdNwWNRyVj3wxP0b5+eYZsn9QKHtnV/+34/8i3aVj12kNj+0Y92C/EwcUDvz4TaKGBzu6gtbN3zlR3WmgYN7mlrGa7Itrvhvhhz0+YNRuqDCjpJJp/L+8Z6OQWrBgjKbZeb3W5zs7mzphGv+8ud3yWf3HO/6uKW66rbCuONb4WPhYAjLKsiV6WRX4pSwZ7irO5J733cfKwi1HDjWcLxn5WM1GXI/2kT75WHRded3vzpPOH/4fHffcGGOvSB9xjRZDAaC0Gpzk9bEeUmpCIrjQ73dk8yqx39UT7e/d+zq2eaJqo35s5LKqkUD4ahCOLJzbGRSP85aODI+GPSYnBUFrB2ReREbHQobHFluEX1KL/tHrnZ3D/l4CABGMI6CyqribIsRaUTGJn1qzpqn/mrNfH7vz37X1z+8oCzHlPzA0EIjXV39nrBCWtx5LqMmyJgtN99p4PvbhqErxwqmBvvHwzJhdhWVZTMhn2fYEyUw3+kzA6Z5a+YXmoKXglARvMMdY0MTEYlw5Bc5YDBKOXLzssX+c32iq7IoC0anfKo1P8ee7IxwZr6PooQDQY0x2rMLbZiQzZ0emZS1CgDi1k+7y5bdcS9QDl9B4ftoYtg/drWfqagssoEZOxZGQ+FgUMyrL2UN/iwr0xv0ToRBYVxuAWV2z1uxGZAfHTwkJOmzocTz4ZBoznJbbLmMzWHWevu9oCYvuVpQFZvwxiBlzit0mCazzJonGI3wGmDS5icIo7V02W0USSoXopn54dT4SCwmYdZsh8lpzbXQ/ZPjHh7kpz/Q4Doi7IXz13DKRLBhCvmjS1GiY762C0PnW6ZGOXf9yvxldc48M5HYednrbtuWZdc8H6P7OZUPjA/2dAwHNQhwmiuk3MV5Lgvabr69ZsM98wFOgMmzEYqzGI3GFAYFjPWf3LPvclCjSKASnNtKBWN41fo71zu69rx7IXt1DTnUMRZUAabJWKe/xjVw+dwlj6G22uQJ+v2GiUA0V4FqdKrvbNPlbj/OyKEoVzJP6+tll2zdvmJ8z0vvTS544qFVysCFPsPKHVZr2rwPhFCVZYARBEnikKRIIIogYTQTjuMEidBLqhTxXD135uSpC5fbR6nxid6FKzbcsabi+t91qgJVGTI0AQBJEhimSYlOv9TDxYjUYlU0TVNkSOA4jlMkThAA8bDWlCRJsgogSZEYgVEkgIqSGOGWlDAMx3EsY/vmAGiqqioaTpI4jpMUCQCQ005PnFEYBjACzM73CEESWJIrL4a82s27azenao8i5ImWj/Ycm8heeGdlUSpfs3D0XOOoYdW9d610B04cODiiOnBF9o16BobbeGduMT709pl2mFtcYJY94552I1QUrnLZ2ru25TeNBwcWrF9UGurHu/yT/b4JQ/1d96ww9fxhz2WRpqVgMDx8vl8tz5f841Me0Q8d9XbGmHQDZ/Q+GIbRNI1DTZVlDZMlCRgMyZKcZhaGk0ZrdkFJ6ZQ/AKny0uJ8t3mmFwSjSJJi8ICoQCDLCgQ4wyAD4lJpGkFQNK5omqpJsqpogDWlEnuGJoamSQzIkqSpmqxC0kSRKN77FhJOkgRJaDFZ0zRJkKGK04YMPp4bFkmaCt1LKcxI092OgpULbXmZI5fGBi4eOXL0XJ9fgYBgLGX1d2xbU5tnR/x+kj3Nh9842IrP37RjbXWOOaVYnqifZ4wmxmCiGZYmMCYrG3hCk00fDQcdFdUFXJfAuipLq2pLrIspLpsOnLus4Gaz6dpVWKjKCi8Dk9FAGMwGBgeYqzjLH/K2dEzaV1QSl4ZGh5SwbaPdmMJhAjPzfUjS7LBi7cPekb4pdmQo7JznZtJ2ZABOGuwFNfWswYhJHLNhbVy6GGe32JyG1rb2cAX0eAXZmJNjSVM7ricDy1odhvD4cGAKhCanAnh5eVbGjBlz3Kw6OjXQ6zFIY37ckM9ZUplh30QRrJUzG8DQ6GQg2zsaFKG1sCDtK9vpFu6wla1ic0nGksHtTABoZ/GiddvyF0saBDhBmZ35NhOqE5GGzh842UNV3LbrjsW5XKrnkLgLrNFuXyTsM0WjvMLllsx3Sh9f/KjBU3bv2sLs4pib9GRX1C2otfkGBwAgAUF8caKMUQaD2YgHAmEpLIcEiGc5q4ucxw5+3Am23VmUY246e5XM2+Zk2RR6cua5D2mwFFZXOtpef+5//BbLX3bn44tzrYk+rhVPx8lX/+0f3j7riQD78aGxpx++d0Ndzow2SGth1boHSnA2/moalVVRvaDmwnM/eep9c9GSO3c/usid4PNSDnlajr35m1ffb7wypLzd3nHPw898b2cZ4gMkuJyieZX2ptf+4UdTRMHqXV/aUpK5HRzcXVdf3vXqm//8w9dsFRvuerCi2JVOY6rk7zn1h9/+7u2jlzyS9dTZXY999cuba9xo656IorOLyyt7W1977icvx6xLtj64c6FzlvwnDPVePPrWi7/b09gTxCwn2h7/xhMPr5uHsuKE0ZTJQSVFyxEuvv3sS2+8f6YlQH7UsPm+x796z9pSFxf/TknOWVTpLErGzKeSBppPHT/4Xkf0g/0vM5x72YPf+vKWRUXmJN9wzLXuzsWdr77yt++KTGHt5nsqCysN/KXjMcpozi7IZtyunSvbfvfb//W+aihZfPuDa+3XmXdjdFZeVQ44c/A//vatKFm6+s51VRX5ZMNz+8xL7Zwrt4jd12Fc5DSyqeyJxeX7QKiqsiwrGsBJiqbIz331XpfvAzVFEkVFgwBgGEHRFEV+6rFuiO8DNUWWJEXDcJK6pk4wE98HQlWRJVnRoAYBTpI0zXzWsYn5PhCqiiwrn9w4fc0zyQDfB6qyJCsqxAiSpEgy8dJCUnwfqCmyJMuqBgEgCJKiaAJhPSxJvg/UFEWSZQ3gJElRFNIKcDr4PlD79DFDAHCCor84SNPI94GqLEmyomkQ4ARBUjRF4NgXbaWR76MpkiTJKtSh3wRFU+QMYSnx+T6aIkmKCiHACYqiCBxosiSrgKAoksAxTZEkWdUAIAiKIjBV0wBGkARQZQXiBIFDRYY4iWNQlRUVQgwnSYokMU0WJJWgaRLTFEkB5B93BgAIfJ+4P4IYRpA0QSbxFY/hJGMk0787jeEkbUiiIRhGULSRSnX9AcMIiiZSLp6kMYJiiIzNrpLtuVSNUAZyFg8RnLZLUIyRmpXcSmz2TAEAAEjXc8NJ2vC5t/xzw+0L/4t/mj5N0p+Ypj+5Y4K4thKCMn6yxox/ofak9FlJPcE3KcKGpmlJFdHJKfGv1ytEr1anNGAYllQzNAg1CCEA+h8V2ZzeSygog2T7E116zYjNSE16unamTcBPFf/K6Z7UH3RSVqYBOigYnemOTY25o12jhDc1/e7c+AjRzWVosN2IEnbFZ95HUZRwOIye06zTxUiSRCfj6LyPUCgU5zJZlkVRFEUREReg46MA2vDSxYfDUUHgIZQB0ACQFSUSieBxWzUtCGE0GkV5zMn2J7okSVIUJTUGDaIEQdD9QuZMhMNhnSSnI3XiSOe0RSKRUCiUbHs0TdPpYiiPTEfHybIsJwzpiGtLlmVEuhjDMDdOgIIQiqIIIbzVctxlWY5Pj/scYYOmaUS+jz6F0SkBiG5i+lcuzvX6cNcZK+jeRx9Y6HATlaIokiQxDAKgAIBjGEVRiMU1TaMoCsWn6P2ZCeSK3o00TWcOf6G/fgzDZMj7QAj19iNCSHTkUwrt0YeH/ixQ1n0URdFtpUbYmC6e8NFMj/PUbF0rnWNHURRN30KhDvoojT8H/BxdzGg0JkWVBwAkRZUHAGAYxrLxsjB0ZF9SdDH9H/Gr/ZxY1kBRzKePnCQI1mhELA4hNBgMKK+93p9JtApZuo9mWTbT3gdl9TRliaJIfar4V+I4zjCM3pkpeB8IISJdTPc+N0KV13+PUfpN5w2liyoviqLRaLzV6GL6VCZOV/zXii2Z05zm9N9Hc95nTnOa081RvHPcZd5/tfHQvkONo1ru0u333rOq3Jw4/VGZ7Dp74N0ToeLb7ntobW66Fg3U6FjLkdf2NBmW7f7KjrrEX3pQCgy1Hdu373hnwDZv9b0P3rPIncSCnBKe6Dh74L3D571k0Yrt99+3vjRzM1pVmGw5tm/v0aYAV7Fu646N9eW2tH68Q1Wc6v34yEcf++0rd25ZUeTIxNKAGh5tPfLu0X6m8s6Hb6/iZnH+r0ZHW469dbiTq9u0+/ZFlsxmqUApMnbhwFsfnGoPsuVrtu66Y0W5I62Bm9eT2H/q9df2eSofvH9LfVkmY/xvgmZ+WqoYGW5r6vDmLNt23+aCiTOnrkyFEm4b8INXzhx692hfKOKdEhLu1Wpi2D/c0zPGC/F3PRRP1+XD773bHhT8Y4nbAACQAxO9ly4O0At2795ewwzsO9CURJ6oFh0fbDvfFqrc+uBdy93jZ/afHEcvnLSC7Y2XukOF6x++u94y3Hbp6qA3rbumSsTXdfbIyZaWPk8oJkg3enjLdSV6+i+dPXa8pd8zPhW94fNhkpHqudp69vSJ1gGPbzKiZvpEB0Wcaj3e0EcuufP+bbVmT3NT90RIyrBN/9n33vm4rb13PByJysnaCvaebbjQ60F6ZW6KZvTcqiz7JyaijL16wZpasnuybV/XKL84xxZ/T4zOmb/xwT8xO05dRdm/VmNTw+2n2phtFqsxXswS6axYsfsZo/XgkQ6kjtSi0ciYV3SVl1Uty2b5sa5TbT3q8lrE7H8xGp6aDHFFK6sWFPDa+PCpK+3e23MydJS7ODTslWhb/arFeX55YKB7IuCLQWeyAfUzizA5qzbdY3S4jzVLmfqVppzFK7Y9SINjTWMZzKW/noisimU7bLSyr9Gf3BHnGs97p6IBgznXznDIpxEw2fU7v1ZLGRip50xk2BfmFT2qf8YSwZb9L7zw8p6mURkCks2q3/HMNx7cWJmTxEYEt3DX1yor3/YfNCTbs9LQ+7/+dSO34bHKhbPCWkpFMxM2NE2MxTCcoI0sBY0so42HEoeeETRtNJsoAktEPYBQU2WB52MxntdiPC/KDD1zhD5JEaSJJnEMoEUgKkpMEDCjgaJIo4FkGW0swAOAhpyBiiyJMYW2UCRpMtAMDfz+IAAZ8j7RaEyC0GZiSSpkYjBNEGRZTRCCnowwHKcNRoZhcCz9B4t9IpwkGcJI0yQGZnPiAwAABEkQRoqKR8b8Y0FVFScDA02eXnsBtZA0WgjE7GmMoC1WCgoTfX1DQ4K9Ot9qip/9aV2w4wc/3/GDJNr2RVEsi2HM9dIYZhSEEGjRtvf+cEKq3rF1Q1XW7MegoyrOMP8kmA1CCCCEGkjn75oi+Lob3n7jrf0NbcNB4sDRutXbH/v2YytNaYsuwTEMwE+aDiFAxmcCgAFAYBgOIdTjoWG8LcMbbyeOYZ/0MYAQYHgGQwjnBACAojh1qXvPvp6TV4I+48DlDZU7d5TX59FxMrQ1Iez3B8ISYXbaOSw0eObw0fZg1rrtiwsdpvgjQxMjgWAwIigQAAwjDZzVZmbpRItTqhQLBwIhAbJWu82SXMQGFAND415v++kPukyrt2xcU2G+ZSc+IB5hg8BNZo5QIrGgP0YFA1HGYSPS9hqSRuf8Lc/8xZIt7eeOtTB3bo1L2EhaBE2zJhaOh3ghHArHwpLBnY2O6KEZymQmeT4qCIFYLCqA7NyEmaIpy2S1MMAb8fliHB/iIeM0Gplbebz8lxfGMK6VtU8Wu1dcHEfk+/ADH+/9/duHxrI2P7JjETb4cVs4e932zUtKnQn3YGJDlw+8v/dE15QCAcnYqtbee/+W+iJnggCf2GjnkfffONQKF9+z+/6t9XEhnl+U6r16+PcvvXmGX//QE8sXpBHRmxHN7H0o2ppbYGs903b83WGD5GEqt+WZEnltLeYf62z6qPHS5cGY3XKugp5XmuuYGSeMMZwtt7yEMjLxvzSk0ORgR8Op8y0dAxp59qKzrqIsxxJnPomzFmtegeVK27nDHjLoD9qXrM1H95u02ZFdkK2dPX38A6MQCBLFGyutyIWTFZVXXsANnG/ct6eXCkat87LdicZmUoKqGBzvunTu7IXWDt5rtVqYFbX5dmNat4agGJ4a6rlw/lLTlTGgnC40LlpQkWeZFRcqhSZHepvON7e2ealITrFteU1lrhXlQwMzMrY8WyFHo5x2Yqra8pWfbvkKVMXhj1977vRVqtQ41nlB9uWXVpTn2gxxauAq1jz6gzWPJnFHAABgLlmy+7tLdgMAgOobaD3bceZydwdld5ot3IqKfDtLx2ky6SquX7ZeLTQvXb8kj721Ei/+WDMPQ5wy5VQuX16XbZAi0LVsy+p5ieaZAECZD3qGxxST3ZVtDAyOB2Jx82VIk7to4W1rq+Mh5QEAQBHCkwODQdJWWOzSRoY9YT7B+gJpcpYuWLWixBSJyLbylTs2lCeTp8848iqXr6q2yWGeyavfvHVh5qY+AJhLlqxaujCHCAmGwqUrFpflzMh4TEUQKnxgwusXaKebA2HfpC8qp3ttBipiZHLUIzImVw4XGR6bCPKzdZy4KkS8I+Mx1uFymZWRkckQj7i9g1sthYsLl1WYUDmDAAAAMMLgLJ2Xy0je/s7OnqHxIK9omb1VjfeNDvYHrJVFJjU2OerjJTWBQcq9+I5Hnvnyzvpia9pYgBlTvHUfgrYULtxUuHATcm2ENa9m+xM129PQsGvFustWP/jd1UmUwEjOVbH2roq1KdkjjLaS+jtK6u9IqXRywilb+bJt5cu2ZaZ20pRbu2V37ZaM1P6JDVNW6eodpat3ZNDGDDK6S5ftLF22c1aMYQSdt2TnV5fMjjVdVP6S7Y8tSff7dMvolnePc5rTnP6bas77zGlOc7o5+hzfJxKJpMD3QYSh6BQSRVES8n10sioi90SHv4BEufzXig+HY6LIa5qUKt8nIZIGfNqfiMSSpCRJkizLOI5nbnNe71IAQOZMRCIRSZJ0VlH8K2+E76OXJQgCkS6m831Qnu8fS9M0nudxHNfpS/Ev1vk+eg+kYOta6eSsaDQqiuINVpVe6Q/XZJpxO/tz6z5JId2uJbmhXK/j1xJamUYmIlarX6nTUlCu14uoEGoAaNewDZO9CxRNg/XSq2mWXUZDg3SEU+ZindDvYhrcl8ItTxMUUbiIuiEdRZZC304PWpR+S/b1iSP9BtNSVXqVkPH4mfchSdJisSTF9/ljqnwcTVPlbTZbnMuuT5WfWaqq6lClz1Hl44qWZbPBYMJxEgAZAJokrRZL/FZNC0IYh5J9rUiStFqtiNUmpaSo8qkpSap8KtI0TafboFDlTSaT3pkpzH2Sosrrx9ilzPfRYWlpoconZVfTtJmo8jdROlV+ju8zpznN6ZbTnPeZ05zmdHMU7wtCU3jfaH9P/2gEcjmllfPybXTiyFAt5hvt6xoSrYWV8wu4dK1LQDkyMdDRPU7kzF9QnoXycajJvG+4p88j2spry7MMSaUhalLMO9J7dWBcwC25ZVWVBdYMRu5CjfeP9fcOCVxBaWmBLd1zZ1WOeYd7ewc9McKWX1JWkmNjyHSvFqlCYHywu284oDDu4nnzit2zdxwrlCMTg50DPjqrqKrETSd5znry5pSob7i336NZisqLsrnEuKsbkCZMDXR3DYyHNbaosrok1278b5eCM/OLrMmxyZ7Gj45c6g8AmqY6vPc9sLHcOXPaBAAAADkw1nLirdf3dXELtj5Zlcj7QEUUopEYbrGaqHjB/1pkov/8/pdfOzPlXvnEvPKsxMnqCu8fbD3y3t6GrlDtEz8ucSbjfaAUHOs6c/BIq1fQFIzt9IBH7qpGXVNKWmp4tPX0ofc/aMQX7nwgK93eR1Oins7TR461j4YUknX0+7dtW13mMqV1GGvRyf4LJ46eHwipEo/ljGzeeffK/Nk5S1mLTAxcOvbWq8fG8lfdl1+Y5cAR7wwqCh+TRZI2GQj0Q4o1ITx86cieD0+3E4seeuIuB+fK4DqLONpy/NDJK1Mao/ou9Ifv2b6uOi9hssHnJfgGPTzndNq4pPkcs6MZvY+mSIGR/jHJtvye3bWGvsN7GtvGlpXY2firaZqGsY78svkQoDwXlfeNdjb30iuWz3fY4o1XDRisOWXV1SZUSBiEOG12FlWVx7qoZJNd5MjUWP+Qmn/7QxsLIpc/PHLh7NXN1fVpTIL9ogzO4pIyD58+qM+0oCL5BrsnsNw19z9QKLY3fNzXN1FT4DCl81cUCpNjw8MBtn7nXfWGrrcPXbncNr40v2R2UowgZrDnFpeV4Aa0A1Sny4UjY1d9I2Z3TRmXlYQLwQnOUVxRGvGbkE4tF0bbGs40tgwHNQhwmiusXbNuyTy3BSXtRxm90jYCczc+evdy5tSvftPVNzKvJK8siVGo+FsP7zkVKrhtyxobGltm9jWz91HVaCgEKdrscJuxoJONjXgVVQPxKU60Pbdy6arg+OErAQTjUOaj/tEJRpTjp+fgZnfholWrxiY/bEU8Z4libQVVi2IR79hAElRDvVGSwEfDEptlN3FZFGcxwa4RH8iY9yHM+ZV1bHi0py2VI6QSSNPUaCCIGVxme44tMmKixEBIUVQA0uh9VCHKxyScc1iMFquLI8mJqakYKJkVBijOuQpqqLrO3tAU8uRWlgNXR06d6DvT6p9gHYvXlm5cm1fppCiE8hk/Ow0AACAASURBVLiBy69eokZCY5chkjnCaMspKpc5HgKAEYwj22ZApaDxk16RZh0OO0MyRVmwORSJxFSAPGuVR88f3HvRV3DbulzbLTrxAfG+vCDUVBVgBE4QGCQIAqBEYGEYhrRHqwj+gQsf7t17qLGt30ucblywfPN9T9yzmJ1hmxPDAJZkF2IYlgyS6ZqCEGKqCnAMwzASx3EcpHa2HLI9DMMztVwBIdRUFcMBRhAEhuMYVBWQZgAp1DRNgxhBYBhGEAQAmJr2RNYZhWEA4IlIdp8XQbB5WQuWSCpOD1pz6muceRyBPm/CcRwDGABofUjZ82uW59ck07xPpSgKxDCcwAEANIlBRYOahvCzoUlhXpZGLuw/PWZfuOGO5aXWjC5O3Zhm9D4YjhsYAw5VRZRUXBIFzMSCtEW3EbSlYNG2Bx3F1ecbOphNG5cVFeUYbhGsFkEQjAGXVVXVBEmRVWi23qoz10TCMdxgMGBBoIiCJMuygjGGtFLiAAAERZE0qYZFVdWEqKSpmIGdnVWf1ITjtI0rKLaHvKLmcBTnm+yGBOMu3Lr35ed+u2coe9d3vv7w2vwkbIXbj7762uuHWj0KBITRsWDzlx7ftbrMjRIfZzQaCTUiixIAZJhXaBtNJ+DQAAAAkEcvv/f2O/tPjZauu+uR1bVuNqkP0tnWjDdEkKTZZcdaeiYGOrK4wZ6Qe2muIW05+xhOMJzDlZ2T43ZMMnm52S5b+k/dS1EGzmTPMgX7eqfGpMDYuJesqnLd7DalKJwirNlOrXNicrCDUMYnBftCJ0und0kGN9ktFiPWPTDmdcAhvwiySktuZe8DAACAyM6q3eqsxjAUJitXve3rP9v8FMRImqZBaBDdDFe14cm/WP3lTzAcGE5SNIX47WQoKTYdPDM5MOwr1C4OGKwlNocJwZFQDruNUIy585evXVWVlciv3mzNPBJJg7VoweLCtt/8+18+D8u3PvHtxTm2RHu1ymjLod/80/9852JIJOzvt1795lOPbV2SN6MNylG2cFvZwkRthP6uM+88+5NfHx8PCtS7l7sf+dqTj2+sircLJQdHL3z4yr/9596LPRPqy2ca73ni+z9+oBLxueNcfnH1gsKLv/7pn44yVTu/8u2tBRl8iFPNe3/z3K9eO9kXA7bKIy1Pf+exLYuK0xapQBhspfV17a+8/IsfjxkX7vryUzW5jnhwqlREZpdV1Q21v/irP38umrPloa8+umi2zn2Bwatn9//2l698cGkwBIx7zjzxg288uaUayTqG4STqxzxGULSRooEqTbW8/X9/+dt9jV0hzXp04+4nv/6VzdWuOGfqYDhJG8jUzjCyL7l9U88Lz/3No/9HK33w2z9YUJmNxGdmy3d9+2e7UrI4+8L0RAxJksLhsNVqnYVMC4cjHisyhUyLWCwGksm0iE1Otr70Uuuzz4pDQzIA7i1btj/7rK26GqUshLCxsfGHP/xhQ0ND/Ct37979/PPP2+3pR5P998i08Pl8x44dGxsbQ8m0cLvdK1euLCgoyHSmRSgUupFMi0gkclMyLQKBwC2baREnM+nWXZGa05zm9N9bn/kkPY0YvaSiKDpJABFHoOcZq6oa/3q9Wh1TgFLtdIXoVARFVdVP09whABBCJVGrpqXfBQrNQ78yNVZDfOlPSu+ltFc+bUJvf+bSphVFQUzynr5fFHLFFzTdUShldUO6krIybUtPjkfpN/12CIK48RGi96Fe2w1WlV7pHRLnZSGvvVSfo6JXrfN6EB+VzvfRZ6dxLtOJJ+iMFVVVBUEAyZBo+GhUkCQJQhEADQBFVaOxGBm3VdPSvx9Rblnn+6B/yaJL759oNJo5woYgCPqgyZyDi8VisizLspywM/WRFovFIpFICoQNPc0aQohC2NCHaApubtqW7lBQvrz01+fGvY/O98EwLLOhIclLkiRU74PjOEVR6O5Td/AkSeqAi4SahrmgXE9RFGK10z84iNcDAFSKIgmCwDASAAUAHMNoZHMQQoqiUN5JHMdpmkZvFbp0ngtN05nzPrIsQwgZhsmcCX2w6Yp/JYZhJEnqQyK1uQ9BEChlIYSyLFMUldoCyvQEBLHf9Id44yNEfw0pikq4gjb7kmU5Tld85n0IgjAajUmtOuuvIvqqMwBAFEWWjbe5TpKk/t6irzrr/4hf7edkNDIURWOY7pMJgjAaDIjFIYQGgwHF++j9mUSrkKX3JMrSZsrSf0UzakIQBJIk9dcm/pWKougrwSzLpuB9IIQ4jqOU1TRNluUbWXVWVRVx1ZkkSQzD0rXqLIqiwWC41VadE04551ad5zSnOd0czXmfOc1pTjdHc95nTnOa081RvFUeKEfH24+99vu3Oqw7vv/Urvk5iT9QtUD/8Tef+9WbZ6XcJdsf+cqDWxY448ZHQ6hBiGFY/K9syI+0fvjKv/z7gT5L5Yb7nnjqvrXFxvhf5Srv6Wx48+Xf7muectTd8dVv/8nmUvSvayj5Bhv3/ucLb5/wUOWbHvn6N+5fnAH6xSdSwgMn3nzp5XcavNbaHQ8/fv/mxTmJzhVPSpocGb704atvHpzK3fH0I9tRHmKygtHxS0feevm1/e0R58r7n3zmkU2FSPyJtJnva3jvpRf/cKw94Fj20Lf+5LFNNY6Ei5cQQggghmEYao4qjFz96IXnXjzU5nMt2fHYE7vXzsvJPEQNCj2Hf/WvL3xwaZgp3vDIn3xt54pSG/oiNdRUDWI4nlq69SwoTv8p0fBQW3OvqFocdg6tn/m+jqbmEctTv3jjn55erg1ebO4OxwuM0Xi/p/tSc18kGvdQEXmyo/Xcpcjqf37vnb++tyzQfKzJkyCYQvSN97R2wfqnn/3lz55aCj/a1xBEaj8AAAA1PNLf1ubN/vLf/ern399m7DxwsC+V6A80wcnLjd0R9+6fPP9/vrUODF+52u9J666pEg30tTYPytBqsyE+xGQljfZ1to2QG7/3i+d/stsdvHz0wtRsnaQMAACa5+rlXqH03p/u2f/sA/bJzguXxxIfUaNFo+M9422jQhi1t6H/zOGzRP2Tf/+Ln395odrV2jPuS3x8jSZGfBMjg4MDA4MDg0MjE/6IpCQVPxU6/1ETsfqZf331jR/v4Pq6Osa8MdSiUI70n/vgwOmusVDmhu8NKs6PBMk5KjfcbXVn7T84gTZulZDf7xOw0upSkxnLNXb0hbxeGcwMU1L5wETfpStMbkG2mZvxKhj2BwJBsWh9Ncf6ch3G4aGJsRDIiXNWhBoTYlNh4Kp02PJzs1xu9kpPr7x5CeJ2pBCLBYOCNa/A7ipis1w2pe/qFCjLRiucrPjRiShgLEXlbos326q2B8LBGMyxpu23iuSyarbcZ8lqOHIhmhnno8XCkYgIbJVuc46l0H5hxDs8wgPXrCUN49l1Ox6pgRhF8G3AaKSMdPxfek2TQrGxztFLzZOD1pxl9dnzC1mrIeHWnjQ47DdlzXPl59vUIbfWF4zyvAqY+MECsaHLB97fe6JrSoGAZGxVa++9f0t9kRN9+mld9aU/XUHiQPBdwg0GGmmzFQAAgBYbu/Tm7/Z6yrbVmbhbKwbxGsWfouIEnsyWqypLsiAz2SyBYRRNalCVJQWA6/gVTRGC471drRcvNbX1UyaTWllbV1eRfV3EE1RkVRY0liExjKZIDNOEBKemaaoqyhKgKYLAKQpnKOiLiQCgeR+oqaosaiROEDhDERSJRaNRpJKpSBAlBUKOoXECYygMSnrwXfpCFDGMIIjM7ZsDoCqyIqsETRMETjMUwKDIiwDMHrIAIykKKOHxluMn+0jXqvkV8dMxVTU2OtXSNPJxq3+ClXEDabEzHJMQsSRGeUBaSZomCYKkcEWSNDUhb4erWPPoD9Y8mvQtfSbSyEA53N1y9sIIWbG22B0XAQoAAFCVFE0NDzd8eGLEuXzXpqVFmYSS36DSGomLEyRBEYooaZBQZA1AkiCvf+tQU/igZ7i/b2BobIzq6XOYXMU1FdefX+AEQRIkFpVVABRVAwCjEtBSMQwjCQIoiqZpqqqpGqANyDeK4ThBkriqaRqUVU3VAGNIf8Tgp6IoEtdjpzSoapAwEEQGPUUmhBMETuBQUCCEiqRCDSczEGH5BUE5PNnXfL5lRGBL6+qrHUJn40fH2rFFt21eMd8d/1eGomw1JXc6TMVF492OgpULbXlI62wkQ+mhi6qmqTIgaApL/KDEyZ7m5pZuT0QFACeNOeWLl1QXOUwJfgYF79CVyxfaR2Dh4volVXbP2UMHG4esizatri20JwroUYPDF5ouX2lqHVZz1+9cVZs7e4D/FJRW70OabRY7qwz0jseKvF4BEKzNfv2eJmgur3bT3bnF80qPtTB3bl2e65oZXWqymiwOprt3IDpP8vpFxVDqip/OThgNJqsZdnoD4SnK6/fy9pIC9Dgs2siYbUw0MBkOMGF/IIwXFTmRCycrNstphJ7Q6LCP5SdDGJNj4m7p8fLHwo0ca2K0/5+9946S47jvfavz5LwTN+cIYBdhkXMiQAIgQDBJpEhJVLQsy7o+1+/da797j599fG3d62fTWZYoUaIoJjAh57hYYBeLxQZsXmyOk2Pnen+0CIIQdqZnMQOsrPn+wbMH7OpfdVXNr6t+Xb9PTc36Qp7QdIgT1fY0RLbjiPX0NLc1DohVW3evX5Qjjz2KajWOCodSodTLIaoCAIDC5dREJwLu6VllwBtANE6V4hEQSwV32+nj10aNS7bvWFVqUcv4tQqB4ZYzx29iW1/YtbhQ1ukvj1HxzrSITHVfOHH401NXekKG6dHR3c8fXFuoi3f2BKJyFZUVtt384O/+WqXSFyzdVJqnj9dDmMaau2ijDjNo4/oGylJQXF5044O/+4tmtdJUuXJ7lT3+yxVRGMx5xc72k0f/6TKNGXKW7qizyI+kEBqrqzBfeeTIG39PQ1V21fqdRbI2c89LmK280jFw9MxP/vc5jT6vdnNetiWVEweRC423nz5y+Oj5phHaPDI+vWffzrp8Y4JwRVJCKGt2Xp7l9tn3//UUjWRVrHmy2pr2uT5CaK2la3eVAgCYkYY3r54+1cn0jPZdOaQt3/jUllU1jgQLP0SttBQoLUlYRLOW1Bf1nzr+r1eh2pxfvy3Xok/M7qKyilZsLVqRhBkAAFCYc+o25dQBAMTxY3997PRln3lksvOywVW9dvemulxzvJMtMEPh+j2vFGyisgsKjAuYqSopDhkJowzZi9btsVZtYkVUqTHarQnPpUHVtrL1B75eMOUXKb3V7rBq445DlNQYHJqERw0jpKlgye5XzIvcUVxtsjud5kQ/UJTS5VRvPGAqnQ1xpM6SnZ3U7wHXWotWP/ls3rSPRVVmR3Z2+pwPAEprxYbdhtLlPg7XZjkcFn1KP1YjmMKUV7f56eza7TzEVHqLw6qO9/6Ylw2FKadu89OOSndYII02p8vySLONcEv5zi//4RI/gyAIghIGe7Y+LQs/3LF42wFLlTvEUfospz1L+wh2FSDG2mf/6M+3RAQMRTBCbbRbNImsYhpnyRJn2muWGsXlsqmM2cXG7KTuh1EGe6HB/rDVuk8oqbbklltykyhBKA2uIkMyEN7PheCU3pant+XNq3SStlDKYM832PPTdHdCbc4rNaf3SVBSY3aVmOfX2A8rTGXKKTHlpN8QqjBkFxmS+zk8pBCVvbjKXvwoTT5SLfS5WUYZZfSfVZ/PfXiel0goMksKghCLxTiOkwmgghDSNC2BaeJcxnGcdJlMbJBUDZAMiSYWjdIsy0DIAiAAwAtClKYJeZ/VIYSxWExO3STkazoIG1L7RKPR9OEvGIaBEGIYlj4T0uCRUB7xr+R5XuL7zANpJPUCiqIykRc0TUtktaSsSBJFUWINy2EJSQTheZPM7rPLcVwsFksHyu5hxDAMy7Jq9ZwflL7ANqRpWn7vSjQTiTUjs4jkUyRnEecaCe8g87aCIEhopfi3vVcxmmZ5XoCQB0D87MFJecUlAJUchytxD+TXSr4kJFUsFkufa5B6VsK2pUnSb08iHMa/UhppUmPOgy4msb5kdoQ0nOZHdLxLg5TjfXiel8b5w9MjIYRS+yw075Pw1fK59yFJ8veFKg+hTqVSoSgGAAcASRAmg8FgkfUFBEJoMBjkYJxIkjQajRmq/FxCUVShUCiVSjl8H7VabTQaLRZLhir/QLsLmSofpykycZ+MMsro8SjjfTLKKKPHo4z3ySijjB6P4kZ5RDY40dVwuXFcueSJDXVOg4xdZDFP97XTxy7fZo3Fy9ZvWlmVHW9jpmxx/rG2i4ePNU8qs2tWbdq8oiQxwEWI+gZuXLjcGcjd9PSmUl1Sx1kLEc/AzYunGzr8mGPR+p3bl2enL3FJZLzd186du3o7qMpbtm5jfWXu3EyA+QgKrG/0VsPVWwHDkk2rFsvqxKQlRKZ7G05dHSMLNjy5plCV9jSvL4pz9zWdP3Px1khEX7Z+5/Y1lQ5VOl6qIh8aaDx9qS1atHnTsjKnnHONUyF2rPnokXOzBU/sXF2do3k0Nh+V4vF9ooHhGxfPX7ty4/aIO0zL+S7ITQ3camjsVlVvrDKFu29e6xqP+6EBspHA1PDwDM3EjdWLgaGu6+eu+Uq2bCnAZ9sbrvQmpPWwgcneplNnmzpvt9/xMmJS30/F2Mzo7aaWMU1JbaUN9F86fm02meJJKtjXfKN9FM9ZWm1lelpbByb8KT1AS4j4B5rOnr/W2No75gnJ6sSkxbpH26+fP9XQ2t077OcfNUxGnO1pbGgZEvO2bKtCeq5dv97lTvzlBzKMf9o/6uNi8qs723L6+JXG6zf7pn3BxAShFClw88ThhmtXm7omPH4m2W0AoZGbN9pH3KHfRb4PRmldS9ZuJwn8cljeC1MMTk+Nuem8J7fVm4f56YbxqQkPn5M9pw0+6h6/3XCb2ryxVkHNXZOwZ3piwmtb/a3VK/0K74nWiaHxSKV+7qxUAACuzipesW0ncfVKA0w26YgJB2anvIrcTUvXZEdvHT7Z0NbtW5eV+k9XAAAA2LHhqRhuXLxpXXag2Xv2zpTHU5JnSNk57gBV6nOXbtyBq650QbkJlckK09orV22LhZW33Y8hswg15K164uByXGfRTfmuD06EA5HEiBIxEJ7omB4yuOoq9fI+2QKgL12zW6lXHe5UyB5Roa6zb7/z7qmOaR4CTGmq2fyll55cVWhNInNHUbB6X5YFnbqgSnYYsxOnfv5GI7nimdyyBRteidNLCIardEaTXqvAZALVuFgkFmYUuWYlRqjUBIR0LMLEzWQVeC7GoGLcTQEiE43GQrzBqMFQXq3AED4UDAMQ1/ugOKUxmIw6BYEmu2UF8ixDRziFVkGSWkShUoCBWR8AafI+kVCYgcCg11FkVKsEQoxm2ITYmCSEYLjaYDLqtRQWStU97xdGKXSk2aBV4d50HXwaT4TWbNUCAMK3W27TaJ4z1xbvuzOk6ZnrPe981Hu+KxigtNWbyvc/XVafQyVOGVXozaaoXkkksYjXlK1/5U9Xffk3c28ExQmSSK5rKYPZQhlUyRgFAABA9x5756THsfXgymILuUC5qrIIG/OtOwIBPtfSjo/Mdp1/6823Pr7SPRVG3vx11bo9X/uvX1+vedAmC/Q+Ppns+syv4ggA2H1lH13vLdhxstAERVHgWE6ACE4QOAqC3ad++lYTVbN36+riuPntiEJhW7/4u6XOTS1J8X3Ao+scKAocx/ICwAgiEcrqt8RHZn3RcN/5Q234ss1bNlbOgbhZGEopAIRQqpUaBT3rjvKWcJAFEFdpHvzwuDqrZvcf/dWqPV1Nifk+ChWu0uIjvpAghCMxAeJafTqjbwSJKzU4zcQYJhiLRVmQZU3TxAcAoNZqKOCLBAKMlgnTkHQoFAuei7AAJNLTPRd+/dN3m/2WDftf3GydOH3mFrX04LNPLs2SFfJGcIxSkxoFhqcVuB7uuTiPlVdosOmjX//skxa44sWXX9q7MisZi9xU+0c///n7l0OrD35lxZK8hbX78Lc0t/eBIh8LTAz1dvUNj7mZnl6XVlVi05LxIBuoweHIzVKeOn/iak5smFXandlZ8dwbQijVRoeNTDAdVWc5nLmW5oaPL4nU0LigyC9yxV12AQB5JuiZ7O3tGRwdZ/RdvWZYUGiV+4qjtAar09za0nzjcm90cpazrSpLn/chXYU2aqT9xtlz09hkUOOqsZgTHNeRlKDIRX1jg33d/cPDUb4vx2VQF5g1ZLLz+Pg2uFhwdqKnb3BgZBxqb/dbSoqc5rR8dfpcqNJRsfMHf7sTACB4Oj5+u2Uoalxt4Uc6bgXtuQ6rUZXgrYpaTKUbTKXJmBQDU4O9XbfvjI2o+vqddnOF3aQiEyyjtBWbv/E/Nn8jGTMAAF3xypf/+8qXAQBADM8Mdw93DE2O4X292S5rjdOspuKdEkNYcxdV1foN+jXrl+XKoZE9VsXxPgLjH+tsbW6542f52M0mldaZk6WJ630AZi2qWblq+vCFS52m0lUbllfEx4DhWkfRCkdRojqi2tyKug2zE0fOnVfkLF6/YV2JLkEJgY1M97dcb+uYikGx/coVJWEskO19EEVWdtmyuumTl26NEq6lG59YngyFKlnpi5avcIfPXb7ZpS1YsWFxsSsujy1ZQYH2Dre1tnQM+8MC3dZqMNmtehWZ6OT05GzQgemupsau8clQFGm5cN2sMNnS7X3uEc+IpAYXR4cbj42juKZ841NbDAm9z3zsTPc2X7t6c5Znka6OVr3VrtMoyVS+KR4kwT3QfPF8oxvnQG9Hk8bq2Fyniut9AOms3/eN+vTWKmVCpDQwlmVDodDvS57X7GzHz37W8frrzOgoB4B1y5adr79uqKiQUxZCeO3atR/+8IcNDQ3xrzxw4MCPf/zjTJ7XXPJ6vefPn5+cnJST52W1Wuvr67OzszN5Xg+0u5DzvLRa7VxeJRNjyCijjB6PvkDYkA/rAfcgAjB583gIIcdxPM+zbLy9WizLShfIfOtKSASpoJzrAQAsx/GCwEMofEbYYDlOZnHpKeS0ktSe8mslXxJhg2XZ9E1MJFYDx3Hpg3hIuBVBEBKakEAcUmPOY+7DsiyGYXLKSp2LIIj8FcBv24IQ4jguh+8jVenhO1EURUEQ0tpZ85NEy4nzY/kCXSwcDifF92FZNqkfmEROCQaD8Wuc1G0ljA6KovIxQ3QoFGUYBkIGABEAXhDCkQgat1Z3BSGMRCJyiFA8z4dCoXQ4CMn7AADSN9qkX5EoiukzEQ6HpV5OSKURRZFhmEgkEgolvWdJ8ggoisqEeEmUHOm1mqwkIpI0euXwfSRbD/9+ghBK/ZVWHtM8lPDRPvc+BEHEWaHdJwmkNI+4D8uycUIh0ssn7XEfntcoFEoEQQHgASBwXKfVygzQiKIos5UIgtDr9emI+0jNqNPp0jf3kd4QGo0mTSYkKJ0U9UjYmDzPK5VKrVZrMBiS9YZSdFJ+3AdFUWlIzy/ug+M4juMKReJDR+/GfSiKekgXLwhCMBhUqVQLKu4jcfjiAws/73gEQTAMk7mMkoR9Jpm1kU7VjH+9KIpJ3RZ8tvRL6noURVEEQQFAPjt7UGZxqf5yhss82lOmUBSVqpFW9Bf4rKHSZEJqRjlLj7vPOz/S691Rl7CsVJl5GwLJdM3dQT6/Vd59St9gexhJVMk4LZmJOmeUUUaPRxnvk1FGGT0exZ31QZGN+memZ6KYOdthVpEyXJXA+GfGx6b9IqWz2B1Wgzru1ijZgjwdmBmd8KNGV75DL2N+KXLR4Mzk5GyIJTVmZ47LkMzZb5Bngp6piWkfi6pMdpfLkhJI0VzGIBv2Tk/NskqL3WZJdMZ30hIFJuiemprxM6jabLPbjOqkMxYT22DDvtnJKXdEIPRWp8tmeLR5jSIddE9NTHnCPKm3ZbtsBlVqBt0DLPEx39T4lDvI4RqzzWEzpXjb+BcE2eD0xPiMLwopqyvXZtLI+f39bimO9xG5mLv/+unDh8+OOp78gy/vLEt8PLcQnuy+8OH7F4dZhVqdvWTjzs2rC/TxtlNzLB2lEbVGgWNxmlaMecdunnjzF2dGzatf/dOvrU6Y5SXSwbH2C0dO3xgL0IjWuWT7c8/UO+SuiSEfmuq7cuzY1cFZRlTaKtY8/ez2wgQn885fQnSmq+HkR59cEqqefPbZPdWp3VcN+ehM36Vjx693T9KEKa967e7ty/NSvBFZjHlGbpw9cbFjLESL+rKVu/bsrrU+OsAYjE53XDp24vLtIEeHYcGWAwe2r8zXJHhCKAgMzbMYoaJQ2a5K5INjrcc+Ot456otBbe6SzXt2rSqwJI2+kCl2pvv8pyeuDfoFntbX7N6/c1WpNcmt1Wxw2sso9XqtcoGmucfxPlAQOQ6q7I7smF7eY8Po2GD3gMf69B+/nDN+7njrYN9wZd4iy5wjQYh5J3s7hoi62lKjPk64HjK0AAl9QbnM+Byk/Z7hgXGqZvd3l1uGrp48c6lpZsUeh8we4EIz44NDjHPXqy9mh9qPn2250r+ucFHaTlNmoxxmsDhzxJSmWEiCPOsd7pkQnJu+dCCb7bna1D8wU2o3qpQpNAWZmfHhYa9y+TPfqiN7PjrbfaN9atGW3EcX/2RpqM1f/czm+vLYp3/33sTgkHdZviaB94Oh8NSgb0KTVZ6nNsn+UAQhD7Oqn/jqAUeku7Hh9vhUIJJtVsWZ/TCzA7dutfdPhwUAUFxpL1pSW5FrkjW/Fabab94RnNu+/q164uI/vXl7YKQgx1qQxEtQCPZfOX5p1rxyw8qyhep94h1Ir9A4KpetrK3OUcusPB8OhgI04cy3UhqTWQFgOBCI98UfspHg7PC4h2bj7/jA9M6iVVu3Vdtk7kkXYkzEH0aMZq3abDboTUr/xBgjrygAkKVj4SCjMZo1eqtZZ9CK46MeuYWTF2bIr16xprbMrkjDuJp+JgAAIABJREFUvFoUhJDPj6jUOrPLrNVryJgvwKX40CeRjkSjLKq1GNRGh01LEJGZWZk8qJQI0efWrdmwvjYPC7q9CKk06OPPRjg+1D924XDnr9/peO+dtk8vjvf5eF7WVjGUMBSu2LJxRb4Bj8ZiolqrViRJ60lCsWk3Q6q1FpOSyCqwitFAOBxJglHIz7Sd/+TyHWhwZOlS+a5JreLPJlAUSebLoyjwAifgFIkiCIajEACBf/A+R4EJjnVcOHv6fFN73zTe1dtSu3bH/q2VijmMIQhAkmhCCCEvCADDUBTBMATHAJ/Av91rC4pA4AGKoihCYCiGAoZJJ0gTQVA0buruQwhCKPI8ggIUxzEUwxDIcmBe53TOLVEQREFEcBxBEAzHAEB49pGiPBEMwwAz1XHik8s+U/kTtSXGuC4BRXCtyurQumYYqNM7slQ6UvYQR1AcYfz9LQ2tI7Rryco8kyb+so3KKlqxtWiF7Ee5RxzHiSiC4hgAgCIQyAuiKAc7J3IRmuem205eHCDL1m5bWWJeuM4ntXwfjCAJBcFEooKoZWM8gBhBPniWieIKc97iletRtUbbT65Zs7Sw2EWkbFstimEUQYAYKwg8x/GcgKh18vdhYRhGUignCoLIcAInQLU2AdBjwQpFUIqikAAQWIbjeZ5HSCopPy5DGE7gBCaEWUEQmSgnCgilTPumN5GeGbz2yTuH24Om+l0HtuaGGk5f6IUVu57aVOnQxP+FYpjSZiqHgsgAjclRXWqwJYIfRHrOvP+rQ6cmLVteemZjVrD5TKvHvnjt6iWFBkWCmFG4v+HTTw9f7HXzEOCUoWzNvv1b6nLNcqbwCoUCFaM8ywKAR2iB1BFEIp4HAADw07ePHzt+tmHEWL1x/5pFLl26cLopUUq9D26wGC1qeKt9IFQ6PRMDhD7L+mADCEZqLLnFKM8FpzmqurIsHl0saWEqpcpkEJsnZjzjwuT0RMS+LE/+tySFWmUwq0JjI95pITA168VLS9KJ2EinUBzTWU1iv9c91kdw025GX2lSkqmlT6BqvVanRIZGp32WmXE/C015uQ+btZ3YKGnKWbrva8U7BExNBG+dax0RC3fs3VplTzAZ+UyYxVS6QVeAEQoZQQVl3oonv1W6gUUVqL/zdLPbtmjduvryLGViU6qcRTu+lLeG5iEACIIrNHqDVmY8XpGboz7d5B6d9OfCW6OkdrXBKOfLK6ZV4hF3mHJsqF9RYUsUfH/cmnskCrRvoOFXP/2PXxxtnqTVJ49sfulP/vS5pVlxP/tRuZWLq283vv6Hz3POZXtf/MqSwrjnjhDG/OotL1UgOB63laCv9+qHr//ZP58Z80WJD271f+m1V17aWBYvr4Iy2Uuqy2+98cYfveG21O76+h+sSEQEukeoxplXVpHV9OM/++4kUbLjy9/enpfGEKr71uH/+Ld/eft8bxgaK063v/a9F7cszksZVR5XGAuWlLX//M0f/WpKWbXrha9WOEzJ7D2QI8KeX1Jxp+2Nf/jjf45Y1z/z6v4lxvS/b1Gc0ljsGgBApKe9peHDX16a+PXPf4STxrUv/+DVA5tL9AnK4xiFYzKnaKhCa3ZozSIb6bh89pOPjw6++TOtUpO3YteLr768uSJLOfdvCKU0JqsmHlBmTiHmuo2ren/6k/928G+E3L3f+kF1SXxW1mfFNMW7v/X/7hAl4OxCnvcAkOH7ZPg+D1SG75Ph+zy8EvJ9Pv9XyQ3JzxSH9yjZIim87d0rk6oGAODeq6Hs4kk9b1K1SkrJPvICNJHsnZNt+XtLyX+WeQyn+4rf90fCiqWqhVN4qxQqfq0+9z6CIMRiMfmJahIiQCa4AHyW88pxXCw25xGDEELptqIoymxKibABAJA/a6NpmuE4DkIOAB4AXhBiNE3NXav7akjTtJynltozHa8jqRml1O2U31ySRGxIqwmapiX+S8KOligZDMPEYrF5zH0kAEv8dEdJEjRGqs885j5ScUEQIIQJ243jOIZhUuIyJJIUTdPy4VyPQBL3g+d5Wd5H+l3JH20S8ympSYqEGorjfcBn8BoJLiPntlKXoyga/7b3iqZpjucFCDkARAAEUaQZRmbxuyyVhFcKgiDNPGXWSr6kJorPLnh4E6IoptWE9OqSfqvxr5ToWdJSJdn6SL9MOa4HfPbym7dHkIpLTyQTmSbVcB627rMrtY/8qcCjUcKW/wLf5/cl7iOKms+W5hwAFEGY9HqD2SynLIRQZiuRJGk0GjNxn7mEIIhCoVAoFHLiPkqlUqfTmc3mTNzngXYXctwnQ9jIKKOMFpwy3iejjDJ6PMp4n4wyyujxKF78AgqM9861Ix8f61dveOWZTYUWGavK8GTT8V/97ONrjG3x1qef3bWqRJcS/yaExpqP/OTXjco1L//BM3VyMn350HTbmUMfN7rLnvnus3Wm+PsZ7y8bnGw79+GvDjfM4gXr9r/85W0l6du8C0Xe3XXxk0OnPDlb9+3dUpriMBFkwzOtp98/dOz6FFWyae8ze1aXGJUp3zwpBEZaDr91pF9Ruf/re2q0ad/q/EUxE62n3v/1hxe7A+alT7/y5T0rCrRp2h4K+dhk5+kPjjRyBbsO7lieY0o7SCTce/qNN9693OdW5a7c++UXN9dk6x7FwezC4Il////e7Sl4opoZ0a3fvaGu1KZIw+eHOD9KLuzrvXrmSt+AjxahvDRgZqT7xrWu6KY/+tH3duR4uhpb70TiXS4yQc9wT894NBY/B5SfuH3zxMeHx0kNDNCyvhDQnpHOKycbR6JMKCYIyX3AEMPjQx0tA8jG1/7rH+6viTR9emY8qfLJiZu8ceH89bbRKIrGUp+dKTCBOzfbxqn65775zb1lsa6W3mkfm+pNIfRE/42GC43DfoaOcY98y4k40Xbxap9Y/dLf/9MPV7K9N6+2Ts/nQAo54oPuW+eOXhufCtMC5JMcVvOROHntTCtZ96U//z+vv7oU6Wq7PeFO/SfUB9n19tx05+3ct6XWgQQDEUYeAyB5xZn7EBpz5bbnzLk5x07OynuXCEG3ZyYiFNXWZOmHcpTDw/5pN1c0N85EiLjHu6+0U0+YDKo4+9UBbq9a//IfWxxHj3fIHFiUKX/ZnlcMOedPnWaS9dl0JOL1RvS5Ja68bFOgr7evt9u925WuVC/Svmz3l4octg9vp+E3I/C8Z3pG0Ge5ipbkRcSxwdYJT6zKBebI/Z2nSFvJ+qe/YlCdaRp9DCt51LFk/9cWQYQkkSG9ThlFBEbGYWuRyOxsxKvQZ1sorey8N1xnW7b/a7bciyc6EFm/iED70Z/+9Oef3JzgIMBVlrpdr33r4MZSu2xKD+rY8u3/sllgw7MjoxFWoaWIZJEeYrTj43/990NXhqOqolVbVzgEdxCt2vrkKvvEm3/9KVizqUy4+smhK3eCZP6KfV/eaO5pPn/k8rhGQw939c2Svfw3lntYBR+avPrBu4cOXx0LklVb9y2FXXe0S7c/scn71nfe9Kz57sGVwvC1Vqbqyc1LHKbkpr3xWh5BMBzDUPnPyzM0E2OVVi2OoqSCECHL0iwADxjqUBTYaMAzPTU14/VQE5PTOGE3G+Zk7qEoQJP6wSAIiuPEvMgVUOA5NiYQegzDlBROEkgwEAQgbYmmGIYlyHObv6AocrEYiulxSkExJIHCWBSmfEsaiqEoiiMoCsDj2O2GECQJRDY60Xypk1VWFRY640YIIORjrH/Yffvm9B2Dc0WtpTCLUsrkKyAIThAoisl9UH3Nrh/83a4fyLp2ToVbP/hf//LubVD7wmt5Wfrk3hvi9MVPG8H67/x1vS1w9fjZ6aCBZcDMuC/gbpsyOFYp+i+f5JY9+ycvmyM3L19r7aaDbqJmxwsH9xR1/ssvRxZt37oo+HF3/+xYl28QbPuDH61UdL97uicM+ZA3HJjuuBNxaH2eCe8s62c0RTYiebRBSvOdERRFMUQQeAgxUYAA4sgcvktgg2O3Thw+fOpa55AH6+rvWL756Zf3LlEtgMMYEQTBpcMJIRREKEKA4QvroBL5QgCCoiiAAIqiCKEIEVQ6Reh3XVBgIt6J0ckAR5ocLpuKH2898+HZiewVuzfU5sb/EXBcsGfk9OmBK50Bj8o3Eyjavjmv2kbEyXXnQzNjI2PTNGXLy3UkSl/9YsmwZ2Jiwh1mRQhQjNCaXS6bQZWIlMFH/FOTo9MBYHDYTFq1suaZ/+cfNrcc/sW5lvZRp7kyR5tEB84MebWGLK0+Sy1qNcQMojOJwch07xXvqNa+2IUO3Rlp7XxvuMlAoRpHrR0jzGZ9ltV4b4KqyMVofxToTQZSrzdoUAQx2ZWj/lDPpXFNVaWxb3JqgvWpaywKZfLpy6klbKi1ap2SnRj3sQ6/nwGoQjdHjAxXGIvWvPCdivpNTefbqSe2L08pYePhRFCERkdEw4FoxBMJhaKI0zWvLOUFIBRDNQYdmGYivtkAHYywpEWH/8760nvFhz2DTefOdYf1tWvWFgj9F5snnWv2PbG+3JBoRJOkqbbkoMNQ1TLVb8quX2RwJuL7sLP9N06fuDJjWr3/qS3VyXwWYD3Dty6fbbrj4yHAKF1h3bYdqzUJvQ/jH++4cuJKH6zcuEQXjqiyqxZX2IxZZnQqxrCsHMTY51JpKS4Y41ia50RepKy5herBnomr54Z09VtdLmcgK69+3YH966ssTDAIQgPHL9+G6BeTrRAUxygcsAwrsjGGRxDKUlE629bbdCta80q+afTS0ABCLd2iUc0DzhkH+c7TvvGOpstnzzbe9PcrUMhuXVdhj0exBajGlVuUrf/k2C/fNiNRzF6Tn2OO11KoQm/Jr67A1cr480naO97bfPL42Wu3xmD0eJFixaLq3LifG0QmPDXYfvHc+ctNrazvaBZbv3JNuUmmaya1ZnuuE7l4/uh7GEsDTemOYrm7qOeh6Ex/y7WGUxcbR0Urg5up9VX5tpR91kBw0pBdaLzd0Hz8rRsoTpqrltl0VIq9D4z5J/raL5+9dPH2FHAb9eKqFYsL4vb7wwuhzHn1z36nHgDATd145+dXWoaJat21w5MdOTXLa8ryErGaEbXSUmhBlAo5PCBV4eoD3199AEAhNtPfePbiuUvXh8QZEhU3rq3NM6viLJtVeXVPfbXuqSQfTu2q2vmVqp0AAOi+8fYvjh65ffO6CfHPKIo2mfTJHa+CuJbWmg53NhwZo/hIVFu+NK+cogfbzsxAh8Xp1OZQSy3v3rp4ZLxDTVCGmiIFD3/LtSGUwZKrina2XzwxKnh9qL00tzSHvXXkEl2wTms327jGa9SybVrlfOj6Cd4UKKW1l63YIBBGWbE5zJBbuWY7S3WM8drysqqaQnPcUpjK7CwzO+XVVGGrWLahBFXJ/8ipzspevNYESXVyp54gpNFRUr+RJW8PhzFzUU1deVKz7eSFk8q8xStdgDKlfP6HEhpHxaq1vKZ7JIxbi6sXFZjU6fELSlflEl0RwBWP4oPwF0Say5avEuyhZJJCUK3GUa5xzMMaqjLl16xyQsqkTi2l7UFCLIt37OPMNwdmIlTuxuraRQ5jch++EVXJpic33ewZDrBESXZ5ZVGWGcfrtz3vhM7qfAOqNG9+epehc9THYeacstw8pUrtACqHgqIqtuxwZeVlGdlN251Z+XasKKundzTA2sqKyisKrBrjxn1ChXNRXq7GsHevC88vNmjm0+8Zvk+G7/MAZfg+mTyvh1dCvk9mr3NGGWX0ePQFvo+EMpBZUsIjoCiabJH41wv3SP49pT9kVkOCB0kAIYkrJkAos7iE/pBJYEiqPeVLuq38asxDUrXTbeI3HZFoC4AoitIjC4Iwj7mPhLyQA7KQUBVSxZKycree0i9CTrvdfaKHHyH3ts9D3iq1kmoli+/DcdzMzExStxZFUeI2yble6loEQSQYWPwaYxgm/7Y8z6MoGg6HZdUbAMbr9YfDEQilY6dohpmeno7pZKGfIYSzs7Msm/iMnVgsNjU1lQ6+j9Ty84DdJGsiEomkz0QwGIxGo+FwOKEJCKFGo/F6vfLDAnd11yOEQiE510tDVFp4zkMSsgfDMDmrvKTGeXxJMKn0ddb8JAhC/MXg592pUCh+X+I+FOXRarUoSgLAAaBUKJx2uyE7W05ZCOH4+LicBbZSqXQ6nZm4z1zyer0ajUar1cqJ+2g0mqysLJfLlYn7PNDuQo77ZPg+GWWU0YJTxvtklFFGj0cZ75NRRhk9HsWN8oh81DfafbvXSxbUVRfK214lhGbu3L7ZR5tLlywt0qcoCiZEPEOdTTf6faQ5r7xmUYkzwWm5APJR32Rve3vfdFRpLVyydEm2Ngk/K9KhqcHO1u7hCGbKr6qtLbakb2OZyIXGezvau0eiCmtxZXVpTpYqtcZEPuy+09UzFFUV1JTnp2ePnEj7J7pbuz24rWp5hZ1K/za8LwoyvqHO5vZZVdnipWX2dNGF+MBY+81bA7NRtb2kurrUYVDJOzf1Yc16+pub24O2pXVluRZZEdbfHcUZKAIdmei4cvr02eszeU/l5OXKGbisZ7T13Afvn5kw17C5dYm8D+TpaDAQRo0mLRkHHSBGJnqbThy+EsvNV0xddwdZatfGgrjbgoWIb6St4dLNaYwEsdHRSVb3yvZiuZsxIeOd6Ll64eqIQOLs+OiEn7AcXGKQWThpRUbaGi9dHYiodOTEdIAjqdXlzhQegCvEQqOtF06ebujky56yu7LT4X24wExvy9lDh5qi1jpDTfGj9j4wONTZfOHQ26fDpXtMlfK8D+S4SJiJEQqdCqfktTbd33j6UqcXUJQ4MRkE1Oa60qw07Ru/R5H+a6fOHjtxIrTW6MjJsSiT8nfRmf6xiM5mt+iVC3ONE2egIBihtuZW1FT521DZ6au42l60aMmsOibnty5EPRPdN/qp1SurLMa5OzLqHhu5M65d9f0vb4o0HTnd2d83UV9QEuc1AGMh/9ioR1O+ZseKrJGGkyebb45tLS6Q2QNs2Ds1Mgmy1+/akB1uO3amqbkvtGR5mlK9+ImBOz5oWr1/X164+czlibFpd75TIxsAk1AIRmoc+ZU1XnpUk+ojlO/awBXmnNKa6tAYTT2Ow3sxtaVg0eJFd+7I9CMAABgMT/a4R3X2mmJtlrxvq5MdHW5dydotq1zj10/dGJnwFedY1AmOvI4Ot5w5c1+WaZXTmMSXKUSRVb5s5Vh3a9JvDd7dfPj9K3Tx9p32rCSLPjLFeSaUUJiyC4vDUz0903LHFKGz5FUsmh6cvu2XcTXkmVjI7WU5Pt4uKZGORMJBLstpIQlcrybQmYAvDEAc7yMwbCQURXR6lVKn16p0iujsNA0K5P2mIcfQ0TCnytIpVSZMrVHB7kkvAGnyPhF/gIao1mzRKEWDCo5EYjFGAPPJ2HuwUFJpyS0u9k7fmZG7HSpp4SqDs7C0uGfYOwwfg/NBVFk5RSpvtn7SI+dylvV2Dp/8DWHDsGhtYsIGAACA2IyHUZi1OoNO6ddqwWQkwrJCojxJ0py3eO0O15LPCRuGJL2I0llSZRI6tF1Jjgh25PLho918xfaKnCRTwx6l4rcFgiBIUjgYBEEQOa8/Pubpbzj03gdHGzrHAtinx6tX7Xzxuy/Wqx+0NQAVRQyKAMNQAFAUAQgUEmxF/c3WVhRFEIAiCIYCUZC9eRWBEBVFgCAIgmAogiJAiOscH06CIEIAUBQFCEBRANOwuxhBEJDebWgIQFAEAOSLx1M/MiX3gAShK8vdSpE252d0MTNOJC4t8gJAUEQ6HQ9FRRGR8bC4xpxbas6VW7UHCJF1DOI9EplghGOGr37S6M9ZvnlrnUsj4+Eelx51gPAzswpT6Yav/FHFmu1NF28rtm9Z5nIYyLmamaJQSoXNxDgIaYaDAFOp4kffMAxTUiQM0zzPMQzHCojOJD9eh+EopURZQeCFGMOzAtQZZG2DnpfUSgWBQDoWE3iB4URCR5GJ8C8ZASBGxzpO/vT1nzV4rTte+s7L26rlh5oRBFdRRpPKYlT6TWqTgVLJ+nkqdWrAsSxNsxzPRATCQmKJiZTzI6v6uy++/dN/eqdRXPf1b3/zhQ12mQ8GAACAG2t5561ffXhxdvHuF75SX24kF2bA5zeKe6aFyLMsQ9MsxzA0zXACRSRiVUCRZ+kYzbAsy9I0y1ME/uAiCILipEKpUqvVaoVKpaTiRJ21FkuWTd3UeHncQQxNRHldbU58d4BqNOosC9I9MjKmDw2PjUULNuTL/0krNVqzVdvS0z1+JxAYmfIqqyvShlUFVE6O7trYSNetXije8ZDqIr0xuchiIkGRZxmGZliWZWiG5QUKw1I8E4KiwLM0zTAsC2M0w6ooMl2o2M+EqrIX7fvzH++TzPM856dZlmUZOsZwWgLHE82/MXtWza6smiQsEsWlzk+vTQ52d4vecR+VVaXVJEbtzI+saihf/+2/Wf9tAAAAAs/EYjGW4wBD0ywnEDgW99kIqyPPYipcUrJ+/apiwyOnnSSpub2PwASHmz/89duHLnR6WEXHzZtPf/O7exeZiXhNzs/0Xnr7n390rCPEovrmac/Lz+1bX22f0wZhzK/eml+dqI6osaR62aq+//jxH/8Xdem6/c9vr0mUvUAYbCWLa/vfeff/nPRYFm9/6dW6JD5VImpHXvmS4q63fvy3U2TRloOvbJoPB0aujFWra4fH333rr88YqnccOFiWn1Iul8D6By6/89Y7R672+XlVa1v3My9/aXOlNR7CP3kb/tFbJ95/4+Nz7VMh5GjnwAsvvfz8hqK0nzVzV8E7V4588IsPz3XPxKgz10df+tZzT64pSP1sVVm3fWvfm2//2+lPbLVPPLex0KZ/BOsGpufEv77x/tGW3jDoaG/ueO4bz24ud8Q9pEqRv/21/7k9/TVLiTJ8nwzf5wHK8H0yeV4PrwzfJ6OMMlqg+twnwc8ksyS8Rym8fn63lf6Qc/1vinzx88w8niKpuqVcyXbWPO5/3x/pMDGPwTY/KzLLJjv2Hlj87t9ptZWmW6Vc8Wv1Bb5PMBiUT9URRZFlWRzH4/N67i3CMIwoin7/nHuBIIQ8z/M8zzAMTdNybisIAsuyCILIRyvFAoEoTdOiyAAgAMBynD8UAnPX6l6JohgKheTY4jguEAikA7nCsizP8xDC9C2LaJqGEEpknHTcH0IYDAalXua4BOcoSvCaUCjk9/vnsfJiWRZFUY7j5ICEaJpmWZZhmHl0nCiKDMOgKErTdMJ243leMvTwnCbJriiKCdewj1IQwoRt/rn3wTCMJEn5o02iluE4TpJyI4ySc4l/vURmIghCZlNKHDkEQeRXQ6AoAsNwBJHOb0ZRlCIImcUhhARByBkuKIqSJCm/VvIlvUwoikofTUrybmk1QZIkhmEYhiUMNSIIIg0zkiSTrY80PFAUlRMTkcYnjuPzC6BI/hrDMDntJh0ZR8geePHtchxHkuSC8j4AgIRzgi94H6VSmVTUGQCQVNQZAMAwjFodL0dLmsgkFXWW/oh/23uFRKMkQRAIIgLAAYBjmEqplFkcQqhUKjEs8YcpDMNUKpX8WiUlBEFUKlX65j5S56bVBMMwxGdKWBmCIBQKhZzI8X2S3pEoiqpUKjlRZ+ntOO+osyAI8qPOAIBURZ0ZhlEqlQst6oxhWIYullFGGS1EZbxPRhll9HiUYJ0FRZ7jeBHBSSLh/tHPigg8x/EQxYkU7niFIs+xLC8iKIYTZMIt1wAAAKHAc5wAMZnX/3ZZnhcBihNkunfuQoHneB4iOCG7kZO5+91nwXCCIDA09ZEcCEWB5zhOAPK7J7UVEHmO5USEIMg59tanxozASSMq0Y7jFJrjeRGiOEmmpeMet+J4HyiwobG2sx+8+2m/adf3X9kth5wisqGB65/+8o3TdNXeb/3R3kRQCygKPC8geIKmFUIjrcd++eP3bri12Ys3P/383vUl2viBFyjE3ENXPnrrw0ZPzav//Wurs+Ju0b7/IWLuO41H3n3v7E0f6lr6xPOvHKhPH15MZMNDTcffeftYsHTvl17cU53apA4oxrxDlz995+OzrR6qYNXO/c9sW+LQJcrnTtIGHxxvOfvx+8euDEU1lVsPvPTM1qJE9LeUio9M3z79i3/8Zb/zma9//7nlsrZ3QigIooCgOCorKxoAABj/8KUPf/7BucjKb3x1z5pyY5p9gRgauvD+2++duzXFalfu//oLO5bl6JPEmQlslBFwkpwr3emxKx5djInOjAx5MMpkMibgmNwVMzs2PDQSsxW75ARbhZhvaqhvHK+syNdp5478s7O9t1s72FV/8bOn+aufXOq6cquscK0z7vhmQ96pkZGQ2m6nyWS/A/ChyeHunoD9uT/9m+xg+8nz588M1j1Xmq6vCaJ/aHA8xKvtNlPqZ1iQZ3x32gZp11Pf25fNDzS23O6bzjNpbIpUmmKnhvt7poi13/jL7+OdH1/qvnRzccE6+6Nb0ov+O/3jEVrjdFpk+zwxHJ4cC86qTAUOpUHmNyd/b9swq9CZKZ3sscCHPRMTE+7w54QNl82gkpVGLM7cvHIr4tr/f31nNXb6H95r7S5x2Wpzkogqi7S7q+HCIFa1vLbEoVuYmctxvA+uMhSu3KY2qMGJGbmuk7KXrd3zJQV5RhbfR6QDntHbfVRegSuO94FhfzAQYLPXF6tVPqtBMTw6OxUEzrivOFLvrFz/JKk9e/IUk6zbZ2LRYIDW2RwGs0thMuuF4UE3KE1XrhduqVy7w6FCD3Um2PUyH4kC7/f4gNZkshdYwz49OTTrYzgBpNL7CLFQJMwiBodFk6Vz6akRz8RkDNjT8qnvgUJNlau356kjU5dk8X0EIeYODHaMt9xyj+lsS5c5FpfoLCos8ezAUrvzaYfzeOi6/BkI6xm+dfk+uphGnvehx6eiCr3NbtNQyjIHP+gNBcJijmx+mhAcajr04aVTbbDNAAAgAElEQVRo5RP1mvQTGOer+CsKFEVRJJmRimIoFidb/a5ELuoZ6WxtunbzVvsowXLeyiXLVi7OffCSgOcFnhEVFI4AgsARRGQSHuaHIIicI90eJCgKIs+KGIqiKElgOAai0dSfCPi5UBSVMfTnJwihwLIoCjCCJDAcR2GMAXA+53TOLZHnBV5ACQJFUYIkAAJZmgXg0XkfgKIokL8xQIR8KDozGRqfjsxEApOz+oI8rVkOeA4jMDTJjlLl1T311bqnkirzGzEMI6IIRuAAABWFQo4TeEHGVyLI06wo+Acvnm7yu1Y+tX6RK0GQ4nHqMfF9khGC4zhOICFWAIDnBQhQMunVVDLmUBTDCVQQRVHkeFEQgUKZLlB5uiXt2wQiEHmOFwRBQHAi1aQxFMMwHBVjvCiKHMNDESWotCe4Q9Y/0X31QuNgVFuxYl19uVN+UQLXFmev11AW01S/Kbt+kcGpSltQhJ7obLh6rX0sIEKAkpqcqtVra0usOjnNQ5IkKtICxwOA06yIK3Ecl+FGBO+dhqvXW5q7w9qyLXuWlWQtXLAheGzeByVUWUXLNxrNNqOqnXpi+3JH1twvS7Veqzcrunv7wyX8rJfhKas1TZxTAAAAlEqpNypCnqmAFw95PEG0oMCcRnPpFIphWrMRDod8U8Mq1uNjNYVGikhtn6MqnVqjAONT3qAjMBlkRa3TmX5vjZIqgzO/hGAVdoMKR3+zbV1+cYMuZwlhJFXG1Ebg7xOmNNhzizhNDAKAYJTJZlDI/fyhdDgU0Q7/1Ew4H+2exDS1Wl1inhAACMp6+pqbh6ntL9bV5BoX+ORi7uqJbGis7fhH7x86cXUgou/p6Hz61Ve2lRvjtp7g7r/20Zv/+MmVMb9ovBUMf2nP9vrSrDldNq5zFi7fZUNNhrjDlcwqKqssvfHLv/rBOY2lcPX2vTW2RLtjw+7uxiO/+uBYY9sgf25qcvfeF1/dnCuz33GNLbu4SNf+4T/+ZRAxV615cn9BGreQ+vsuf/T+Ox+eveWB5pYez/Mv7lhRak/VwSkIThnzK/M6Pzzxk7NBKnvxut0ldkOKcXcIac0pKLJ2fPqLvz0UVRSt3Hlwkfzo77yN4ipj7uLVuQAAEBq+dvjd9w59cmkgrDvfPvOVV57asixHk6C8gjI4qaQOKmE6jr/x7ifHrtyYxVs6bz/17PPbl+eaE0ybCKOrcrmrMhkznwm1LVpROfDh0b//k18LVNnWF0oLbHJGIaov3PLs9xY9RVjsNv3CBhuCeN4HJVT2yq0v/OGKPd8UIEJQKp1Jl2jjC2rIWfz0t/9q66siBBih0hr0cUlICK7QmOwJBgoACK7Pq937nbz1YRal1Dq9QZto4YWpDEUrnvxe+cbXWAGipFqjNybREZgqq3Dtgdeqt0V4hNLoDYZ07l/X5i556qv5G5/nRICSSo3BqEulNQRTmovW739t8bYoj1IanUGrSvmQREhDdt2OLxetCjMirtLqDdpH+8ZVOao3Hsiu2/kdHiIooTGY9Kk7EuQekUWrn/l29Y5XWQhwSqXVG7XpXdTg+pKNB75Ruy3CAlJrNOpU8mZpqNLkKowH0FpIinuiDqkyZqmMSZzHgeCU2uxQp3yhgmCkxmTXyG5UBMWVOrNSN8+KICiu1JqU2kfRiRilMds06VvaPWRTyLOBUWqDVZ22M8/iCyPVhiy1Id3HxiBKnUWpSx9j97cNYmnvuMethTg3SxZTMk8ayxx/Z/SfTAuQenNXKazbgn1MWXwfURQ5jhMTHFbz+R0FQZDILHISvsFnHACJtxL/Gp7nURSVmV0tCIKUkB3ntveJ5ThBFEUIBQBE6cF5XmZxiWokp5WkK+XXSr4kBJKErUn5ze+aAACk1QTLslJSeMJ9EdJlHMdJ/IOkrEjDA0Iop6yU4z7v3Rr3DkU5Oe4S/kY6oydZW/fZldonfZ01D0m/5fi/lC/Qxfx+f1J8H57npSR6mbXheV4UxfgVkm5L07RM1oc0YgAACSFVd0X7/RGaZiCMASACwPK8PxCAPp+cshDCcDgsky4Wh6P2MOJ5XmqltLoG6RebPhMSXYxhmIQOWhRFiS7m8/nmwfeRHApN03LoYhzHSTTieXiEuzwtOcWlHpToYska+m27EnBOApwvHEmwpDgXfP7/KIr6faHKo+i0SqVCUQwADgAFSVrNZoPNJqcshNBkMsnBOFEUZbVaM1T5uUQQhEqlUqlUcvg+arXaZDLZbLYMVf6BdhcyVT7D98koo4wWnDLeJ6OMMno8ynifjDLK6PEobpRHYH2jrWdPnhtW1T+za3WuSU5+Cj/b23jio4vBvA1PP7vGkar9WEJksv3MO5/cVCw78JVd1YnjTJD1j3aeP3LkQo/fULJq38G9i61JbIHjQzPdjSc+Pt3swXNX7Nz/9Lo0bnaGouDtv3b6+CWfY+2O7WsK9Cm+PRf1dF4+evxc6yxVsHrbE1uXFugVKd+KLIQmOs58dHaIKn3iua1lmkcdfRAjY83H3zk8YNy45+Dm8vRl4UA2PHnjxAfHLncFVEWrtz+5bUWRKaXHwv62Incuv/fukaYhj9JZt/3pvavLHZpHsZdTGLnwq58cuZOzsZSd0NRvWlldZElHp8aZ+/DhwMD1cxfb2gYn/VGalfUlPjZy++qpj87eCYY9bjrh/gORCfnGBgYmY3T8NB1+urft9McfdQVo32RQzrk5nH9msLVlmKw5cGBnJTV85MRNWafz/KZWkamRzubOYOn2g08tt05dPXppSn7hpMXP3LpyoeFa53gg4oukHLIhsIGh1psDsbzVO3bUmWbbWvpmAlyq94Uw00OtjecvtA9NT7kj8nZspFLizK2GK9cutY95A56QzHwvSNOeCe8dDxuRewwTAIBn3B0XGu7gtU/s31Glnb51s38myKZ1k40403K2Oepa++I3v7fZGWi92TXpSWIgP4RdX/f1IUXVspp8ZWB00hthxPQ8ZhxHiqkNReuePGgxnzzrletvSXv5xoPf1Jou9wVlXC1E3WNdlzupHTq9UhGPNGQuXnHgNaX+5JluWYNFjETCkx4mq6iwbJlNFZvsvdw5ICyvkvnKZyIh92xQk1tfVpMdE6fGLt/u8my1p2vLKW6p3rTPrtN92puGn63Ic56pSVZjq6xenRdt9U+1jbkj5U5TahNNCXPeih0HSXD+5uTj2HCCmqrW78nRQqYxIHuqLQZCk+3Tg8bs5dWEWm6OO07Z6nZ/vYpQUOzA1fCYNxTjeRECMHfxQPvRn/7055/cnOAgwFWWul2vfevgxlK77EwQNGvVS99ZiWJieKqhhcdQRDaI8TNBtvfYv//buxcGI+rStTvqHbw7hFZufmK5derXPzrMr9pUCRs/fO/CQIAqWn3gpQ2mnpaLRy8OKxTRO7d7Z8lelFru45RCZKb5048OfXRpOEgt3nmgFnYPa2q3bF/vf/f7v/Su/ta+5cJI0y26fOeGRXZTct/v4mVaIChJKRQUlQRQFiNJpVZNYEicLgEASChgjo7FotFYTIzGYgxHxeEB4wSGq0kcRYAs7yPwfJSmEaWCIHClAldR4qQ/BkDChDKpZjzHMlGe1BE4rlaQFAl8vgAA6fI+CE5SShWFoUg6vI8ospEoiusIpVrBUSQmxiJQFFKMNkBxnMKUJIkj4JFPfAAAACcpXKnEZZ6DSdMz13ve+aj3fFcwQN2u3lS+/+my+hxKTtIWgpE6PQHpmTt3RkdpY4VLr46fNaev2fWDv9v1A3mP8UCLOEkGGn/yZ3/7i27V5m//cYnDlNwCSJy98OF5uv61v/xDe+Dq8XPjbgPNgslRf9jdNqQwrSR6Lp4V1r/6F9+1hK+dPtvSafeN8SUbDxzcV9r1L78cWbR966Lgx90Ds6O3+wbo9d/+XyvJrnfP9fnFsDvq9810DXp16MTUmGeG84aJPAumSHpx9phS8Hna299w6L0PjjZ0jgWwE2erV+188bsv1qtTxp5BEUQ6MVk6yTUJLBQCAIYgKIQQQlEqvJC2kCYlBCAIggAIfvMoMH2HAz5iiTwT9fsCMQFT6w16lfxxjygUtvWLv1vq3NQil+8j0iGfzx9iMa3ZqEGCI1dPn+0KWNbuXJJjSgC9EJmwPxAI0zwEAEFwhUZv0KoSHlIgsNGQ3x+koUqvU1Gkatkr//vNXdc/+vnFa63lVmO5S51EH04OuHWmlXqDVQP1WsINNMZAKDQ10Bi4o7HXuODwO93nLnU2mrU4qs1ZWZuFmrJsVrvp3tMNRDYa84aB0WKkjHqTDkUQs5Ua84f7Lo2qqqv0g1PTk4xXWbFMoaKSHluPyfvgSnP5ltf+tHZLV9P5hHyfpIWRpEqtglPBGB0KhqIhVmG1yYdWkBSh1uKxWISm/dFohAY2R+p3DD4aIRiq0WmBm4sFfaFoJMoRBp3MxJiFLZH1jt745J3D7UFT/a4Du1cUJTmOEZJQm9VZWpySsZSJDV8//KtDpyYtm5/ftRgZud4Zsq3dubm2wJyQcxodbTvx6eGLvW4eApwylK3Zt39LXa45wfIkOtFz5tP3TnXAJbvX5ZG4Mbussshky3bityJROiaCZEiplJLgaZbneYGHgkiYswsUQ/2ehjODitpNTpfDn1W69bkDT6+vtnDRKPB3Hz7fIWJf3HCMoBhKYIDneJFjeQFBSHNZ8XTXYNPNSNmXa41jjUODCFazQaOikh9Xc/caFNjQzED7jYbmjm7vjM2oxVbXFpgVcXtLjPome26eu9baNhI16pqKyZICh0k1Zx8hlMbgKMonlFT8wcMGZ0e6Gy43t3cPi3hji7m6uNAeD+2NqnR6Z7budmfT6Wk84AsYa9e45E9fSK3Jlm0TG69cOKak/QEsb2Npij9E3SvGO9bVfrOxtWNImCVNefrlhQ6TOlXvBBQnDNl52q4bbec+7EZ4hspflKVN0NhJCzIh9+jAjebWm7cnAX8lR7m4ptiZZow5qrAWb/j6f9sAAABscGK4rf16W1eX3wsuFhrqi/PsifCBqMlQWG8olGdMXbblK/9zy1egwIxdf+ffr/QRBcrJnhuc11VQXOQwKOJMqzXFq1/4weoXZD+WJG1+7YHv1R4AAIjTDT9741RL1+1CpzgxgllX67VyEGOfC8murVKf7L55wa9m3SFl7qL8CpIZPnRulF+61enS5+I1mkMd188HRtSQx4tySFb8LY+AkHpTNhXq6W66GoDTflRb4CrPoTt+9FYop17rNFpjzTeo2g06pWoewyqO94E8HZp1u0OYOceIBd2TnkhNfoLoB+RigemxSV5tzNIq/SNTfle2I05aBa625i6y5iasJE+HZodHArghJw8Tx8em81z5dl28ArjaXFCzckWksW00bCiqX7u+KAnWJ0KZnKXLVwau3OjzU8669esXpXPqw0X9s1NjjCrLAijaPemLuqyp8z4AJbSuqvpl4cbWviDhWrK8rsiScvoO5Jnw7MQ0Q6mz7Eh4bHImv7jIGbd7Uis+FpgdH4lqsp0kQY+PzQazs+OPjnkLwRTmghLHbNQz1BMK0JjJlWfTgzSeVoPalu/eGzl/pXN8VJG1eNOaJdlmZVLWEHXltl2+y619njCRvXhdXYnNRqCLVuxUg/yKPCOqtmzf67vU3Dfr5m1FS5zZahTTQ42FJJWF9asNDqdRZ1q+yuAozyZyda1t/W5aX720blGxTWdcsc7nyi/PdumVWzfoyLICvWY+sGNEyn9nWTYUCv2+5HnNznb87Gcdr7/OjI5yAFi3bNn5+uuGigo5ZSGE165d++EPf9jQ0BD/ygMHDvz4xz/O5HnNJa/Xe/78+cnJSTl5Xlartb6+Pjs7O5Pn9UC7CznPS6vVzuVVflfjqRlllNHvuj73SSzLejwe+S5fYhdgGBYKheRcLxE2pP/GuUwiD+A4LjM6KmGJUBSVTyqgvd5gNBoVRYmwQXPcrNfLzszIKQsh9Pl8cmgeDMO43W753A/5kggb84DdyBfHcRBCOVSKeSsQCESj0Wg0mnCaIIpiNBr1+XwkSc6DsCEND5n0CQkqEg6Hk7Ii6S5hIxwOyyRsYBgmf7URx65EklpoHxSkB5RFF8MwTK1Wy3+AuxQemVNHCGEsFuM4TqeLtyrnOI5hGIIgZE4jBUGgaRoAoFbL/WpGsKySJEkEgQDwABAYptNo4tfqriCEKpVKTisRBKHVamXeNinRNM2yrFarTZ9rCIfDEEKNRpM+E4IgkCRJUVTCnx/P8yRJqtVqnU43j5VXLBZDUVSlSrzHD0IYCoXkr/rvkyiKkUhE+kUkrKcEEqIoiiQf9vwhURRDoZBSqXz4W6VWCeFNX/A+cobCXUlvYPldBSGUuGJxrocQoigqiqL89fBdPp78ESNSFIHjGILgAEAAMBRN6ikoipITDUFRNCWr+t+WIAhSE6UvKMMwDAAgrSakwSbz5Y/jOEEQcn7V9+nuFIOiKDlxHynmKOfiB9riOA7HcTntJo1z6S378GzDWCw2b6eZJklTnvgcvocaWyl/MUo3TPa286sGMsffvxP6T7NrUL7m/chJFXzEDYsgSKosLrQhcfe3nKGLZZRRRgtOGe+TUUYZPR7FXXJDgQ7ODN8ZDhDO8iKXThYXRox6J+70jjL6nNLybE2qJoOQC88Md/dPYfbymiKLnNCUyMW8YwN3phlDUVWRJf4W7d8qy0Y944N9w1M0qnMUlpVm69P4LQGKMd/k0OAorckuKMhO/cmFUIj6J4aHJ2mFsyjPoVOm4VEE2j810n9nzM9T1rySkjyr8tG+1CAXmhzsGvArcovL88zpjLxCPuIdGxyaFnW5Rbk2TcJUi4eWGJnu7eob84QxjaOwrNhpUss9ivl3QXF+yCIbne5uPHX8xKWJ7Ke++6JVZ088cDn/ZPvFD9490qup2f5KWSLvA3mGjoSjqE6vJuKl3onhmaHmoz9/56rbWv9ySZElcbI6H/ONdJz5+HBDb7Dq5f87P0GCyH21YgOTvVdPnunw0CKPqHqmwfNPVaQNWSWEJjqunPr02DV00e5nLCn3PiITnui4dPT4+Vam+MmX91vS4H3EyOzQjYtnm4eDAhtD7OObd++pdz3C8CcMj/e2nH/vzaPeon0v5cjzPpDnY1GOwUm1ApN/uKtIh8Zaz3xy/EoXtvjZl58yabLSvbuPHmo4+vGVoRhGQJrr9u3ds36RSyf7Cz3tHZmOacxmg0axMF1WnCeBAMGUOkdRYQGnkHtorCgiKpOrsBwCOf0ixLwTPbcGyRXLy+Mf5S4Chd5eWFGhlstWghAltebcsqJob9IsGy7snhwaFVxbn92YHW47fuZGY9/miroUJsHeL4U5L79wOqZNT9QQxdWG7KJ83//P3nuHx3Wc9/4zp26v2F30XohGsPfemypFFcuSJRc5ilPs2Ll2cm9y02+c8vN1dB3HVmSrRJIlq5gUxd4LWABWACQIAkQvi7K9nDrz++NILJKwe3axC8IOvo8ePXgezpl3zpR358zM+xm3KT03/2JuZLCvz6ebs/WBOZq2Dw5eu9oyNDencBLDlzFgbIVF5UUao+oxhoOhwZuefqOzqtiQCLWPIA22gtKikFevKqCbG2ipP3Ouqc+PMCAYQ171kmWzy5zxgtDukT5/8YPLKgqt/Udf2zfs9ocEtd5H8jYf2nUqkLty7RKLOrbM5CsWXYzROUuqZwr+3m632n7LWLPK5y7yDx26puYmKyxGw96BYZYXY2N7CKMzr27RosGRfc0qz+7ROktuRV0kNDbYnSgMDgtcNBwUdBlWvSGDNpj0uK3fA9LmfUhjTnmNLjjQ0ZL6Y4kAAILVZ5bXzowE3IFQerybzIWjEYEw2Exak9lhoKjh0dEIKJy8QC9oyCmtsYRvnPePqUkuir6b/adOdJ5p9g7rbLOWFq1aml1up2kVtUNoDDmVs+VQYPAqVlWZpNaSmV8iGqIYAEiyNpdFk9iHk6ZwwaoCCARf54Vh0eSy6XQqPZc40Hhg90VP7splWZYpOvEB8QgbCW8IKnczxk8ncd7uC/t27z54rqVrjDx9rnb+mkeefWiWbhxjEAKYYBVCCBOgot39IMZQlgEBIYQUQRBEAvcUJiMIIZEosS5RAyCNu7EYIYQwJEnlDlAAoCxOLmQssRckSV12Ru1sQSaYHnPmnCp7toFUHyhKEAQEUO3d27Q1p2p+TpXazL/IHkWiSH/97p1X5PzVdaVZcWOEkRCMikL/hT2nB60zV6yfX2RO/+JU0rpPfB+SMeXWbdxhK6hsrG9lV6+al5+fqZkiBxZIkmQ1hCjLMuIESZSx0TxVZ65TQSRNUwwlB3lZRlxYQDLU6NK+6oOigzeO/+oX7zb6MlZu/8qOFTPUf8wQBGMx5BZYA2M8stkKcvTWeF+kwebdr/38jV29rm1/8MITS3MSKGbw+pG333n3YLNbwoDU2mrXPP3MtsXFzjhR2YH2s7/51au7LuIFX3r2mS2F19945VSkbP22DXMKbUy8VTtx4OrODz7cc2qgaNkDTy6udurSGIE/cd0n7wMJkjXYHK7MTKdthM3OcjksqmG36ZbGoLdm6P2dt0YHBd/g0BhVUeG432WawiL0VpNJC9u7B8dsuNfLg4yiwrR7H0Ljqlj3+3+7UsaQommaJBO8Qph0ZVRvsFdCSKqYdhoqN77wwzXPY0gxDAMCPerNGCpWPPeDxV/+hMkOCYpm6Pir/sbi+U/+ad1jMiBp2Lfn346FSzY8sHVRqUnNDJm2WS2kpM2aMX/pooqM9Kz0pU7jex+Z83bUv/WLV948cHmE1x7au/Lp7/7gibmOmDsE0kDTwVf++X9/eDHAk9aPmm+++PyXNszOHtcGbSueubF4ZrwyYm/bmQ9f+sufHR/yc/RvrrY/+fXnnllVEWsXSvQPXNj3+k/+a/fFjmH5tTPnHnr223/+WLnK3R7CkFNQWZt38Wd//ccDbMXWr3xrQ24aG3H0yu5Xfv7Td052RoCl/HDT1/7gS2vrClJ2UkHmx1oP//LlV987fs0r6vcd2vrMiy9sqctMhgQ1rihXcUVN7/Vf/vR//Dycufbxrz5VNwlrPpAgKFa5icB348Cv3/jZW/ubhsKa13de/L3vPb9jTVk8HhyEBKX2Yx6SNKOlGSALo00f/L9/f+Pjc20BZD6yavtzL3xlTaUjxp06kKAYDZXoEQBIkAyrZQAAqO38mabT+3514P2fUlp7xZon/+jZLTWxz3/oSrZ964fbErR4vzTN95nm+3yBpvk+03yfiWua7zOtaU1riuqOT1JQFep/62RZ5nkeIRSD33G3MMY8z4uiGJu0IoqiIAgIIaTuXjqEkBKQrZ4NEo1GBVEUMRYBkACQEYpwHKOO/6JQb2JH7ipSIo/T8XMkCIIoitFoNH2BhQoYIa0motGoJEkK8il2SiV2nOO4SCSSxNyH53mCINR0bAWUo7I/f14IIUEQlL6hhrDB8/xt8MNEpJC2VHbLyZRSG6r4PsowTsj7KAwq9d5HKY3iLMaTJElKD1CZrdLkEMLY2d4tXhBEWZYwFgFASgcVBJWPq++gSn2qL5V6CYKg9Lb0fRYpLaty0CYnpTNIkhR3+CGEFJoaz/NJeB8FGKbm8MhtAF5ydw8pJDNlvMWtN0mSlJMcSTu7u+0qo2bijiyFUlhrIOYL3vE+FEWZTAnct5L0uo/ZHGtJcBLWfWhB0LEsSxAQABEAmqLMRmPsUt2WwtxSSRczm80qs01It6sx3ReNJUHzUq/bdDE16z4syxoMBrPZnO51HwAAwzBqUGRf+HgwGFRGRFxbKVz3Ub4/9Hr9VFv34Xk+9nT1jvdRfhzUd2jiLqlJf/u3NHb65LJVHlSTXkkJISQAgMp/EBKqX1wxp3IMJFSf6qVkm9aJiZJzmsp/2wT8VLFT3u6Z6mv+tu7udWqevZ0yCbd7u2+oqbdE+3lsu7frZ4JZpVZKqab5PtOa1rSmnKa9z7SmNa37o1gx7kJo+MqhX732q4OdcuHqp7/x9Y01lnh8Bhzsq//wP3/yq5Nc9rxtX3ru0VWVllT4N959/dCbP/7JRzdNlau3P/fVhxZkxznBhbjR9vMfvvbazkuj9rpN3/jW15flJnLbGYq6rx1944093Y51f/6trVnaZG5KUymMJPfVg++8uWu0YNtTT22tinNfY8LZ88HBht1v/NcHJwe0VZuffObxVVV2XaohG9GRpmO/ef3tXU0hx7Idz3/9sWWZamI2UyHe3Xro/dff2tsYdi596uvPP7I4P310H67r1Ks/f2Xf1VHHvAefeebhBcWO9B4lFobPv/+Ln7939KaQ88g3v/3U2pkJ3Ab+W6LxfYPEBXqamgY0a1/8ux/9+Sa66fQVt0+KszzPdV1rbOykn/rXd/7xmbpo+7lL7cncTPK5koxev3quYbju7z54//tb8oYbDl4ciVMOwTPUfqUlWv3s//3x3365Orrvo/pwAvaQt6+z4dRZN9QY03lRpSJx8MKpM83dIa3FjNFEdz8+J4nz3bp4zeN44Dt/99ffWEx2XG4d8ggptiIO3rp+pVta9OKPfvr9beaRxoMXPak1MK6ksevNV3tAzR/++OX/udHRc/HUheGU1+Bt+ev3Hxerv/TX//rPj1eEW67eHPLEuq1BEUaSwEUjnyjKCRJSvcPlvXDolNv5yP9+a/ffrw40nWu5OZhgrDOS3FcPHjjVOuCLdYPVfdW43keWJN+oV9KZnXkVTlt+gWmsc4iXY+/oyQGP1xMFxdWlBlt2to4AgZHRFISHBz0+j48rnFdr0mdn23R01N0fiF2OcDQyEsCu3Axrfo4j06UfuNmeQAsQlryqTV/6+qNLq0xs2i9IYjLnbX3q+e1rK9VDo9RLlmTv8Bg22x055Tl2p1Xjd3uiQmo7I4r4gyEB23IzTTklBVYN6+3pU3uz2gQV9gVCUcKem2txVpTYSTk42OdPl2owP40AACAASURBVC2hu2dM73A68/JsTpdL9vnDkUjc/e3QjROv/uN3vvLs008/8/SzL/zBD//rRNeISuIL19Uf1tisuTlmbVltDu8b9XuCCbhWLHiuvfvy22f6eUpruE/BnPE1bsEwQiLPQUhSLENihmVwOAziOG5J4IWoqHEaSEjQLIWwKPICABP8bkGiIIpRpNfQELIMDaEc5TgAYuxkI1nmBAEyDEkSDENoaOwNcQCojlSHEFBkOqkUd4skSSoW2HEiwhiJHEeQgGI1DE/TBI5GQYoPhciiKAkSybAkSbAaBkDERTgAJuErAYuiKAmYpkgC6nUsRlI0qmZsI1EKjARHfIJAMzaHwWGKCdb8RFwwAmgTzbI0SdIMFHkeyXK8dVNj5ZoX/mrNCyrf5x5Fo1GZJGiWBgAYdSTiBUmUVIwljCQZoejw+d37bhjnblu3uNg6ZZ3P+N5HobVADJEsYyDLEogfAQYJkqQISRQxJmUJA0wR5PjuTYoG3B3Xbw6GSUdJdXWelR7nK4cgCZogISchAGSEAIAUFXtKAiEkSQJIMsJYRkjGgI6LJvid1CfIHQSwcgcYgmTKvSokCIKAWJAxxrIkY0yS8Q7wpM4yRRBQRhgBUZIhQVAqIsgBkKP8YGvf2RZfwGibuSDfqKcM8cPHSZpSjj0ihGQJEjQN40epit7+m+3tvZ5P6WK55RUFLlOMsNQ7oigKYhHJCAAgSpikCYJU8RuFQkPN1292XL10bcy6ZNPSWXm6qbyvNG5FECRpMJsIcSw45g6wYyNhg8tOxXl/ymAymLViX88Il+P1coB0mc3jd0Qkcv6BrvYbXkqwFlXmjh+NqTNpTVamq6c/Ws55AoLM2OyxDxaSGlZvNOBbnmDI4/EGfJwpO2dqncOaJBEEabSawUA0ODbk5fxBQZNppuO47kRFag1aPYtGxwJhX3Q4JMlap2OSqM46g1arBwN+XzQQGfIDUmPPUHPilDbpK9fUVq5JyJYmy6WLjgY8ox5d0OcHBpeWjc8MlKO+oZ6O1ttkVdpZkO0wqZoWah0ZLHcrOOaJ8lTnCNDPMBjV7BZgbrjl+PvvNeI1Tz47q8w5OT8DSWv8uQ/FmHIKs1o6Gna+fJ5mWef8ZdnGON6HMOQWlRdcubrzZz81M6StfGFpvnXcJyBjclVteLJqQ9wyajIKisoKGvf9x0s3tIjMrVlWlRXbl0Ct2ZpX7Gw+eej1y5LMmEuWzXYm8BMg+N3tFw7t33f8fPOoCei5Nas3LihKF1k11Nd86tihvYfODKCM4QiDNs6ryLWlylVCmrHklTqvHT394csSacgoWlDsMqd4Ggg1juzcXOu1s7v/6ywvMjkz11dnTdJcn7Xn5+e236z/4PVLfJQsmLu6Kjttfo/MqpuTs/PMkdebKEZrrVqeZzfH3/LSZFev2V6dmJv7RFR2TXVO1/Fjb/2kXvbjwjWFeU4170Zai5as3+GYry2pqnKk4/6SlGr8fkLQuoySBatJW0F/EBhzSioKzHGdPWHMnrF82xMZt9xI58gvLsm3pKIfQo2zZPamxzXXewO0Jau4tMwVrx0IrSW/ZvkWTVbPGK/JyK2YMT5j6IuepjXmzNI5a0zFi2TCkJGdkc5lO1pnyS2rXW8qkgBjysiy6lK60A0pvatiyVrK2e2Oktbc4tJ8a8q7JNRlFMxZsdGY2+cTtZlFpeWuybpNHLLO4toVpC63b0zUZZaWlWSlcdJF5c1dv8lY2OfhdRn5pcW58UfDxMRm1q5ep83pGghiQ8GMqkKHum8oylw0a3lRWkuWOsUaVwSltedV2vNUgW8+zU/nLK5zFk+0WJ8ticacW7UoNwFALqkxuspmu8qSsUbpzDlVCyeE41Uv1pZbszC3Jm35E7TOUVjrKKxNmwUASI0lu3x+dnkaTYwjQmPOrZiTWzEZtki9s2K2c1JMAQAAgJqMopqMovR1jfuvqbwmNa1pTet3WdPeZ1rTmtb90Z0vL47jOI5TH9qrUEVIklQJ5VDgKYqhGMkkSZJlmaIoldkqUBWCIILBoJr0AADO4/GGQkGEOAAwABzPDw4PR1QTNkZGRtRQeziOGxoaikZTf/JO2T1PArWlXgp2JxQKpc+E3+8PhUKhUChuZDZCSKvVjo6OJhHjriCESJIMBGKfUP1ESl9Sz5m5W7eJNjRNxy2ngseiKEo9yziGXUmSotHoVItxF0WRpmm9ftwdmztvTtO0yWRKiOscDocVCK6a9Gq4zkr7JcQ9UQAuEMIEuM4QunU6HYQUACIADMNk2O1Wp1PNswghq9XKMPEXVlmWzcjISAfXeRL4Pn6/H2NsMpnSZ4KiKJ1Op9Pp4nY5WZZ1Op3FYnE6nUl4n1AoRJKkSr6P3+9nWXbSuM4Kx2qCLl6WZb/fP9X4PgrLNPav752GJ0kyUU9M07T6RzDGFEUp85rYyRLKFkKo4KnUl5yiKJIgSAgJAAgACAhpkkzoLdR0FwhhSn7ZPq/bLZVW16D8P60mFCRN3IkGxvj2Kyc6UJXuQRCEmmcRQrf7XhIe4XaLq6k3hBBFUTRNx4WrqbGbxOCdBCmDPUZVTK2p2rSmNa3/Ppr2PtOa1rTuj2LxfWQ+2Nd68dyF1jFsK5+3dElVlpaO5604362r9Sca20VzQc38hbPKMrWpWLWUgkOtDcdONA1rMstnL1w8szDmhWoAAABkzt/b3HChPZi1cP3CQkNipAwsBgfbzje0eAwzNqyoNquKHkpSSPB1Xjl/9nJ7SJNdM29BXWm2IaXH4zESA4OtFy+3hoyVC2fPcMa9CDwZoehY18XTl9x07vzVc/I0k3e+Xwq6Wy+fa2zpEYzF85YsnlmUxpBKJIV7rtRfuMHlL1pYU+RMScdWIdHdfPzYOU/uiuWzyrLSdeL+Pml8b4LE0FBbY2PzsEAbyLFLx+pvesLxoqPFka6m08fPe/U5+mj3pcbzbUOpuNEBBXtbGw4fbaPz8six9sb6sx1xd7eE4HDHpUP7j506daplKJogNweFRvuunNx38MTJMxduRaT03hMQvHXpfGPzCLLoxf5LjZdvDQVSak+O+rsuHjt87OCx89f7vOG0kF5Ez8C1xqMf7z9+tvH6cIr5HTGFQr03rjRe7kZmGxxqqT/TGL9jTECe5hMHjh0+eKShw+1RicmYuIItx/eeOLp3X/2NgVEuUXhReKCluW3AG55a9+zcpXF/KpAo+Ib6PMBStWJTNdNxZOfR1sHwDIcx1k3KKDjU3z0Uztvw8EZnz6mPzw3194/VZGVPdOYQHh3o6xm2LvnetmWBxj0Hr/bc6o+Uz4h56wDJmrNmzF0SAY0XEg+qhIzBWTZ76WKBafKkG9InDnT2BaF1/pat+cHGw8d6BkdGS/JMqfuJg7TOUV63KCISHQyTpneBWktB9fylg3JHIP08pLsV8Qy6h3lLxbo1C7Vtu351uaejL1xRma75gTaravEyJEU61LMhQ+31H320+0TbqIQBxVoqlj786No5+fYE4kFox4xla2Gw65w+0ZoV3SfffesMrnnggfysBB+dNI3vfWQUDYYARehMFh02mbVCtxchFHOlSIyGIkGezXEZaNpgYvBgJBziAUjmdpK7S8JFIpGgaHdYKAoYtRQhBvyhOLmSjM7qyst2tWmoxH+mIKPVO3OyXVb9dV+6p9dhf5DH0GS1alnBpAVyOMrzMki4q40rgmbNrtwcZ5ehJxWYyS8UpTXYs3OzM8x94fShBb9AiI9GeQ7r9DqGzbAZMBr0+0IAxPU+gsd/+WDznrMjHqtr2cYZG2dbzGocs86ZkyeNWrTd6vuELm/mxqcLlnISBgBCSmMwW4yJBcGxjpxCY9Aaf8njM+JvHf5wX69u4QOzi2zsJH0jJq5Y6z7KNWAQKrfOqKFSYYwRJggCAgghxIDEeOJvTmBMYQwI4pNyQKwKT5nMnSh3PZ38owkJIYw/eS0AoVLnKR7CEIC0k9KUTgJSXfTYIjAmMQYQAggIAgKMkapvbMZqmvvowpkPYgwJiiYolWuCSiMlVkLWYHMaxj3eptJoQkKcLyRyHcc/bOQrl25cW+fUxGcX3TeNvxVPEDqdjkRQiEZEIRqJECZjvKqgNFqNno16fYIsR4IiwJRmfCA7igy17v3HFx9bv/Xpv3rncogf37dpNKRWT/qCHMLRKI8AZTBMcDo1daTX6xiIo6GwJEpRATEGDfvfE4SWjFiWZDSQE0RJ9geiBEUbTKo6BoQkTWm0tFZD0mQ6HbO/ac+PvvPE6lXLl61cvmrzI3/y0p62ofgXdvtaT/z0fzyxasWOv3j9SJ+Y2KKN2HvxVz/+3tN/+oYno2zRvFL9FHY9IBZdjKZNLifb1NR55TTSjd4SC5bn6OKsoZCWTFeOlTl26lRrSaCPo02ubNf4BnSZMzb/4KebfxC3jAaHy5Vjaag/0GJgbg7w0FGYG+dYM0YSF/K73e5Rr48bGnKPaZwO9VNeJAnRwMjw8MiY10sMDI1oM13mdKFS2LwCe0Nv29UzjSHQ4dVaKqy2lG6mYJkPe0eHh0bGPCH98MhYlsWlZ6nU9klZjIZ87uHREY8HDw6OFJCZFn261pjukd7utFtvdN260kqh64OEtqg4z5Q2YzgaGHUPDo56Pdzw8Kg3V2/SMfGIrObaLd/50ZbvJGjJMmPFi/+04kUAAMB80DM0PDDm99LDw8NjAYPFwMY0SmfmVZaULaKsa1cuKDRO9d+x8b+8SNaYUz23qn/X/r0Xcc6iLTtqHKZ4b0NlldctGOx656NXrjlq1mxeUJObiqPfhLm4au6y3pvv/MfPdEULNj24psoS5wk54us4//Gv95y60e9FHa/JI1uefH5NvspPZyz4Bq4e+PWuY1c6RwX6lddCW7c/s6U29RciKzJXLJw3OLr70K9bTRUrN68qz7emsssgKdR/df+u3Ucu3grK17z+oLD9kSVldk1KbYSGO07s+fWB+taRMLweFCKPbn9wUcFk7LoTpuLKmtGhPXs/eCeSMWfbQ8vidowJSOio/80H+05e7+OJUb83hB9bPz/frkv3pkRPw8539xxt7o3Aj4MjPvlL25aUOA2xOjKbt/JL31uZ3lKlTFBZ3BEEIRgMms3mhOK8krvHPUacF5iUe9wjIyPNr77a/NJLfG+vCIBz7dpNL71kqVSFMcIYnzt37rvf/W59fX3slNu3b3/55ZfTEecVDocFQUh3nBcAwGg0ps+Ex+M5duzY4OCgmnvcnU7nwoULc3Nz032PeyAQUEIXJyfOKyX3uMuy7PP5DAbDlIrzAgBwHBeNRo1G43heZfqs87SmNa37o2nvM61pTev+6M6MSBRFv9+fEN9HFEWSJNUjbARBkGXZ44l116UkSQoWRPmeUlMMQRAghApaRY04ny/McVGEeABkAARR9Pr9KGapbgtjHAgEFFBRbImi6PP5sOq7K9VLFEUF8ZM++A7P8wo1Jq18H57nOY6L23CyLHMcFwgEvF5volYQQjzPkyQpCPGvHgUAcBynfPsnagh8ypSAEKrhZMmyrBhS2c9j2+U4DiGUHJYofVJaNsYQuON9FBaB+hdQMGAkSar82sQYI4QwxjHSY4wJglDgAyqzVcYhAED9Ry9iGJIkCQhJADAAJEEwDKP+LdSwowAARCLZJiSMMcaYYZj0Lcoo/SatJhTwhUo6HUEQNE0zDJPEuo8sy0pbqFn3EQSBJMkkDIFPf48pilJTb8pPSHIvFcPuRPJJrRSnI4qiKu9DkqRWq01o1RkAkNCqMwAAQqjTxTqUoUxkElp1Vv6Ine090mo1NM1ACACAAJAkqdNqVT6OMdZoNGoGjFKfCZQqESnVmG7vo2alNmlxHKfQbdTQxWia1mg0Op0uCe+j/KSpeVbBdTIMk1yrKZ5OGRFxbSlzsVStOguCoNVqp9qqM0VRsQmc98x9FKnMGt6lRB9JYba3UyZUDHDvaWaY+OMJlS3lSrTmk8j/M3/cXxNJdLbPPxj32buTJUcXU/9SSb/RF2YF0tnZJqLYpZpedZ7WtKZ1fxQTcookPhz0B8MipnUmi9nAxo+IQVI06PMGI5jSGkxmgy5FYQMYidGg1x+BOovdrFXhMrEsRIP+QIiXSNZgsZq1VGKAH4kPBwJhkdTZrQYqnT8pGEnRkN8fjMgEazCZjToVlZyYASwJ4WAwLJF6s1HPJFYPKk3IfCToD4R4ROqMFrMxwcqeiGVJCAf9gTCHSK3JYjZq08skwEiMBLz+EHe7sVJ8bPweY2Ik4PcHIwIi9Rab2aChJy9sAgsh75ifpw0aLBJ6o17LpqVJx/c+WI56us8e2LX/9DUfYS+at/nLDy/KMceOl0XccNvRD9766JKbtGRWr9iybc2CvBTEa2M+ONh88I1XPrphWf6NP//aEkPcB4Rgf9PJXR8dbR4Msa4Zqx995sFZdtXTPCxGPJ2Ne9/+8JTbueF/ffuB7PGD1SYufrTt2K4P9zf0CAZnzbIt21bNy7emcAhhkRu7eWbvb/acDhRsfW7H+hmZKb/uEwve3gtHPt57utnN0XnzN2x/ZGOVdVIAY1j0dV859PHuU60DHJW7cMsjD62daU+fZSwHB67ufe+D0y19QdJZs3zbo5sXFNjU/BYmI97dsv+DD49e6gvyKHPRY88+umpGpn6S3A/mWj789/931Fu3rWTwIr3m8S3LanPSQVMb1/tgiff3tXUGzSu+8v0affeBXZeahqpcJkeskYEjPe0tN0bsT/zF9woGD++/eqO1syKnxjbh5kFhr98TlDMrStQNHcx5R7vaeui67X/29YyusweOHDm3pG6LU231YT4c8QcEU3a2TMbCGaVCaPj61T7esfkPv1rGNR5qbO/sy8u0piQ+5ZP8Rd7v82OzxUmZ1V3Fm6gwP9R7q32EXfTM9+cw13ceu3n2ynDFqpzJ2PsVxjra28d0s776Zy8yVz76uP1yU1Xlqvy0uR8kCwEfXbzumw8VCDfPn7nW3e+tyrJqY1znLnr7b7a393qiGABIsrbc8ooCl0mramMnMuKRM5c8/z+XzIju/uGbnV19tcWZ+sQ7Bgr0t7V1uYMSZXJmO7SIE6ElK8euiXa19GFHphmM9nQNBUXS6MgvdrEBj7vPHSah5/SZbn3Zkhl5ev9lP5a4sb7Wwd7hkEDacvJt2B+mbVnZLr6roZN3lOdn4PCoRzbnZFq1CX7qjM/3kaSgz49YrdWVZ4Gcy3C6f0REpQDEyF8K+QK+KJlXnK3Riw4NCIS8XhHYJjyWSGt+1ZoHgbh7X7OqMz1ylA97Q8CWZzY6M6wWu/ZKb68AnGrLQegz8uauXCeDQ8c6070uFhkei2DamJ1n049kGJHbHw5FEWBTZpbUmovmraQpSroQTs8PJ4qGIhEBml02vd2cZWK6RobcUZATd346ceFIMBTloDk3Q2+25lmJjtERdwDk2+M9J0e5wZvuG73hiMZQWO4oy9ZoVH3tkrR9xooHyknIuy9cE7Fer40XZipHfUM9Ha19foQBwRjyaGdBtsOkaosYWKtWPDQDECQYORuiDSatNplJFo50ndz18VU/oikgkwanmfZHiIrlm5fb2nb95oJrcRXV2zrolwFEIrzhrXJ0X2247NZUV+rdfq9XM+wLZ0lYDo92nr10td1LsGIgbCgsQ523dLM3bFowtOvVnSO1zz6+SOq+0KlZuMVsTpn3wRjLogggSVIUgSmaAjwP4hydQ5IkCTKt0RAQkjSJAZallFAdIQSJHKTCCImSBCiKICBFETSFRU4EQLUXhBDASVqOFwRRBpiiKUhCmgJYkuIh3BIUhARBwDReM4dkWZYQQVEEQVA0BQAQ+Umiq8oykiVMkgQBWYbCWBYEtSdOkxKEBE0Kgc6mhqbusKNyVr7NEPsjWZNdvWZ79ZrkrJEUTYrDTUd3HRt2zdxcnp/M1yweaDg3oFn08AMLnb4T+w/0yzZCEj0D7u6+lqg9q4Do/eDMdZxVkGsU3UPu61osSYbyeUsf2JhzacjfXbu8rijQRbR5R7o8w5o5Dzy0QN/xq11XeYYR/P5gX2OXXJIjeIdG3bwX2+ZY2cQXKMb1PsqhGwIjWRQRFAUBaDTxIFUkTdMsJUSiMjYIvAwwqXTHL64Y3tvfcvTjQ1dH6BmrH35oQUHC/LZxRRAEQ1OAE2Qki5IsIag1TKFzWHeLZRgKAlEQkIxEGVN6moqHbZhiIiiKpEgUERFCAidimWA0k1PZkKIoioacjBDmOBGSJKvKMqnV5M4syJ2p1k7kVv3ej/afHrYteXjTQlvg8tHGfn3Z/MWzy2y6OCt0ke6Lhw8faej0ShiQrKl4zvqNS6qzrSp/BkX3lUO/PtBMzFi9ZWllZnLXAYS9UVarZzV6htUxJGQzXMAdGLl0tM9vK63MNbRxOkd5UUV1oXkWbXAxvoarEmE06sm71rexLEpREei1GlJj1LAEgI6CDG9grKl1xLqgnLzcO9ArBS2rrNokLhMYH79DUUabGV7vG+vvHNX19wbtZU6WjD0wSJPdYtej69e7g6XDI1FA52dkjFskSOmtBXNWbi7ioDkrg0nlTg+h0+osZnTFPeYdBO6RobCjNn2rAROTNtOpkwdGu2+5NcKgl9DkGEzpWsZMk0id2WDUgN6BEZ9rbMDPY3NebspXtr9YeotRrweDw4OB0eGuUUwYsrLTwfdhHKVz12lyOcZuEdrPNPQZShcsW1ybbWTi7kEx9oK6ZRtzZgkIA4KkjfYci16tExF6G/ef7KBLV25bPyvLkOz6ozPXHG73hIIefTgclQxZhTPswvmLR+vdxQ8vzXMVRJyU21VaU1tt8fR0A0ABkvzsRBnSGo1RS/h8QSEoBjhMZNgr8+3HDpy/ATZuzs80Xjp7k8reaNfpkgC4jj/3oTSmvMpyW8u7P/9fb8CceZufmZVljuMioCavorayueG1P/s9nDFj9YM7aouM4z9BMnp74Qx7YdwyYv+tC3t/8cNXDne6A+Sh7uEnnn78sSUlMfC9kLU6S6pKrr791v/8tc9cvvSx5+Zb1FcNjro7zu185fUPT1zpCmkab1588ivfemxu6kEZAAAACGfNnJK2t9/7l+++Yyld8cCO0gJHKv2kLHg7Tv3qjTc/OHLZLZhPnd32pa9+eU2VU926p0oxroKS8lvN7/z8L1+LmGdv2LF1pvrtxYmJtpVWlN26/u5P/uztsLn2wSfXzXKm40IdyugsrHYWIiFyffdbu3cf6Od2vm0y581e88gTjy2NCUuiDPb8cnt+MkaF7iunjh/Y2Rreu+c11uCct+P3v7y2Lj/GcPpCQceyzbNuvP363/yGZ/Oq1zxUnleuiV4+HqG1Rleui3U6ti5sefONf/hI1hTOWrdjqfUL5t2QyciuyARnDvzn37wfpooWb15WUZpD1f/8Y+Ncq8GRla/7uFVbZ9fqktkTi8n3wViWRVGUECAomqHvPdvwxXwfjGVJEEQZECRF09RdU7gJ8H0wkiWBF2SMMSBIimJo+nbG4/F9MJIlURRlRJA0zdB3+814fB+MkSwKoiQjhAFBUjRz5/k08H2wYgxDkqJoSsUBkoT4PhhJoiCKMsIAkCRF0wypAiaaIN8HI0kSRBEBgqJomlY1j00N3wcjSRRFScYEydDM5xHNKeX7YCQKvCghDCCEkKBohiaJO+lSy/dBkiAIoowVnjRJM/eMps+8Ywy+D5IEQZIxBgRJ0zRJACQKogxIZXQiSRBEGQFAkjRNQhkhAEmKBLIoYYIkCSyJmKAIiGVRkjGGBEXRFAWRyAkyyTAURJIgAereivhUcfk+MX8rICQphqQS+YqHkKSTWH6KkylB0hpdYplCgqRZMqmCQEhQjCah156IYNIFVZX7ZLwLJChaQ92Pj1tIUAw7WU0FCZrV0pMUS5WqdiMoRnPPKL+nu33mX4lPN3eoTwNWmU9elyTvzoSktZ8McuIzuSekO08qMei3gzbjSgkuVyLr1KRX8o9rQr5LKoshyzKEMNGSI4wxAFjZ3VP94hhjJXBRZUr1pVKv29WYDnzHbRPg0xDNNJlQMld6RdzC3O5pSUSZKobUPIs+VRKGwO1+pa5pEu3nsbNKX2ebiJTaUBXjLklSIBBQX+lKZC1FUTyv9sJShe/j8/lipBFFURAEmqZVMlZkWVagKmqYO4q4QCDMcVGMeQAQAIIkBQIBELNUt4UxDoVCKvk+CdWneomiKEkSxjh9UYUK3ye5QahSwWCQ53me5+OSdxBC0Wg0GAwq34MJSekeJEmq7B4K30d9l75bCmcHQqh0yNiJRVFUXj85ltBn7PI8r9TSBLNKrQRBUH5gxktwD2FDp9MlxPdRqCsqEQEK6EAQBIMh1km024AV9YQN5Rs7drZ3i4hGWYZRCBsSADRJ6nQ6lY9jjLVarZpaoihKr9erL5V6RaNRQRD0en36CBtKj0mrCYUhpwYpJcuyshaTBPFDcaDq130QQkqXTm7ugzGmKEqj0ahZ91GoQyoBNTGkFFur1U4pvg8AIK5vveN9lLpQz/chSVKhmajncinNEzs9hFBBZ6mniykTTvVwE5llGYqiIUQAYAAIgmAToYupZG6ljy6mTHxYlk2fa1A6TVpNMAyjoMXirjpDCJVuxrJsEt5H+ZlU86wCQlRaLTnvo1C+1NQbhBAhpLxUooY+b1f5wZ5qfB9lyMeoit+usyXTmta0fnc07X2mNa1p3R9Ne59pTWta90cxVnmwGBltObHrvZ3Hu1He0keefmpVhTnuJZihwYZ9b7268xzvqlv3yONbFpeZUuLf5GBf48ev/Oqsdumzf/DYHDXQXSnovnr4g51nRyse+9bjc2yJBU8hbqSt/v33D/fZl//hc2tdSUSwqJYcHWrc++t3Pz7nMc1Y9/BjmxbNsKfy4x0LoeHLh977YO/5IbZs9UOPPbikzJr6W6Flf8/F3W9+3K6pevTrD9YaJynQLK9KcwAAIABJREFUAgAgjLSf3PPeh0euRjLmPfylJzbNzUnruiuWooMth97/+KxYtGXHxvl5tvSu8oY7T73+0i97Kr783OOrK9J02P6+avxBKXGBnuYrt4SZj7z4vefnRRtPNY344x0n4HtaL5y7Hln97X/5w415Y9fPXu4Mp6KQ0sC1S/t37u5nDNjPxTkcoogb62k5feBsT4QPRmU5wSMryNvXcfbIkTZvRAqKKF3nXT6Rt7m+qR8u+PKf//EDJd4bV9q6RlJ5ZkPm/Z2XrvazC5/45jcfqohev9jm9gqpfiNuoP1C/fGz3T6ei4ppOx/0BZK9N5ov3wxl7/j+Xzw3m25rOHVlLK32pMDolaN7zvUPhTgZS4l2q0TlPrfr4NVOtw/DKJ9cn/C2nTh6tm3QN0nIgcQ1rveRJck7MsbrrNmldflZxYVGd8cAF4eXIQdGx4bDcsnsWkdOQZ4WyD73aCqQB1Rm9Ypn/+TPH662qd2HYG2F8x587rlH5xZbE0dCEpa86s1Pv7BjZa1FHfhlAuJ7BwKINZfVFbnycy1icCzgDaeuV8uSNOYels2OnJJZxVlZdtYzMBYVUt0ZGVfZike+8vyWRQWm1IGJ1Cjk9QYi0F5Y4iqom+EkBX9fj6oDQRjLosRFxSgni3IC7pIyueY9+rWvbV1RqXL+6G/a86PvPLF61fJlK5ev2vzIn7y0p21I9e1d9rk7vvbNx9fWmJOaeaNIx3s/+fmBG17EGNIR/JYSjQ/AQEjkohCSNMtSmNUweCAUj+8j8RwfFbROI0UQjIZGWBA4AYCJf7cQBCASygVCgqJoIkkQLoSAouLhRFKjcJQTMdZrWZKCWgZinpckOU4AjHphhMRolCDNFKtheYYmcDSC4x0tTlgESRAEBQkCgFRnHVNIFESJRwxFkoRBzyIkRiJRAMzxnhO8gcsHm/ecHfFYXcs2ztg422Jm1LU1hBRNEwSp9kXNtVu+86Mt31GV9nOiKCqZdVmMEEaC9/JvPrzIztm6cXm5fco6nxjdXMFSKW8DEJJV8L0gQRAklGUJYxLJGGAKEuM/JAth30DvgJeD5qyCAodhnBi6322RJAGVwAaMEcYESaTydDEEkCAIgIFykSPCkCDuvUvot1kEASmCIGSMMZBlBCAk4yBgFDE284Inli54Qq0dKTjc19Pn5lhXQX5WXN92z5OhsYGBgdHQHcJGjsuSqpsWvlA4Mnqzs6+/5Xx9t2nx+uXziwxTeV9pfL4PSRhMRkL0h7yjYcY7FtY6bGScI1SU3qg3aYWBfq+Q5fPxgNCYTONOWbAU9nZfPP4JXSzLptf+d/Q+eotFg0eDI8NBfdgXhkyGTh93ZV+9CJIwWEzAzYe9I34uEBaYDBNFTa3rdicgrV6j0QJ3MBgNi8MBSGlsGcb4TyUsYaT9wqH9p4dtSx59YG1NIqu/wlj3lVOfoYul7J6XL5Qc6Dm3+5fvnZNWPvns3MrsqXX2+XOKQRdjTNn5GS0nLu9/6zoLOGPl1ixjnJ0jwpCTX5Jr3rX3v962wwiZWVuYZx+3piFrzZ3z6DfnPBq/kJynv63xwL4j56704ci+Es2CmTX5MbcbEB8autV04uixUw2XBe8eh7Bw0dIZqheNxNBY77Uzxw4fO3N52GLLZZYsWFqTM9Hj8OOIyi4tsnaeqv/grRZWBM6Z2a5UbnlBirHkFluv1Tfue/MCQTH26nkuE5vizo+jvoGbTaeOnDxxbQiMWs1o8YK6ovHbPYXS2HNystvaL+39TbvgDZsrFs/ITkcz6YqXbP/jJdsBlqPD7WePnDh68nwXGmYItGrZ7AK7Lsag0BXMeeCrcx5Iyio/0nHpStPhc02XcYQidNSGWSVZlrh9g7IXzl++WVOpr5lb69JN9d+Z8b+8CFrnLFuwVNS03PIBa1HNnBJrXOoeacmvWrpBYJv7JOOMiura4hR+c2pclfNWlhE69e5c78itW2bDjD6ZpWPGWlC1wF5OGun0NqE+b+aSpdDY2hPVuMpqagud+lROlQnakFW5eJlkaO0JUc7SmplFthTccPRF0uZUzTKVACqdpxM+K6jNKq1dIoPm9iGhaE5tXW1uWq6tvkeEzlZYuzgbszbVlMKJKHf+RjumjTFQep8Rba9csrUyfropoRg1CElan1k2P7NsfgL50cbc6uW51RMu1z3S2HJmbnhKNYcXAII1ZFcuzq5cnJQ52mAvXrCheEFSDycqgjLmVS/Jq16SpvxJxpBTuTgnyapQI6i15MxcnjNzedosjC9SZy+Zvapk9qQYg6TWVbF8c8XkvCjrKFm0rmTRpNi6X5rKa1LTmta0fpd1Z+4jiqLP51Mf06xE9JIkqZIqgjEWRVGWZY/HEyOZwvdhGEbhpaophoJTEUW1R4uiPl8gGg0jJCh8H1H0BgIoZqluC2McCARU8n18Pl866FxKNSKE0s33kSQpfSZ8Pp9CYIjbcJIkhcNhn8+n0+kSLY8Stq6gXeImVkA5STN3FL4PQRAK5Sd2YoXvwzDMxLEYil2EkHo8zuRIFEWMsV4/7nfjHe+jcAxUvoAC67kd2q/yEQVEEiO9MlYTylaSJMUXqG9FSXlPCJVXhRDSFKXycaWN1YwBpT7TgVy5jaFJK3wHY5w+E0rmCnknbpdTOptSmYl6H0mSRFFUHldD2FDwUmoSf14KTUJ5XE29SZJEUVRytu7W7WJPKb6PwhWL7fTveB+FhqWe73ObLqYSj6T0IZ7n49LFKIpKiC6mdN+E6GJahlH4USIANEUZEqGL6fX6+0sXgxCSJGkwGNLnfRRkUlpNiKKo/PLH5fuQJKmgxQwGQxJ8H4IgEqKLjU+Vj28LAKCeKk+SZAyqfEJ2RVHU6/VTje+jzASn+T7Tmta0ppymvc+0pjWt+6Np7zOtaU3r/igW30cWIsNd15uudfqwuaB6Vl2xQxM/YFwODndeu3STs5fPmltiTtGGiRwe62ppuNDuZewFM2pnlmUb4i1UShHvYFtT0013ROssnjV3Vq4xET+LpfBod3Nzh19XuGRuqSGtN6tjFB7uvN7SHjGXVlWVZKT6sK4shAbam1tu9IYoe3FVbWW+XUun/HUQ5xtovdw6Rrmq51dmspMY1oh4X3/bpVY3m10xpzJXk85gHcnf13TpSsdIRJ9ZVlNTnmXRJY5PSEyCt+tS/QWfY/bc2uKUd4ypoPE7ChIjwzfPn65v98gs29c9EDE+vn6GI85JXGGs9/LR9987PGCvFfLnpMj7oPBAW8P+3aej+YWaofOjAYHdsqoo5ulPOeztuVp/8pKbZEC0t2dQMD23oVT1IVwc8Q42n9qz8+SNiGtd7cyitHofyd916dThvYcusbO32ApS7X2QGBq4fvb0ud4gIsgBt0fQblpa7jKmdmNW9A+3XTzywQcNEeccS23pJHof5B+8dfH4zvfqPfmL6Bnl2ZoYQc0TFdd+9tDJFg9gWTQwGADsmjnljjSdG1cU6Lpw+vTHb70bWKTJKk7K+0SG2/vCJldmhjlulML90bgdBUmCd6BnRLbWbVhfzd46vPPU9cHFpXZ9nOvsKX1mycxZI/poCg/cR0b7ejr7jYv/+Murww0fH2ppvzmwsKgsRmvgaNDX1ztmmLF04wJHT/3+A42X+taVFqluAZIxZhZV1XmkGyE63ZGvBGVwFc+srgr4DKk3hSTB03fLQ2bN27Q8n285de5W18jMggxjagOAIKWx55XX1gT7OHZyI4UhpbUXVtRWDXcQdJonIvJgc/OoqWzZ2sU5/ecPXugZ8JbmZejjtFmk++Lhw5+JMq3OtqrbmSK1zrK5s2saWpLrGNJo4+73TnOlGzZlOpJ5fjI0vveRUTQYxDRpsNj1wGPVcb0eGaE4K0W0KaOgcqb7lvuaqrv5VAlx4XAoIDqyMxiaMutpYtjvDQEQw/vIvBAORqDJrNOazEa9WRMZcXOgSG0QEGQNlvzSssG+7s5I2gcToXfkl9KjHU3NqeCwfUZYRmF/AGqceovDFDTqKCHglyQZgJR6H0pnyS4uL73R7enGk4spgDqrs6isJKfFPZKAYdEXvHbyxtFLHp85Y97KkpXVJmP8H5no8BivsRtNFpPWZzSCwXBYEOKCmBh7Qd2yjTmz7hA2LOqjw3TO4nKnP9PclkydCj2ndu9plSo3VOZZNVOWHTF+XXxyxS0JCQJigiCAmmtaIYQw1T9/BEIkRoAkCQAIAgKI5TiArE+u5yUICAFBQJIASE6QezUpaLFPLKXvPDEGGCMEFcwPhATESLnDLLWCABIQAJiGrONZhkngiiijrnxFVdY8SSYpnYFVt3yDJBlAQqlHSBAIQRUvSxns+eX2/EQLqCi5boH4QFjku8/sOuvLm79m3ZwcQ9qn78lrfMIGQWg1WhJLIs9LBM9FocGQ0jGJIkNtx1/98SuHe9ilz/7p9x6eaRgPy8myBKsjh6MixhwvYkDqdLE/gkmS1LIMDnGSJPK8IMjQZPtdXLSLK4IgtFot9AOJ53hRECWo0cK0nR/8bREkSa1Zp02IEwa0Jj0QBYHjBFHiwzKdwZDxlwP9TXt+8YvXdl0aEDGgdBlztnzj93asKs9MYyS+2HfxnTff+vDESN3Wp76ycIY1zkLJfdb43oemjC472dQ60HbZoB/oCGcvytbFBVNhJAlclOMFQRA4TpBYmhoPb0HoMmds/sFPN/8gbhmNGRkOl77h7Kn+LLprICKZZueZYj5AGAx6RwZs7enpMwe7+3sjRasKE/jWwBjJIs/xvCAIXJTjRYai08Z3xvKnNSYKHC9IMkWmDvJIUJQ5ywlu9PW3XRJR/7CQMTdDx6R6URgjWRI4jucFAUc5XtCxTFp3Ce+1LHI8Lwg8wUU5wUhqqDStPNGl5dkfnRu81dqKPP1e1lFtNMRnoUyErIqRJAoiJ4gC5DmOF2WaUtExaGdWQYateFbZihWLSy2TSDtJSuP3RFJjyq2ZU9rx9oc/2YULVj323EynKd4QlobbTr797/+ytzkoEOZG99izTzy8oiZzor2dsJbVzFt88z9f/pPv6cuXP/rkhtp4fDna4iqrm93+zrv/34GxjJnrn/nqnASmPpgbvnVu5y/f2ttwc5inW3qu73j29x+bm64LTbytx95+8/Vd53qi0NzYPPDk848sr8rRpWoEkaylcPasvPZfv/fvbk3l+kefmJFpVckwVi3Z13tl/3u/3Hm0aSgI97R0PPXMs0+uLJmMiCMc7Lp85P3X3jvS0h8Cmob2x1545ollZakPbQEAAKCds2Hdzdff/tmhXa7Zm59YVewyp3drL3Tz+Btvv7fnZJMHNV49c/2Zb395bV2+MW7baQo3fOOvN6S1ZKkTVAI7BUEIBoNmszmhOK9IJJJQnFckEuF53mazxUgmCALHcQnFeSnR8EajWqpmZGSk+dVXm196ie/tFQFwrl276aWXLJWqkEwY43Pnzn33u9+tr6+PnXL79u0vv/yy1Zp6txUOhwVBMJvN6QvC8vv9AACj0Zg+Ex6P59ixY4ODg3HjvCRJcjqdCxcuzM3NTSLOKxwOq4/zCgQCE4nzCoVC6uO8otFoquK8fD6fwWCYgnFe0WjUaDSO51Wm9GfhtKY1rd9h3fFJsixzHKceESLLsiAISPX9LAo8RRTF2DwgQRB4nkcIqSTjKMWGEKqftUU5jhdFAWMRAAkAGaEoz7OqKUVK8VQWTCX8KCEJgqBUY7oJG2k1wXHcbTpKbEmSpMyIo9FoEnMfhe+jbFbFTqwQIZSOl8TcRyFdKJHuauY+HMcpGIpEDX3eriRJCuJnglmlVjzPS5IU4wXvjFil7hKiiyXqfZS24Xk+RjLF+6hvktt0MfXeR+B5UZYljCUAZABkhBSjap5V3kLNWytcK5XZJiRRFCVJUgZVyjO/bULxs+kzoXSG2L1TkZJMaaMkvI/Sq1V6n9veMGnvo/x+q/E+qeobivdRmiwlGaZKgiCo9T4kSep0OvVzHwV8R9O0+g9XBTEXg3UGAFDIXwmt+ygdJXa29xQjGtUyDHub70OSOq1W5eMYY61Wq57vo75U6qVUYxKwG/VS3GtaTQiCoADD4v5sSJLEsqxOp1OzdvMZKQRIZd0nbmLlnJj6pczP21KoaRqNJm45E+3nse3KsqzVaqcUXQwAQFFUbMzjnYYnCIKiKPUzCAVmqsDZ1KTHGFMUJcty7PQYYyWNymwVwhkAQGV6AIBIUSRBkBASABCfsg0TeguVbEP1lZOQlB9YiqLSNzFR3GtaTSiZq2QbKu+bBAZQlmXFkJpWU8CVyihIbtWZoiiVTaPMs9T389h2lRdMR2ebiBTyX4yanF51nta0pnV/NO19pjWtad0fxfA+iA/017/7L7+3Y/Pm7b/3D+80joXjb09gxHU3vP+3X/vKn/7rzs6ULcDjaH/Th//naxtXrdnxwl+9dao7Gn9xDQve3hO//LsXn/+jfz81IiZYEiyF+i9++Pff/sYL//DeQDQN0Z/32OL7zu/8pz/86vf/787m0dRnz/l7jrz+d19/dMvWL33nx7+5OByK34gJ2wgPXdr1k28/vXXjQ8/+5WtHevnJW/vEgrft8M//6IUX/+rVox5RRSDiBCRGhk6+/jcvPvO9V0+2etP/ipjrP/Xa3z738IaVW5/9pw8uDIQSN4mRLMtoii1F363xvY/E+XtaWsdMm//4n1/6y4dMN89edvuleC8S7WtrunTJbSnJSeFiqzjS2txwObT4X3Z++BcPF/uuHLvkjudOOO/Qrear/cDh1LMJfwsjv3vgelMbZ8pwsOPFnqVM0mjL5Wt9fjIjMx2XD0ucr+PyzXDu9u//8P98a5Wur+mG25Nq5yAMdN5o6adW/dG/vfyX253+q0cujE5Wf5eHO9tbOwcIi8NKpT2YcvTisUtjSGO1mVSv7SI+5Bnu7+np7u7p7untH/aGBEnlLyEeu3CswZ/35N+/8/E/bxZaL1xrH4h/JdA9GYihroa9+0+3DQbS65UnoHHXmGVJ9nt8ktaUkVOSQeA8U2O3m5cLQOxQL01OzdonrJb9h1NI2MBBr8/n5/OXVxp0niybtq93eDAAMi2xnmGtebM27NBnHD14iEu4VxLm7PLVjzylP37oeFfaL0iinbPWPlJgNXxwLQ1zLFmSvaMeYLRmZJVmhYNWtnfYwwn5IHGPPL5QJBgK8cBS7jRmmvKsF/rH+vqjwJH+O40BAKSjbP5Wh1baVT+abs4gAI6Fj3y54Oq+dxrU+7lI79X9H+0+0TYqYUCxloqlDz+6dk6+Xc0mF9czENZYnNmZRo2uKkc4MBbwBlGOXe2PIYoMXn7vzd3u4o01+ngg0Puncb0PRkjieQhJimFITDM0jkZA3EkcQRIUk+KXxZIoixzSsRSEDE1BiLi4ByUghCRJEUlGHEIISHKyIBsEQZJkmmZYGCOJ5wkSkAxLcxRF4CgHcGqPpMmSKIkyyTAkSTAsDSDmozwAk+J9AEEAQCbK2JB5YazX0+2O8qw2K8+al8EwaoKIKZoiEmwoQ+mSp76z5KnEiqeI4zhEEBRDAwAMGhIJoizJKtZpsSxISA721e870W+fv2313HzzlHU+43sfZcMYYoBkGQFZkgBDJ8FSGV9YDHl6mxoudwWo3NqFC8ud43UBgiQpkoJhUQZAkhEAkKYnkRz826xPDmEigCRJRrKMIEWl2qsSJEmQBOYkjLEkyBgR1BQ7dvJZYVEKjgZ6OgNhnZm2GrPsaSsvP9Jx5UpTuzskA0BQ2sySWbMr8216NTNPmqYJJCBJBoDiRUSx6n6jZH/fhUtXr11q7pOzlm9dVJ01RZmqisYnbJCkwWIibg77h/v9rHsoaMp00On6jY4tvVlvsrHtt7rDZcKYl5c0RQ61AaX/zUWQpNFmAX3hwEjfKO8L8Lo8C6P6RJdKG1qDTs+ioRFvcCzoDopIn5k50fNz6RVl0JUsKi9ZdL/LEVNal5ON3vCPjEYKyXY3oa81mlRRpGV/98XD+y6R657aUlecMcV/pcef+9CsOack71rbiXd+fJgyOcvXrMsyxfu4lj3dVw6+/8uPT94ak6xdEGxft3xWke2LKw3SBnvx4k3Fi+OWkc0oKp1RcuH9H/1to15rq1q0oTozzo+VFPHcunTsNx8dqL90Q7zEcZs2PfjY4myVrhPznoFrp3bt/Ph4Y6vX6JWGN2/ZvqoiXf4u0NV4YM9HHx1uGEYZ7YPC9keWzyxypGr0QoqxFFRkt+w9+ta/RemMorpVJS5LihfSIevMLSjIuHbkvf84yEFH5dJtNc5JmuvjyEDbheO7du48ed1L1vcHvds3r52ZmyaOnNB24r2P9h84eXaQ6ejrcz/84PLabIs29oBgHSUL1pUsSMYcmVk7u6Rz38H//Pu9smif/WBJgVNNryAtxSsefK5oNZtbVGRN+5bJRDW+c4SU1l68aMNj+XVjUay1Z+Vmmdh4c3ZCby9YsPHZoiUSgpTW4srNiE9gii/I2IpmbX3OPnM0QultmdnZ9ngzZZLRu0rnbH0qf8XDIiZ0VkeWRf3nBqT0lvxZa7bnzNnEI0JjsmWl87dcm1E4f+0j+XM3y4DSmTKyM4ypPK8KKZ2jbNlWQ8l8H08YMjKznKl2PgBAjS1vzppHsqpGQzJjdWXnZEzWiVvIWDLLFm75cslyTgaEzpaVa02facpVvmizqWTpNgQZvdWZZdWlGpR0r5iMGau3mcrdngjWunLznSrxzKQhu2xWdjoLlkLFmppBkjE68ioceapzg6zBXlRtL5p4ue4Vwegz8mdkqAbkQoo1uwrNrsKkrJGs3p5fkSyON0HRhoyCioyCtOVPkEpVpM0AAIBgDPacMntOOm18oSidObPYnFk8GbaIyTOlCDImV6EpyT7826GpPjeb1rSm9buqO3Mf/KlUPonvUgrTJ5et8oea9J+kvDd1EuZSnjghJdpYSeQP0ll+cFd7qTGR9Psm1J0S7Xtf+DhQV28TtPWZrFQanXzFLtUd7yOKot/vT5TvowTRqyyHgnTxer0x0oiiqLAXVGIiFYgXAEANp0pR1OcLRKNhhEQAEACCKPoCATx+qe6WAt8UxfhHAwVB8PlSd+by3pxlWUYIpRX9pQRhpxXeynEcx3FxTSh0VL/fnwRh4zYzTxAENXwfjuMU7ldyfB/lddRQ2W4ThFmWnSDGRCFJKRH2E8kntVLGMkLIYBiXtH0P34dl2YS8D8aYoqiEaLKiKMZOr/AWlFZRWQwFRqO+GIhlGZqmIcQAyACQBMGqNocxVllLJElqNJo0oXZFUVQDkUlaSuMmh7lRKZZlb/MoYqdUMFLJIZARQgo3Q82z+FO6S3KgHIWzo9iK2zQEQSh9aeI9RCk2wzBTjbBBEIQoiqr4PiRJarXahKjyAICEqPIAAAhhbM6TQqJLK10MRiIammYhBACIClYtEbqYRqNRQxdT6jMddDEAAIRQp9Olb2KiNK4aOnrS4nleQdLEHTMEQbAsq9VqdTpdEnMfjDFBEGqeVSCBE6HKI4TUU+UhhKmiyvM8r9VqpxpVXhkm03yfaU1rWlNO095nWtOa1v1RjO8sLHH+riunj5667EbO2hXr183O18e/mFXydF0+ceB8OGfh+i1znalal0CRkdYzuw+3sLWbHl1VruILXgwM3jx39Oj5zoCxcPb6zesq7YksyCHB19d8/NiFEfPM7ZvnWVMdN3uPKd7Teu7o0TPXArqCectXLazKVw9wUCMsC97eK/Vnrvgts1YvrstOy/2WctjdVn/wTB9TtHLb0mLdJIZ5oai79ez++k5d2cJNyyoN6Q0FwmJkuPnk/mMN7UFt/pzla5bNLLBo0tY3wn0Xjh06crHdIxlqVj64fmGFU1WoRUokD5z/6NdHe7MWFglu3azFs8rzbelo1PFbSxZCA9cvXO0CzvK6Eqr91OnWsVBcUAg3cPP8oQ/3XOzs7eoLp2z7Tx69de3oR++d7ejt7BhVs7MlBUY7rzRcD9lm1VWYgy17jrQkcnsACgz3XDy+//SV5tYbQ5yc3ltKAjcbLzT1Unlza5z8jcuXOwZ8KbUnh30dDUeOnTt7ua1vLMilhfQijPY2nT92sP5ya1u3T5pMmIw82nn9/KnD9Zevd/WMiSjN+82yMHb91Mlmn6NiZpkpeqvh4q2RgJgum2joeuPlfjFv3uatdfT1M+daukYT4/tMyLi/9XSTz+hymvmulo5BX1ROz2uOOyNAkuh1DwVIa/mC9dV0e7TrwI2BSK3LFPvXhbLmz1m3Q6Ib+lTtwqsUYcqpWvPI0+DE2S5V6VE4FBhwh22ls+YvdPWcCuw7d7UT1c1Q+7tI6Gx5c1dtldj6hqF0Y2OEvu6hKGWtW70819/oOdI5NDZWVmAxpMwqoTXnz121kdKdvo7Txd8ijZlVi9dHQ9pro5McWUSYsiuXrd/iQ5fCdPrnBQRtq1j+WA5lNIKehuOnmkMhQZIxiFGtwetH3n7n3YPNbgkDUmurXfP0M9sWFzvV7NIQ9uo128uhRqsPX2zddw0hlBRgAgu3jr75xq4zPRF98YKVs12SJ0SWL11dlzG86z8O/f/svXd0XMd59z+37t7tBVgsegdIgABJsPcuUiwSRUqyRJlWsS1Lju3EURw78S9+nV+cvI5THFtxiyJZlmN1iWIReycIggRJEIVE720XWGzfvf3O+8cVKapg9y6wC8Lxfs+RDg7PnXnmTnnu7Mw8nxEXLC8C148drO0NkHkLtu5eZu5qqj1VO6RSBTvqm0apIZO9MigSUtjVcOLEkWOXhwKqsrVb58DOId2clauX+g783fu+RXs3zxWHG24xhWuXldlMsS17T+x9RJEJBgGGqXV6FdTq1UKPT5KkKCtFOKU1p9lMFDEcz2usEJLSpKRZdCQKFCG4RJ4PhxlEqyVJlUZL6tS8YzwMgOILvnFSZbSYDBoSSzjjJxQIshCYjAaibMu3AAAgAElEQVQVGdZTQKQZlpMAiNtQQjBca7KYjXoVFohXnp8WplIbSKtJr8Hd03ybHUJSFGk26NRELHc2si5P3cH69887xyzpG3ZWPLjYYo4awQgAAAhK6mwZOsCPdwwODzGGIruBirwUoStd/dT3ln3xo0kZguIEqdhLEpTBRF9/+fv/9Jsz4a0v/P3sAtskfjNL4zUfHHcVP/iNL9j8185c6h4w0Byq7veWjDe2sNhCseV8dXj+7m9/0RK6eubctSabq91tKV/10I6itv9+o79844Z54Q8be8cGWzq7XHMe+osnibb9l9qdorOPSCsd7egd5L0jvX1VafzIKJs1HyFi/nEWMc7rzl8JOq8riTzHCxLACJIklACeYrVw569pIoVNWX8kxZxRirnOVCnmlU+vX/m00uehyPMcz0MEJ0lC8g/Wnjh63aFbsa0qx6pL3FwPShI0zX/mJ+8+eO21n75z/npRqnlhXsznr4ZaR3TWBan23BRVtwH3QI2BDwccfXWBDspenin1v339wP5zB/UaFDXkr1mmxUyp6ZnZ6XptL44TJElgDCKxodCYX7JU2o0ZRrvpcj8wW7FhT6jrQr+6olzT5xx1MOOq4io1pSwM9m5F4vtodDpMpJmgn8VC/jBuMsb18IfEjHXXvv3fr1cPqxY9/PxzW2YrWNJWKIwgNBo1dIVYlg6F6DBPWG3Tw9qLWVq9TgU8IZ+P1bNBBpLpavWM5yL8qSnYcux3//X7AwO2bV97fI1u9NKVUfPKrZsXFaeqo7VUsO38ZH95CWMdt/oZVVZRobWkPA85GQoGaQnEzArDCUwSBUmUJBGFEDdm5RF9vePVJ7qw8tUZWXZPasXOvbt3rpqTKnEccDd9cKpRwD555A9BUARDgSiKUBQlCUGQlFmFzs7+q42BvC/MMQ5f6+sBcNZKnWYS6+8Tex+cMNjtuubr7bXHvVSgHylcn6GNtqUA2aB7oKOhrbunL+hra+83ZKZZ9BPMalHKVrTuGz9e943ohRTCvtGBxlsdvYNDYkdrZ05hRrpZE+FdUa3ekJ5BtXQ2XQ51uIbGVHO2ZMfQbCIb8jo72zu6+gaHgs2tBbCgMN2YoFOkZGZBmqq/6drpM05sxK/LrEixRmHGxCQo8WHPYHdHa2dfX1joyM40afOtOkUgUeU2eNo/NtzW0d3VPwT1tzpTigszrJppcaFC2OdytHX09PW5SPxmR1ZZbqZFG/doA/2c7d/4+fZvAJEdqt/3au2wdvYi6B/o6qLT0u0WLRkB36ufvf7ZH65/djJGITvadOaSw9pTVYzeHMCNK42mydRp9txi7Gxn63VxhBn0E/ZZeWUkO3jgXBdXtTo905QHSrADN5vqRK+O8dEZaTgtgk93dESlN6Vj3q6umzchMuhDNGX2WTmhlp+/40qfp880pZx7p4GsWGakNJOo94mTYKQuffbCueMnL1xvhPb5a5fPskbFU0uh8b7682dujdA8yl6vrk/dsMqkV011EQMy3pGWCyev9Hp5AeuorrWp11nNmkgfEFyfUlC5ZGzs9JXGfmPhou0bZsWwGgaFkLf/xpX61n6vxAUvXLiCazIT5n2AsXDRYlfwTHV9iz5/8Zq5RZnGeI5bKDLuvsYb15v7vEGRabxhsthtRg2p+LpsRTYYn7OlrrZlaCQQRq6fu2JVW9Kmx/tAzuvouHypecQToMGtc5fSDAZbArzPbWsQiBxQabjBmzWjbarU4qrV69caKDIx5zGI7AXrNwZPnrh8vE3QV67bOa8kfRJnolH9vPvvHz1e01zfr8oqW15VYs8gQcnspSIoKc61YLrUbQ86j56/WTdCZJUtm2vXlXAkNJoIgsooryAzU/RabVkFmT27gExXXbrccIVRF1Ytn1uSYTZWlPfpigvt6dYFyypRsjJHp53MjjwiB0BwHBcIBIxGY0yRFuFwOKZIi3A4zLKsxWKJ8Nid6DvlkRbhcBgAoNcrxQ+Gx8aaX321+cUX2YEBHgDbhg1bXnzRNHu2krQQwsuXL7/wwgs1NTWRn9y9e/dLL71kNpsVlkq5QqEQx3FGY3x/CX9CPp8PAKDX6xNnwu12nz17dmRkJGqkhSAINpttyZIlWVlZk4i0CIVC8j3uSiIt/H7/VCItgsGg8kgLmqbjFWnh9Xp1Ot1Mi7RgGIamab1eP5FXSa4xJJVUUvdGH/ukOywChSkFQZDj+hU+DyFkWVZ2+REek+c+cnCgkmxFUZQzVD5roxmG43kOQh4AEQBRkmQnrSSt/BZyVH3UginPNiZxHCdXY+ImJhzHAQAmB5pQKIZhBEFQwkURBEHuFTRNT2Luw7IsgiAoiiqZ+3AcdyccOiZD4C7SBQBA4dxHkqSpQ3nk4FiGYZR0y+kUy7IyZGOiBz4esXfoJAqzlvk+yqvvDt8n8oDkeZ5lWeWoJLl7gVi8D8MwjCDI3keS3QTLkn883ofnebm3Jc41yACjSYx25brjfaI29FS8j+wRUBRV0rFlJM2kMV2y85I/nFHLyXFcTP08gmQSk2x6ilnFV5FdD7jb++A4bjAYYpr70DRNEITCH64QQpqmWZY1Go0RHpvEug9BEAiCRIAYfUoEx+lUKg2CcADwABA4rtfrI5fqjiCEOp1OSS0RBGEwGBRmG5PC4TDHcQaDIXFzH3nw6PX6hCKEZLpN1M+GKIoajUZuo0nMfTAMwzBMCWFD9hryuk9MVmTJICF53UeJ94nXuo88A9BoNDNt3Ydl2cgfjI8bXp6dKvc+MjZFeRKFz2N3SWFJ5Cdjeh69PRFH5HtPY3wLJWMg1vpUrjvVmDjvI+escMowOWEYhiCIXEuRn5QpjnKXmIQ3lCtKSVrZkKzJuV30LkUtVaz9PIIQBIlXVnFU1JpMrjonlVRS90ZJ75NUUkndG0X6yS2JXNDtHHG6aag22zMzrVo8wrnOjwTZwLhjeEzQpGZmp8TtFj4oML7RgWEvas7MSzcqmV9CgfW7HE4vp03PyzAQsc2jocSFPCMOF0Na8rJSVNHfevKCIusbGxkZ9XK4LiXNbjPriPh+EaDEhtyjo26OtKTbLJq4hbPcJYkLesZGHK6QSBhtGZlppsTes3e3oED7xoacAdxoy0wzxtjMkzAnMgGXY9QraWzpqUYqzk31SUmM1zk85PTQEmnJyM5IMaoTDVyYdk3sfaBAj3dfOnb0YtMAg+uthSse3bUqL9qFikJg7NaF997c10DOuf+Zbz6YH5/WkWj3YP2x135/asC6/OnvfXl59OVlkfUNt575YN/pZl/5k3/75WWpsdAlIBd0tdceevtwnTtt09/++Y4MKoGwbtrZcv7DIzVtXqDRZVeu3bJ2UUFK7OF6E0riws6W6iOHTtSFCrY9tXtjafzvZZXo8f5rp4+dbx4MMJKxdOnWB7bNt00PYAzS7qHGc+/+/kRf+tJdz+9ZZUksZwNyIUfTmf0HTjciFY8+9eCKgtQErvLSQw3H9x+73hsQ2SBesuXxh9bPydLHNp44v9PNUkajnpq+z0FMmtD7QJ71DXYN0sblX9hZTvWeOHi92TE3y6SOPIxFhhZQKqWgmIpnJ4csI0LCmD9L8SF6iRcEiJmy8zIlMvaT9zwvSqgmPS8blRIxVbhborO1xcGnbPzyMwX01VOXe/qG8zJTsuNXeVAUeRHo7fYMryGeAWR3WWBHh/r63NSih5+rIts+ON16rclRuSFnWtY/IcuKmMackckbiGmYGEBRYkVgzs7MCE4UvfhJsWNdDQ1Nnc6gCACKU/bCefNn51i0ij5mXFgyFK/bu7OqMHToJ/8zMOjwlGTpY+gYor/z4tELY9ala5aW/tF5H0kUgz6/RKqNqRkGEErVBh0uQZRA5K8Lac2uXLmR9Z+8Fc+brDBjRuGyjZt8B482K+L7AIBrrXmVy3iB9o3SMVc8ojGnz1m8PEyHz/Ykel0s7PKEIa5LyzRpR606OBIIhRgJRA2eViyMMmRVLAaSELgaTEwPlJhQOMyh+hST1mxM0xNdo6NjYZCjNOxlSkKN6QVVVLjfUeOK4dexEAz3NQ/e6PSHNMbSuRkVuRqNMteFUoa8qpWoIPiaEr9gaixavLEQIKg0cm4c1Zv1upgC2ITRxrMHqntMS+akGmIOjJ82TTz3gVAUBIBgKIahEMMxwHHRQT8IiqIJYOsiCEBiylXeyp3sKkDM5iYvnhckAHEcQ1AExwAUxOgItxg16e1jZZJEURIlBMcRBMFwDABE4Kbt0JvcUjG+HELg+hRDjkiwKipFh8c0aUJRFEFQAJQdKlalFi7eWLg4tuLdFobhgB+uO/TuBV/2slWlOSZF3kfiQ4zAOxuPn+8iS1duWlpsnbnOZ2Lvg6CoSqVCoSRwnIjwHItQVFwhXZAZ77t+6M0DdU6ictveL64uSsiC6EyXWkXiCORYVhIlToC4jsDxmXVoI5ownMAJTAxyoiixYV4SERU1sw69fVqYirQV2W1FSp8PtZ169/X3T4ykbHhyz46FthgsBTtrDh48dL7dJUCAq0ylK3bu2lCVY1X4+4kbunLwDye7LYvvv29ZaUokpMzHEpy3jh45erqm3zxn7a4VlZmGROF046IJvQ+GY3qrCWnudQ10jmn7egMpc+zqeE5rENKYMXf7U7nrBYQyWNUJ3T6YuaIy0rWXh53dHcMqfsiDUTl6k2Ym95fPCtUa9QYK6R1welJGh7wctOTmxH1l+56Kyl28/bmSNRymt1qMKB1SnlKTXbn5idwVjAABQBBcrTOa9ErX47memsMXR1Lmb35gXZlVpXSChukpPOQKqtLXLFk8Oy2B6MW4aOLZHK425pSX2xpe+flf/goWrN/z9Xl2Y7Q6EIabTrz8kx+8W+emUcuB5o6vP73nvvkZE9hAcVJrtWutUcsIPe2X9r34d788NegJE+81dD7x1af2ri2NtLDA+4avHX3tP1/bX9c2Ihpqrjz05F/87cMlCucUMDTcduHNF19673zTAK06UXfuqef/eu+y6MWclJDUiiWz2n77ux89+1tL5Y49T5Xkp8aTTyOy462nfvtfr7x9usnF6w+veODJrz+7da59MiSoCUXY84pn9zT+9ud/+cuQbfXDT++aZ54m/wl9HbWHf/+LVw9c7fEh2v2Xnv7L557aMNsQbzOoWm9N11uByLma9v/rL353oKbFK5pPbnzkma89tX52KjVxZaIqncWmiwSUmVBc142aC0ffufH666/8I66zL3/yu89uW1hgiFaziK5o23M/2iwhOEEoOB9zj5Xk+yT5Pp+jJN8nyfeZupJ8n6SSSmqG6mOfBCEURVG5yxdFURRFFEUVxvXL+UuSFOF5+RlBEDAMU5itXAz5D+UllyRJhFACAMpGI5bqsyVUQkWQn0wE9ECSJLkapw5niGACAJBQE3LmEMKouJI77xtT/7xjRTakJO1UDIFPjoio9SbeliAIU9ySvPOCM4qwcWe8R6iKj72PIAihUEh5qLfM9+F5Xvm4ZVlWEIRgMBjhGZnvIyNslGQrk25ALDiocCgU5jgWQg4ACQBBFIOhED5xqe6WJEnhcFjJK8v1GfVnxSQkV3swGEzczyIZPQMUULImJ/lnOM/zSqg0MikpFAoFg8FJeB+ZWqWEuSMjrgRBmJz3kSSJpmmO4wRBUPLLS7bF8/wUvY/MFUIQRKYyzRDd4Xkp8j4oihIEoby3oSh6B2iisDRyUSI/Lz9GEITCbBEEkRtb+YoVjuM4imK37+xDEITAceVvgeO4ku4iF0l5qZRL/qTgOJ5Q/AWEUAYnJc6EQhgFhFDuZgpr/m4hCCJXlJK08oDBcXxy3wxJkgiCkIuqBBsid/Kpf5/kYah8JE6bolIiPy4uhmEURcW06gwAiGnVWea5aLXaCI/J7RfTqrP8epGzvVtIOKwmSRWKAgB4AHAM01CUwuQQQoqilMwQZaKV8lLFJLkaE+d95MbVaDQJnV7JY0/JqrNKpZIrcxJzHwCA8lVnQRCmsuosfxWUrDrLX/p4rTpzHEdR1ExbdZaHSZLvk1RSSc04Jb1PUkkldW+U9D5JJZXUvVEk7wNFZqzlxK/+z9f//F/3tTsZJdnBwODF1364Z+uGXV/57iunW7xxuuGDdbZ8+O/PbV234bGv/+idK8Nc1AQS42o//9L3v7x964NP/s0vqwdj3AuQaGfz4X/97je++a8fjNCJ3UeAkuC4ceRn33n+7/7zw1vjCchfoIcbDvzHD771/V8cUtiIMYseazry0ne+tGPLrmd+9MYFB5+oTfoJxAxceecfn3to7cp1j37npbMdvgRtOzO91b/+26d3bt/x1R++dL5rjJmWtxQGzv/ihb33r1298+m/f+dyv38GbWrFQRG8Dx/0dF6+cN3pRigtFTW6HQAAANN76+rVHuLxf3vrx3vn0p2X6zsVbWNHkeBqabxcNzr3R++/992t2aN1J66PRSkN53Z0Ntyky7/0Hz/7hy+W00cP1sQQnAMkz2BPXXWtE1HrQVxvPP888SPXqi819wUpkxFKce/QUPCPt9aeb3T5ULVWrawRYxU/0t3S0Ccsff6nv/ruduPY1RPX3YkwM5Gk4aaaeod549/sO/jvD2gGm2tvjCRkiPpqjp3jy/f8/b/9y6OloZuNHQ539I8glASOocMfiWY4QYrt/JTn/L6T/vInfvL7t/56E9528+aQK6w4rSQ4G08cr24d9io6unIvFGGHi9BZZ9/3qCUn+8jxUWU/0ES/2+OmQUF5kc6AZ2g6ev1jLr5EN9UdxYDb6/YyeSsqDFp3hkUzPOQc8oPUCDfViCE6POaHacUp5hx7qM+ubevoFNbMVbqbh5qyy7bs+Yr13MlzvQmPNyftC7c9Xpieuu9WIsYMghtsldv2WDIvnroeTsyvbCnsCwQ5aCm2GzL1ueYGh7t/kF5incyVNJMSmj7voWfmAkDgYgeppTAVGs2JQ1FkgmwgLIgYrtGpdBSm4BvD9fWPa1MLbNnZFjCU1tbnC4XDkjUKliHYdv6Nt94+0ewUIMAoS8X6J/ZuX1ZgU1435tVf+dsVOIbyvmaVjhSUB6xDzn3r3Zfe6MzcmL9IN7P24e9SpILJt3TEsOUqcCxH82qbDkNQQoVLkOdZDoApeh+J53ielrRqAkFUJIEgIs0wAETwPpIoMhyHkCSGoSSJqQnoCTIAKL3vCyAIwLG44kQiCMMwHE/c8huCYBiGJvCqFZHnBU7ASBWGoSo1CRCJCTMATJv3AQhBEkCkPZ01F9qhcX5xoT1KGLkQCLdfaDtT7/YaUxauKVxTbtBHH9ZMIAwIA6FSERhGkAjPspIoRls31c9e/+wP1z8b0+t8UrhGjYnhgVvXr/aIeUtzU8yaKAmgJIiSRI9eOXS0Tb9g+8ZlBeYZ63wiep+YhaAYhqMCz0OIiQIEEEexifFlAu13drV0jISw1MLy8mwzMcEXCMVQAsUQRpAAECUJACQaAgdBEAxDgSBKchAFBAT5xwXN+SMSgqIoikBOhBCKggghhiXgfPenBIWwd7ijpWuMU2cUlOYZuZ6rp49cCRSvuH/FnIxoDAvCpJ+7Y+HcHTFZxAgcSJIkB+kICEoQSHQCHe8Z6ujsHHDTEAAEU1mySkpz0wwRguIBAABwPmdPZ2vvGLAVl5bm6scbzx891YzOXruiIjfqPQ1S0NHc0tHVWH9r3Lx8y4p52ZqZvK8UV++D6ww6I8UP9o8xmR4PA7A0o3HijijxjG+4t7PNg3Pm/NlZE8eCawyUwUz29g/RJYzbz4mkxRo5nB1Tq7R6Hex2B4Jut8fnZQwZmTPrHNb/ImGUjtKqJNe4P+SlR4OCSNlSE8/3kbiwd7i3ozusR3V6rqP1YpO/cM2OjYsL9Qn60qvT0zS0y+92uTUBrw/o0ihVdP6tSHsd/V2tgz4JApTUZRO23IxUQ7RpocgERge6Wnohb0kzM/XHTzVhszdtXT0n3RDdq0Nm9Oa59969Ctc/9qV5xbaEfwamponbShLCru668yePnTzf5Lcyft99D9y/IEcX6ScyqsvKL8ltaNz/m18ZScxSsqQoxzxhCyGkIa3svsfK7otaRnVKbn5x7tWjv36xjZKwrDkry9Ij+xKEMpqzC2zNF06+dkOQSGPByvm2GD4BnM/Zee3ksaPnrjS7DEDLrF+3eXF+Qo4sAwCCg83VZ08eOXlpWEoZDZPS5oWlWZa4uUpJCDnbak6fOH7ucjeT6guENm9eU55liCdFElGnZmRlmW/VHvqfWpYnMys3lacnfK6PkKbMyvv3VAIAuKHLrx89U90BiplgX52uYPH6pfNKYlhaUSgsfW5V5v5Lp19rwknKXLYq22qMfvWIOqN8/e7y9TGaotKKVu0sWgUAgI6T/3bw1OVwVhD4e67YShauXVKWboqESsXM+cs3PZK6iCosK0ulZvqEf+J+giC4Wm8vqFi1PXORiOvNaVZtVMAaqs+YtWr7F1K6nZImNaegUCGLNooQta1w/pZH1S0DfsKUXlBUnBbt24pSppw5q7aq0/vHWbU1q3T2RISzz09NqI32oqr1hoKlIqpLyUhJ5LIdoTFlFVdsMuQLgDSkpJs1qnh2GQTBKVNGyfx1hvwVEmFIzbRo4w6RRDQpuVWrN+uzBr08Zc8vKkmbnut0PhKqz1my5eHUqjCKoAiqsqUa1AkZdHj2gk1b9HmDblaTklNUkGWMH/p/YmkK1z/+5VKfgOMoRhrSLRQZbYEcN+bPW5Wf+JLFRRG8D0Ya0kur0kurYspPYyuYayuYcrk+KVRtzCpbmlWmPAWm1qcVz08rnow1XGPMLFuSGYO1KUhlyZqzJGtOgnJHMJUps3xRZnmC8peFqU0ZJYsyShJqZCLhhvTZC9MVoeGmJkxrK51vK028oY+FGPKrVuXHNAD/qDST16SSSiqp/836BN8nHA7HxPdhGIbn+ah0qDtJ5OdDoQmP/sl8H/kx5XQxmayqPBo7HA4zPC/zfQQABFEM0TQxcanuVkx8n3A4TJLx/xlypxoTF4AuI5OU4C8mpzt8HyX9R0Y4hUKhUCgUa+i5IAg0TcupFPJ95FD1ycW40zSNYZgkSQrJqoIgTJ0uJkkSz/PhcFghEmt6JONKOI6LgHn42PtIksSyrPLeJooiz/PK2XdyaeQGjvCY3CMV5glu4wVQFI2c7d1iZXwZhDwA0u0XV5hc9o9KHK78pspLpVwyeo1l2cTBd+QRKHO5EmSCZVmZ7Be1C8kILhnHNQnCBs/zGIaxLBv1YfmbCm7TYGIyBG57gTtMj8gPyyMzLi0IIZRdmMJ5wLSJ47jIjfux9yFJ8k+FKi9JRo1Gh6IsADwAJEFYTCaTVdGtFRBCo9GohAhFkqTFYklS5ScSgiBqtZqiKCV8H71ebzabrVZrkir/uXZnMlU+QlUk132SSiqpe6Ok90kqqaTujZLeJ6mkkro3irjKI/HB0a76aw1O9azVi8ttSg6xM97uxprzVzt5Y+6cRUvmFdupeCyMCgFHa93Z802janvJ/CXLKvOMUXfmRMY30Fx3rTOQvmTTkryIR7Q/K8gHRtqv1N1062bdt7rcSCTyzCiU/EOt1+uagtY5CxeU2+N8phoKjL+v+UpdQ5ePsJctWFxVbNfG86SzLIke771+sd5JZC1aV5Wtnubz/bynr/nKpbrWYVqXv3D1yqrC1EingSctSQj1N9Rca2Nyli6Zk2+LS8eOKsbRfO7c5XaHn7QWLVyxoizHMi0HmKXRxtNHL4+kVmbz4+pZ82fnp0cImZq8IjSTSAcGG6pPnz1+6mJzvyekZDOPH+ttunjuikebqaX76q9eaXdE32iILikw0Fp36kw7kZ2NjXderantCkRLwgVGu+pPHjtbXV3d7KBj5OZIQddgw4WjJ85fuHStOywkdh9BcHdcvXDm6LHzDe3dLjreuUt8YOjmlettbpEgOEfT5Ws944G478ry7uFbV898eOxc7dWWUW66N30ld3fdxdqGEZCdo3ZcPneprt2TGLyYu/n88bOnTpyu63K6E0Np+4wkz63z1a1j0JyZgzobLlxtdXqjQ4XiYdffcu5Sm08A0HGjtqlvLCgkBqUWYTqDEJS1oGIJTXN1vEqRo5cCjqE+Ryj7vp2bbf3VH152DA2Nz0nPmKqzDrmGB/tHzcv/avtK/9XDJxr7u4fCJbMiogYwlTF91oLlYXD1WuxwCYTU2Yrnr1jGkU1u5USVSQrV2Irnr/IFeacm/qYkgXcP9flJe+WyNTlMU3Vte99YMD/VGN+bVxDKlFu+aMWI2OWPa5iIQuua1LLlm4tJa1aKC3a+6fC4AwKwJqAcVHrZspWSEO7SKM482Flz8OCh8+0uAQJcZSpdsXPXhqocq+JNLkSTv2KbXWXUY6HrB9rrGJoXY3QDkO+/tO/9k/XDNJUzd2l5iuANo/kLl5eZx0/8oVqsWJAPm8+euj4YJLIq1m+tMva1Xb9Y7yCJQMulayP6uTmzSlkJkRhPS3XNuXM3RoJkybJ1pbBvRFOyaMn8wMl/P+qvfGhNmeS81cHmLqsqthpiO90WoRuiOGlIzciyp+oJp7LMeDoYDrCqzDQdQegMJBwJh4IsANGQJFEkMeFwOMBbU004DvQUjvJ+XzBKrhipMadlZ6S1q/HY5xMISWltmRlpZm2LN+HTa5Qy2zKB3ax1JYAuBkWJ9gcQMo0ymPWIlsKEgF8UxXijDSidNSMrI8U4GJpmpioAACBqc2auGQCE7jjXxWF2e0ZKlCHAuX03TjQfrh1zm9NWbp61eb7JSCpoZ40tM1twmag+5X1Ck125+YncFYwA5bhJndGkj2V8IipzZjZ+7Y1//uXbt5D5e75WZDfHNrwlT93Bo32mxduWWUO3rja1ePVhFoGp3vzxhvrR4Nxg87krzqwlD60xhpvrGq412kZb+wRL+X335WaExIFZ6xcUCe66wfGh1r7u/tRFO9diXadv3sQKnZ8AACAASURBVOwTR7pIbXa+qb/N0eMgekqMwkCfO61YRGPuVVESIB/9p1AQQgmiKIoABEEQCDAIpz58UQhxCAGKIvJxVQQqwlMiUzrJNT1ksY9sJezQIAQQQoggAEHkNknUxcgIggCAgMSgW5UYD3eeefn3F8XireuWFuuiVCdpNizYtaTyAQgRFCdQXOGaIIIgsXYLVKWz2HSRjrcpkG7e7u/+eNGl/a9fb2itzLLp02OJ3x9s7iMs9+cWV9g8ro6bPaJay9L+kYEboVYyrTRTGn7/8sG3Tx7UqxGozV69oorUWbPzi4syLS6dzm826Sk/Btmg3zHOmWYVZM8ySPW3XNBsAk5PuKe6jyifRQ6NjjmZcSK3UkPFvtoW34+gmlJrVbTHy4nmcIAHEFdTEy5WSWFH+7lXf/byqX7Vii995692VupUE5RercYoLTYcYCRI06wEcJ1uitOpPxWhKKrRahAv5OkQw7Isj1JaBJ3p3AUFksKDzcdfefHVGrdt897nHipwHT18iZu985mHlykJsEcQjMCxaVgb9zUdfuWV3x2oH+YhwDUpVVu/+twja0vsUXqvt/X8G6/84q1aadVTj66aXZiXlZNrt5eUFzdd8fhDQQFEo5N9nlAACABQU0YO3j/orj7eAYtXZGSneiyVu5985MGVc2yIJIHR6+8ev8HjBDGRl0UBQABIKcl39A1da/JlPLzY4Gjs7wF84RIDNQm0QIQXgSJHe8dHHaNuj0vtdI6lmTIM6ojfCcxkT8s0k2erq1sL/YMMYUjLSJvQAKqxz7r/e7+6/3tRy6hLTUvLNNXVHL+pIzuGWSQ1LyvKsWYoCUzQ53Q6XR4v43A4x9W2VOVTXkngaP/Y6OjYuMeDDjvGKHuaMWE7DSIbdI8OO13ucZ4cHRsP6g0aVdwgGChOGDPS8dau7oZqj+RySfbFqbq4r82IPB30OkddY243HBkZy8XsJq2SnzJTEKrJqtz5g5d2AgAkb+uhtxpHsYL189JYx+CY0WLUa+K/rQcg7Xc5R0ZcHjczOuryZGkNGjIaEddYsfXbP9367RgtmWatfv4nq58HAEj9h//9128RFStXlrFt/RxVrqFi7Ig5c3KFi339HZpgyOFHbIX55Vmc48iFW/S8xfYsS4GYxx1uaW/RCoPekVGTGQmLn+Egoyqd0Qbcff09A3q0NwDUhbbZObntv/7AkVqmy9Zbz3/QTJYtNKk1k/DmEehifNhx68yHB47Wtnv45oDbFXjiS5tmmSOODDy9ZO7ikd63Dr58K3XO+vsXz8mKx9Fv1FhQtmDlQMdbv/6NJn/xlgfWl5mipBDD3q4rH75zuLptyCN1/U4c2/rY0+tzFPZIyHmHG4+/c+BsQ4+LI17+XXDb7r1bKyJgpKekQP+N4/veO3FjmAF6lx9gj2xeXGKPGxsLI4058xYUDx06ffSqqmjVllWlNmO8F9Kl4GjX+cPvHK9pHQshLQEuvGv3A0tzp23XnfUHwsxoz63m37WdRwnD3Psf37F+YbZihrdicV01H7x/9ELLIIu6fJ4gfHjTohxrAnYK7haas+GRB1xv7Xvr16e02Qu37lqQmxbtZ+WnMjAu2rF58P3Th94Pq/LmbVg5Kz2bFLMaZy3LKCrItWKGtAcfHHzv2LE36oi8eeu3FRuzMwVo0mK42pqTx1uNlBrPyRMKiktJKzxz7oM3QtTsFRvnzspKMRTam6TyHJsttbIyJ6SanaXVTmakf7QSwHFcIBD4U4nzGhtrfvXV5hdfZAcGeABsGzZsefFF02xFiBgI4eXLl1944YWamprIT+7evfull15KxnlNJLfbffbs2ZGRESVxXjabbcmSJVlZWck4r8+1O5PjvPR6/UReJXnWOamkkro3+gRhQzmsB9zmHgAAlCOBZDQEx0U6MSWTB4BiXo8oijJrInK2nzLBiyIPoQiACIAEIcfzCpMrJ2zITyovlXLJUBiZKxL3zO+YAAAk1IRcjaIoRp1lyCCOySEp7gBYCIJQMveRURUYhk1u7iMzZzAMU0jYALFwqSaSJEny4E3c5unkJI/3CPusH3sf+SeMwrqQSSgcxwmCoBADBiGUkS5R6WIsyyrPVkZPxcTBCofDDMdxEHIASHd+Qiqmi9E0rcT7CIIQCoWUsDhilVztCaWL3SGzTANdLGpDyx+YcDg8ObrYHWqVEu8jd1ElPvFzk8tdURRFJd5nKrY+ZVd2ZDGBsRItmecFIVTkfTAM02q1Cicy4DY1jiAIhT9c5W8Cx3E63YRLgrL3wXE8pnUf+UsVIdtPCaVpiiTVCIIAIACA47hWq1WYHEKo0WiU1JJcn8pLpVw0TcvVmDjvI3eahJrgeZ4gCJIkoy41CoKgVqvlypzE3EeeiWg0GiXeBwAgd+nJzX0AADiOq9VqJd4HwzCVSqVSqabofWQUHEVRM2rdR/Y+kYFwHzc8iqI4jitfdUYQRPYUCj/vsmcRRTHq8/IzCrOVJ9UAAOWzDIIgcAzDEAQDQAIARRAilrfAcVxJd5ELlqC5D4ZhBEEkzjXI7jWhJuTMURSN6srl75ZcmbEOVLlXK//lhWGY3KUn4RHujCAl9SYDCWX/G6uhz9pNXGebiuT6jFCTyVXnpJJK6t4oykwHSgLPCxKCkwSOKvkYQCgKHMeLAMVwnMCVJVKSryQKHCcgOElOdOPyZxPwPC9CBMNIMuo1SJ9ODSVRfnEVGfUWs6kKigIvCBDBCYWVHFvuUBR4XhAkgOEEQWBo/Jcm4e3KBiiGEwobKI6SRJ7nBVGECE6QBI7FvxJvC0oCz/OCCBEUJwgCwxK5zgtFnucFQYIoTpIJabh7rchnnQODjaffe/tgp2Xrnz+1rdQedSEG8uOdZ9979X9OtcKU4uXbH9m5fr49DpeuQSE81nbmD79485ph7df/vy8vj7qUAoXgyK2L+97aX93p1RUs3vXkM1tmGZS3ncj6++uP/c+bJ4fSNv/gLx7ImDhcZOqSuGBv3dG33jjiL3nwiT0PzEmJa+5Qot291Qff2n/6xrgqf9mWXQ9vmpduiO9BZCj4h66f3v/ukYu9YV3Zxt17H95YqJvGaA7B11F94M13jtzoD1CFm/Y+/YX1lWnKmAwxCkqh0VvH3nzt0MU2nypv+bZHH92yMNM0UXzQVCUFes+9+8Y7ZxocnH7prq88vnlhtjHGD6HIhVkRJ0lCaSjbdCuC9xHZ8Gh/7zimsljMyk5YwnBfe+NNh/mLP/7vAsfJ4zebbnYXppWZpvzmkmd4uKvHaSopiXbI+aNysO7R7lvdyPwn/ulZa1/t8dPHapeU3mdRWg4p5BkfHHBiKWmpqkT1rY+NeXu7hwKC1p5mSUB0gMB6ehq7mcwd39yZJXTVXr/V4cy16NLieg0n5+jrbHMQK5/9xz/Hb+6/0Hqhfm7+Kvu0/aSXPIN940TZQ9//y8XSwZ++19XUMmd2WnYirlOV+NBIbzB1zTd+9FXQXXeppatvvMRmTI3g6YTg+PDwsCvISRCgGKG3ZmammTSkEtcsjdZfbAhl7vqbry/HTv78nRutxZlp87NjWFWWGFdLzblurHzR/OJ0w8yM7YvgfXCNqWDpJq1JC46NKhu4YtDj89BoTkkOpZNs1M2egNvNAdOUF+Ixa8G8bXtI/NDRZkVbilKYCbuDIGWWyWi3WVJSNc29vTywKO2RqD6tYPmWB3Hq5LmehA8iPKVs5eZ0Dfr+zQTslkqi4B33AL3FYs+3BT1GsnfMw/IiiKf3EelAKMghpvQUXaoh06jqHx8eoUG8GY0TC00pXf9gCQQ4CNTzpJrUUtGiryYrjEytvO+xcgwVxm90A0RDRf2NyY33NVSfruvxCBBgKkNB1abNy3XKvA8z5AirjWn2NJ2KKk0Xut0BX1DKVvwxFP29de/vuxAuu3+JTjszXQ+Itu6DoiiKKG9Lked5ViA1FIogOIlBKAp8XDhzKApADFUoSRLH84DAMRQlCJTEIUdzACj+HiIIwNDpgmygKIolamIMIRQ5DkUBRpAEhuMopFkA4wtrlARBFESUIFAUJUgCIJBjOACmzfsABMdxwHv66k5WD1KZq8qLUqIsZoo0M9LhbBsIhdW6vJLU4gx15ODpjy0hKIkLoaGWGzf7fMb8pTkWXeSgOU1u1Y5nqnYof5ePxbKshCIYgQMANCoU8rwoiAp2iaDAcJLo7T5/ss6buXTH6spM/Yx1PvElbKA4jpMYzzAS1PKcBCCOTbyBDzn/aGftmZo2D16wZOPGykxV3JZ3ERQlcBxwvCRJgiAKEjKpCNw/fiEIQhAEkIAk8IIoiiKCEyDOi5cohmE4KtGCJEk8K0AJJVSJ+N3zCUHOO9x66Vxtd1g/e/GqKlu4sfrs5UHD0o3rFxRY493UzED9+TPV18cN8zeurjT6m85e6UIyKpdVlaZEC+Vnhm/WXLrcNOiTIEBJXXb58pXzi22KAIAkSaISI/ICADjDSTiF47gCNyK6e2ouXbl+tTWoL93wwMLiVPXMXPGRFV++j8FitGjFro7BUP6YiwZ4ltU6sQGUUBsz8oqQVCzVoonrNgVGqbVGg3RrzO1zoq7xsbC1NCELATNeKIbprWbYF/A4+jTcuIfTFZhVRFzbHKAag1anBkMOtz/dN+LnJH1GxlTjJhVYJTWmjLxiglPbqUBr3bVGh2bRlo1LS5VscmCUOqsyN6tSqS1Ma0kvKC23qW24v6P2cheSMXflyvk5ZirqjAmjTPacQl5HQwAQTGVJM6mV0lOo9HR1uNnrGA3moa0jmG6+3qBVkBRBufGOq1f7VPftqarIMce3qeOuCIQNLjDYePSDd98/dqkrZGxrvvnQ009FIWwgVFZxWXHTtTd/9D3CmDl/3bbZeYYJH0dwypg5Z2nmnKhlhIH+prNv//L3J9sGPNgVHzO8a/vWBbkREE2I2pRSUJLbtP/9Hx8JUplzNjy8QPGSMwCQcfXVH3/z7QPn6jv9mq6xzoceeTJxhA1vR/UH776173TDOLRebxt/bE88CRsIrjLnleXe3Hfs5dN+VdbcVduK7aY4s28Q0padX2hrPvj7f3k/rC5cuuWRypSEz/URXGPOmbs8BwBA95x/tebI/vpg7bWzb6iNCSBsEJbcipW5FZAPtx39+eGjZ8bAhTMHzVnlyzdv37ow3xyBl0SYM8sWZZZNxiiaVrm4rGvf4Z99501RVbrx8ZL8NCXrp6ixYMOj36zcQaTY04wJoBzFV5GmJhp72cbHv7X4ga+JECFUGoPFEG09D1GnFK/b85fztoUlnNIbjXpNPN4f0diLV+/9fsVuQYIIrtbqTcYoH1eE1GeWr9+btSDIiJhaZzIbYygHQpoyKrc8nbPyMU6QEILSGkzxj5a4I33OvB3P5K19jJcASlI6k9kQz9PyCEZZC1fv+urcTWEBVekMpgSAtxDSlFW1+YuFy4KshGv0RpOSm5fiJ1Xmwse+XXg/zSMAQRCMMlqMiSFfIrg6f+1X/nHe47wIEAQlKK3BaEjcAMeNxWt3Pzt/U4gDpN5sNmiUnZNAKUtmwRRZrtOmSHdaYKTGnKoxp8aSH4pThhTKMNVifVIYSRnTsmOafSAYqTGlapTt0H9KKE5qLWna6WlCTKWzpukU3SE/KSEoThmslCFxFgBAMJXWZNNOqrKnLJTUmG2a+FOUPisEVelTMvXxPZEVwRyW8Ia71/rYdccEHId3KY6lkXOLNc/JlQFO8HcibMVd01CMRJuYnlYGt/tqoq1MTnEcQTOkZ97RnbGslLDBMExMMe4sy0qSpDAeD0LIMAzP8zQd6ZIbmTygvFXkYiMIojw+lmEYThB4CHkABABESWJZNnKp7kh+CyWEDZm3oDDbmMSyrFyNiQsBZVkWAJBoEzIiKmpDy9wcuY0mEeMuEzaUIHvuoCrApC4akbui3A+VxLgr7EhRJcN95FEz9dziKLmJFXkfSZKU833AbeaTDIhS8vwdLlcEvg+4DS2TM1eSrdxjEASJnO3dosNhlueF23wfURRDNI0rSy57HyWvfIc8q7BUyiXXT0L5PnKnCYfDiQNWyXwfuQtFflIeXQzDTILvI3suFEUhhFHTynHnMrsqJit3kstvpITvI/dz5cMnsl2ZcjXT+D4yqk0RYYMkyT8VrjOEeorSoCgGAA8ASRBWk8mUouj3PITQZDIp8SkkSVosliTXeSKhKEpRFEVRSrjOGo3GZDKlpKQkuc6fa3cmc52ThI2kkkpqxinpfZJKKql7o6T3SSqppO6NIq7yiJxn4Mbp42f6NEse3ro8R0mQeHi04ez+d4/Xs6llKzdvW1eVr4+LfxNDI02n3jpQr164+8mtc5SsMwkhV2v1keP1noJtX9peboot7lli3T3XDh+56DAvfurhFSmqBB6fE5mxprMfHjpd79UVrbxv69qqQlNcg0KgyLq6r5w6c8VjXrJtw2JFjRizxMBw86kPTveqSu7/wsZS3TSvPnDOmxcOHzx2uStgqdj88EMb52XrEvRRhSIz2l595FQ9n7Nu2+q5GaZpiB5ke6vffutDZ8kjuzZUFcT5IN29VoRmEoK+ritnzjc2do94wwynZGuQG2qvr60fKX7wazvmqAeaLjf3h+NRSMHZ3nhy/wctPsYz4le0Q8B6hlpqT1xoGXYMjIX4GPchJe9IT92ZEzd6h0aHfbyU2F1MX8vlG53+7FVfeKDKMHjzRkf/eFyoALclBN3ttacuNDX1OP0KGzFmsc7eG7VnzzX1Oh2uUDy2kGOS5Lx58VKzJ3X1n33zwSxn49Xa5tFE7fwIgfGb549cbGvvH/XRLD8db+qp3b/vys2WbkcgGHM/Br7u2ppr3U5lQ+ZeKMJXHdOaCldtfyTFevy0W9nHX/SPjo74+Px1y0rMva6O6gHXiEvIy5nyzAG3Fi3e/VXKePxUq8KKJIxZFRsfVlnPnz7Dx/wdRA32kjU7v6ipPlM9kGisKjswOM6Rpqql8zI8fF9f56jXHYZWfdysYlpr6boHKYvtbAOXqBkcYc1dvPkREpytH0nYDtnEQlNmb36sSEIpnWqoy1Q/xIXDiXILmC5lzpYv6FOqT7YqOxbnazr8yiu/O1A/zEOAa1Kqtn71uUfWlthjiATRVW7/SknJ+57jMSOZuIGDv/nNZd3qPSWVMxaxESnSAkFJlVqtUikGygoMzYRYKtdEophaQ0iQZWk2HnH0OIHhWhJHEaDQ+6AoplJrVCSOIpP4EKIYqqYSAln+jEKhMAehSavBCb9WhUgMw/NiHNEDCIqSakqlUqFI/K81/EgojqswiiRxBEz3xAcAADC1VqeGkuhtqGmi8eLc/Iwov/xYl6fuYP37551jlvQNOyseXGwxKyOxIiiqojQqkkSBpCiBsWLrt3+69dtKHp1AhEaDIKqYmM4QQiCFbu5/8zw3e+t9q0tTZi5cJr7fQwRBUESSJAgglACAOIJM7HclgaN9bm9YQCiD1aJXTcNYn3lCUQSROwwEEAIEjXQ4K6k7kgQ27PX4aBHTGk0GUhprPvn6/jZr1Y4Ni/KjnZ9RpZhXPr1+5dOKbTEBj8cb4DC91WKMaU1LYoNeny/ICBAABMHVOqNJryGjrUGKXDjg9foZqDGaTYbYQmYh6x1wjI+3XDzSrl22Ye3yohnMFouz9yE0Oq1ezTodAS7N72MBYtXqJ3S8kPMNNxx680Cdk6jctveLq4viH339RyCt0aAC40G3O6yj/TRUWSkqArEhqY8kce6BawfeOtTktyzZvLVK03+musO8ZNfOTZWW+H/p6b4rh15//8RIyoYn9+xYaIshZXig8djBQ+fbXQIEuMpUumLnrg1VOdYo7jE83Hbq4DsnmuG8B3fvuq8qpmhncbzj5OuvvnuJXvXolxZVZM2s04ef0cTeB4pcYLSr6VrN1eZW92iaWY8tn59vVUeaoaCGjMz8dN3hE+8fsQujvK4wO3ti1AuituYtf/J7y5+MXkjOP9bfWlN9tam1T8Jrr1vnFBXYDZF6mcSFx4e7r9ZdvtHSzsKaYnJexdxcxZdaCGGfs7eh7ur15lbH0PlLKQsr5hakJqgdiYzCLF3f1csfHugmfCFjcZotWt+MSVBkfY72G3W115pb6XGj0aBaXJ5pji/5GLIB10DXtas36m+NAOFiNjW3oigjwRhzVG0rWvOV768BAAijN977Q+0tp25h4cCV0y5bYVlRjl0RPlCptKUbnvz7DU8CKLGegZvXrlypv9UlsSlGDbGgNN0UicqqK1r++LeXPx6jPX3e/N3fnL8bAABEd19zbeulxs5WwmzVG3SLizLNEVEbeGpu1cJVYrZ+war5GZoZDheLsOcFocAExlyuAGbNNmN+18h4SIi26I5Z88qXrVlhZRxhbW7VogXFtrh8iQQmMNbX78NN2bmp0tCgM0BHWV+AIh9yj4wGGF1GvplxDI64mRj2CySe8TkcXp605qUTzsFhV1BRxNnkpM+bv3RBpR3zM+rsBYvnFdjjc0ThI0Eo0N7RcQ9DWm06EHCPuUNx36qBAhscG3ayKm2qXRccHBn10dMZ7CgBKi0vNycNH+9pa21tHxzzMwna44GSEPY4xjw8ZbNRgt/j8tFCgndEJdo93N/rNZbkaMXw2LCb5sQoBgnbvE2PffWL26pyjdiM/y0RgS6Ga2wlqx8sWf1gLPmpTAWLthYsmnK5PiGNrWDZI99cpjwBRhnzqjblVW2alDnSmFa2/tGy9ZNKHKtQwlS4cHPhws2JyR3Xppdv2F2+ISG5f2RDm5K/bGv+sq0JtBFBpK107UOla6fBEoprs+ZtfXzeNL4okTl/y575W6bP4PRqxrvHpJJK6n+pPkHYiCnYXxAEOYJeIQpDjriXFTVbFEUVZnuHxaHweTmJKEmivC0HgAShoBjoIeMXlIBU5CeVl0q5RFGUc04oYUM2FBcAzUQmpNuK/KTcM+VXnkSM+53upCTGXX54ctQLOTmCIErqTe7nGIZNvYfI9SPnNsWs4iu5VIr4PjzPu91u5a0r1zWGYQrBOnfgKS6XK2qJMQxTyPqAEHIch6KoDMRSIsbtDtI0DSEDgAQAy/PjHo8QsVR3m/N6vUpAKhzHjY+PJ8778DyfuM15Gfolg5MSZMLn89E0TdN01IaTJImmaa/Xq1KpYi2PzAZCUZRhGCXPy4AXmdkSq2S+DwBACYdI7uc0TStn2kS2m9Cv0eTE8zyO44q8T0x8H/nDHne+j1yPCef7oKhTo9GiKAEADwBFkqlWqzktTUlaSZIsFosSvo9KpUpNTU3yfT5XEEKCIDQajVarjdrlBEHQarUWiyUtLe1/Gd9H7udTdPGiKPp8Pq1WO6P4PhDCqDjKjxseuS0lWSMIIjNVlSdRYgL5pJTnCWJBYX42d1SxORRFJ1G2+CrWKpqcCZCw8oNP9oSoJibRKyaXdiqGJmcLRdGp+/dEN9bkpKQqZtZULamkkvrTUdL7JJVUUvdGEX9yQ5Hxj/b19PmIjFmFmQa1khV1Kewe7mkfYI3ZJbOydHGaCUq0b7inpW3ATxjtuUVF2SnRbimEIhNwDXR19bsZlTmzZFaxLaZ7DaFA+5zdXYMhdXrFrCwqoce2oER7Rnq7BxhdVn5+linuv9yhGPYO9/WNMOqMwtx0A5WIbRHIBcf62vt8mKWgLM9CTPfOC+QDI90tXV51TtGsXGui7swWg6Od7R3DHlZtzS4ozE7RKxoPUzfrG2xp6QpZSktz7fHvHfdWEbyPxIWdrbUnjh67MJy148/22Az26LXNe0eazr/39oftuor7niqNk/eBtLPr2pF3jw1SKZTY1OkI3bd5WVbElW6J9g40Vh+t6QjygoBpugMP71mjHPQBGd9o68VD751q8Kdt+l5BOkUl0PuIgeHmiycOHrmMVm57OCXu3kdig8PNFw4fPXuDLdr+pV0pifA+QtDVfeP0229Ve1OqnsjLsBjjdRG0MsHgUPv1s++8dthduHNvdsK8D9d39eSxy91+AcXUN4fpzWvnFVkT2TFk0f0NZ0/u++CQd/k3n92VZlIWi39bjLvfSeusVpMuZj7H9CjCkIQAwShDemFBPq9WK3xrSUI0lsyCWRDEcRTRrr7u9j718q9/a1P4yqHTt262jVRlFUQwAGm/Z6DXqSnf8NDi1P6aYydqr42syslW3AIQIbWWjKJiXx8b6dr6eEltzc0rcNLxg/p8QiiuNWUV5nmcBqWNGKughKqMablFhRrpnoAKICAtefkl+eq4Bql8SqKjoX5IV7r+gaWZw1dO1PcOufMzLZQ28usywzdrLl1uGvRJEKCkLrt8+cr5xbZYgtAkAbMWVxRltU4crj2BBE/zyQPV/qw1G5Yn8ibwKSkSXYzU2ArLKznfQJ9TaZ8izeklC5b6HCdveeNSPAAAkMKBUNDP25bYVaTHrCMxl2c8ACJ5H5FhQ/4wYizQao0mo95MBRwjLMhW+klG1IaU4oq57vExR0/CnQ+mzyyZowkMd91MCJEPVWntJRWVYb/TH0yUY8D1lryySk/vaF0/vAfOB9FlFs0xhdqu+MaVJeD9oc6r3bU3vX69pXJxzqJinY6IWm7GMUarLQajxaz1G41gNBjiWBFoI0+oMcpkzynkdTQEAMFUljSTOsbPGZVbscRO9J7si3HKyg9fPX7oujtrzcp00wyd+IBohI2Yd/HkTcSpFekzeUoSIomQwFEAMBQFCBSiHEX96D44DEURBEMRDAUiH8vhVQQBYNqGEYIgaEJnDAiCgIRuxSIIAlAUQZBYrqSOs/1YXhCjVOmzslbabRxBWlLVkYLUP5bICwBFUQxDERRFUUkECs67E+bMskWZZcqL9hmhGCrF1HgSF6B5buja4Ysj5srVmxblG1Uz1vnEmS4WiyR6tLv27f9+vXpYtejh55/bMls7Ad8HIUmMpNBxhoeQ5XgIMIqKfBARxTA1ScAwK4oCx/GciOhMKJ8A+wAAIABJREFU8eRWJHWvJdEjbefefOXtq96UNbuffGT1rFgWe1ACN2WYTRkxWVTrNYDneJblBZGjJcJMotE3IwItp9946+0TzU4BAoyyVKx/Yu/2ZQW2KJNwf2ftB2++euA6XLznS3sfXJoaSzH54cb97+87XD2cv3LHY8vKbRpFrvVe6d55H1SdWrDq2R8ufUYCGEGSEWakeqvFmqq5evW6pwAbcoY5qiIzMtsf02o0VgtsH3KM9XPDI4OBzBV5Mx11klQsQtVppRu//g9rRIjgBEFgWFxuL4gksqAwdf9150BPH+EaceOWEq1WG9X76EpXP/W9ZV/8CMOBoDhBKtgQ1Bcseuw7cx8WAUYQBIFJscTqEBazCROo9FmLViwtTUnUSl+8NPGgFBlPV83rr7z8h+M3xljq5JE1T7zwvS8sSI0IIBSGm068/C//Z991P4uZDzZ3PP/0nvvmZ0xgA0FQnFTj0b9amLWkompB089+8PC7+vJNTzzzzPyUKLVKWuwllRU3f/vqX/1+LHXhjue+sUgb1codwdBw24U3X3x5X82tEYY8efXck8/99d5lVuUZxCRXw6GX/+tXb13oCQNTyammL39jz4a5ufE6qQBEdrz11G9fevXdc7c8vPboyW17n39261x7XLFT4nhX3f7f/+ebR64P+RHqVO2Xn3v+mftKE7w3jKAorlLjAADgbTv+zu9/8/qxJkdI/dr+68/91dOPrC82xt2ibtGWdc2/fvkHr49nLHno6b2F6ebo68BKe/inU2GkiiIBAIBpePfH//na+7W3AuDEiQ+3Pv3tp7bOyTJGcmCawu1/9s/bY7R4r4TIMWAcxwUCgT+Ve9zHxppffbX5xRfZgQEeANuGDVtefNE0e7aStBDCy5cvv/DCCzU1NZGf3L1790svvZSM85pIbrf77NmzIyMjSu5xt9lsS5YsycrKijWYYIbHef0p3OOu1+sn8iozd0UqqaSS+t+tj30ShBBCqJznIt0lJc/LmUc1EWu2d56MqeTwNtzno39R/OJ33kL5wwpLpVxytokj74DbnSFB5ZclV6MsJYWRXznWKcnd3UPJ3EeWklJ9bjnvpFUCLYqpn0e2Ow1dYhKKOlg+9j6CIASDQYUzbXlPm+M4GSyiMAnLsqIoBgKBCM8IgsDflpJsRVFkWTamTkkHgzTHcRCyAIgA8IIQDAaxiUt1tyRJCofDSuhTPM8HAoFEAJ9YlhUEIRAIJO5nEcMwcqdJHGEjGAxyHMdxXNTKlJs4HA4HAoFJ/PJiWRZFUSXeB0LIMMwdbF5MhgAAkiQxDCMPiqj1xvM8x3GCIEwdoiRJEsdxAAD5/zNEMi1HqfeZRLw/elsKn8cwDEIY+XnZr2EYFlO2IJZxgmIYiiAoAPKxnpheXH5YSXdBECSmt1AuDMMkScIwLHFEBRRFIYQJNSFXjpITZehdmkR55IRKPgPyK8uK1Qq43Tfk5FHLid2lSdj6XLszjS4mz8UiVMXH3gfHcSWopzuSWWoxrTrLBMLIy8Mcx2EYFtOqs1zpyledMYZRkySJIBAAHgAcw3RarcLkEEKNRqOkx8j1qbxUyiUvo+p0usT1NrnfJNQEz/MEQZAkqWTVmSRJjUaj1+snMfeRB6fCVWdJkqay6gwhVL7qjKJovFadeZ7XaDQzc9U5yfdJKqmkZpyS3ieppJK6N0p6n6SSSureKOICMB8aafzwP773zHP/991Wh6IrAaDE9NW99w9ffvI7/7a/J27bf5Aeatr3f7+8ee36R5794evVfQruyoScZ+D8b3/0/NPf+mX1WKzXd0IhOHR93z/+xVef/ad3h+mExJ7fZYsdvLL/J9985rv/sb9Z0bUasUnig/117/7zd5/9zn98oLARYxUMOeoP/OIvnti2+cEv/eB3pwfYaY41hZy79cOffm33V37wZp0ncWb4sOPCa///83v/6tULrZ5pekXIdJ346bcev2/1qh17v/+H6h5vTJtaUBJFUYr96MC0KYL3EUKBgZsN3axosJh1CudI9GB7U32901SYGUNoQzTxY63NdTeCy/51/76/21ngbThb74zmThiPo7u5cQik2rSqmC9zlnzO4ZamdsaQkqpKeICw4Lp549agD0uxWxOByhNC3p7mhn4eGk0mpY0Yo7jhnrabQ/jab/38pR/stvkaT19zTWt/l0Zv1t8aGcXsmakJDeZzXT9bPy6pzRblfB6JDbpHh/r7+/r6+/oHhkY9QU6I6Uvov3qmHlv21Z+98c7fbtX1tLeOjCsOaIN8sLfuyLGL7SP+BN0sPXVFaC9cZylZ/YDRlnL4+KjSfqvOnLPhC2bTsVNx5PvAgMfr9bE5q2brNO50CzU4MDriB3ZTpDQqc/a8+x7Rppw5cZKJfYvWmFGy7qHHtedOnutNODyTsM3b8FCuWff+rYTMsXBdStmGhwwpNaeuhRLjfKRwIBhkganEprcbss3XhsYHh2iQqkmIsc8Tmjp33YOFZslfrZDvI/GCfyww5uU4grSk6lINBK6kalKXPPTF3Majb9VFhwHdVnig8djBQ+fbXQIEuMpUumLnrg1VOVblm1zGpU/8+WIcBYz7BqpWk2rFW5BSeOTGu3845CzYPEerm1l3DN6lyF8LFIvxwg8UQ3Eyzi8LBV7kGUmjwhGEJHAEkZioFwciCIJh+GS5OQgCMCyxTJyPJZ/USFj2CTt1dFuiwAu8iJEkhqGkigAIZGkWgOnzPgBFURDLoRmRZkdaB+/QxfRaXKeko+AErgCq8QnpipY//u3lj8eU5lNGKRXkA51NtdeG8KIVubaopBgocoIkBgZrjp4fsi7avm5BTsSg1HureweegHzQPfD/2juv4DiOM4/35M0Zu8ggAsEABhAUM5jALNISJUqiXQ6Sz5buXNbZvvLDxXJd1dVV+eoersry1Z3tky3ZV0pHRYpiJgESAkGCBAMykTNAAJvTpO57GAmkaWK3F9ghYHt+T/vQPd83vdNf9/T09++mhlt9QTp35YYNpW52BikSkqJoiiYiogyAJEMACIbR9DIWDCRFkRSJ4hJCSBJkBEmaVUvYfRokhiZ6b19vGo4bCldUrCxMSQOHsRiXVa1cVqWWc/fhJ7pv327qGg/LAJC0PrO4fM2yfIcxyVpAfGqw9c6NtmGUV16xZol9vP7smauD1tU7N5Xl2ZNt6JEDQzdu3mm92TwkZ209uLEsS33p6TmwkH37EqPVaHFwoz39kdjklI+XdK6M9G/h05glpN5kMHLQP+ELTQ2Ph0RozMzUpNzShDx559ypq4O28r37N5d5TBhLmHKgv/H8qcbJzOVrVhe5FvgoPbN7UIyMtdec/vT42c87QrbxwcGDX32+ssiS8BVZ9vbfPvv+b05c7pmS7H0EOLJ7a3mh49EzP4IxOYs27S/alNRHzlVYsrT4xvv/8S/XjXrH8o17yzKTDK5S1Ntzs/qj42fqbnaIN+Px/fufem5TNmakRbx3pLX2k49P1Fxv95l90r0DTx7ZsUSteBfsu37ms+PHzzfcg66uUeHIM1tXFWakrfdCMTTcdO7Ep59VNwzEnQPD408d3l+xyM6lcTJOcO7cggJX64Vj/302TmQs23JohVv1uT7BmN2llU+WAgBAZPhW9TufffLJ+btB262heOCFXZtXZqX/xU+4e+nY8dNnLtePst1DQ+OHn9q6MtumT/zGxmUUr99dvD5FSzpnXsXOvAoAABw++dOT52p9zoHRllpbzorKgzsr8p2JVM0oW9G2p14q3MnlFhbaF7CmqsLM0YegOFvuqq1Puct2CpDUm+yZbl2y12PS6CxYv+9bhZslSNB6myfXlVz/LTkE6ygsP/iSc9VklDY6MrOzkx6aQrFGT0nFwa/lbzssItJgz8iy4S/iELTRll9edSSnYj8PSZ3FkaXmWK53LVq365n8tQdkQBssrmxXyocXJIKgdI6CiqpnctfslRBlsLqy3EasJdZUbOgceRVVz2QtnwzLrN2TneNK5x0kh7PnL99wyFmyk4ckpXPl5lpVefGjPaUbD1iKtxyCBGu0u7PsBlb1hUHCvuaFH/1kV0SmSIJijPZMlynZmTqUKXtxeWqisfNHguhD0gZ7bok9N4WrEZzJWVjmLJy7X78PyRpd+Utd+dh+0JzVs8jqWTQraxRndOYvcWJbmxOMyVWwxFWg0tUJkjE6C0qdal1fgWRNzpzFzhxVjcwIbXDkFDtyilU2Q1ozi6yZRSpb+X0IQ2ZJWWbJY7X5OFnoczMNDY0/Ve7PfSCEkiThiyopQjwAAMy0eEXvY7pWgjKiKCryFDiXVRJ8AQCYekBKSUmWZYQgABAACKGY0KsHgRAqqiVJS07fC6ZX+CgCNDgiMnMxAQBQ1YQoirIsQwhx9H1kWVZueRY57qIoUhSFU1f5c0mSnIUhxRZ+uynPxqxlQx6yq9zmglLYULS6lLz/mcrcDxyiKHq9XvyGUJ4biqIikQimN4ork5OJEgqUpqRpOhwOY15WaXc+6SagL4n7fOF4PIZQHAAIAC9JU36/lNCrB80FAgEcQTWe571eL44OWaoonXZ2PQQTZRxKVbYtJQKBgKLAkLTPQAhjsVggEOA4bhbahooUTCwWwykviiLP85iP9EMo/Q0AEIlEcCKdJEnxeDwt+nPTsWzul0ojijRKggL3ow/HcX8uqvI0PWE0mkiSAUAEQM+ymS6XLSsLpy5CyOVyJW5TBZ1O5/F4NFX5meA4zmg0Go1GHH0fk8nkdDqzsrI0VflH2l3IqvKavo+GhsaCQ4s+Ghoa84MWfTQ0NOaHhKs8UAiOtNXV1g/ryw9sr8i24ewik7x9ty6duRbJ2bDnybXudC1ZwuhE+5VPz7dwK/c/u6M0+YsyEoOjnVcvXrzWGzQvWrPnwO5lzlQ2nUPBP9RcU31jwrrqyIEn7OnOm30QBOVA/+3aSw1B9xNbK9fmpXlPNRJjvq7rNTX1rV42t6Jyx5YVeeb0b4GVI+N3685eGWILtx/aUmRQPc3rIWB0rOnSiQsDlo27n9xUlEZtl4dAYvRe8+XT1Q1dIX1+xdaqylUFNp2Kz0Z89M6p90+O5+85sLMi/08xuSiRvk800H/jUvXVz2+0DkyG41jfbuIjndfOffhZY+9g31AkbSov8mRP68Xjx+q7B3u7J3GO75GCk723G9rCjvLVS6yhls8utOB+DwMAABi8N9BYc/rz283tHWNxWd0zkqTJ1vpLl2vqmvpHRwOpeImFLIYGm663jHE5paVuubexsXsyIKZbfUeYHGy6Vn227lb73X6/9NjFZOBka8OVK+cu3+4cGJpS80gZWZhqq73c7M9YsmqxJdbT0NgzEUx7Y97H23yx+vrVK/V3h8b8s3swQgM3bzQNTIb+GPV9KM6cU165l2Xo2jDu3nnanl+x+3mJaRhKp4oeaclZXvXM18Gl+j6s8jASDo6MRxwl5es2eAZqg6eu3umFq5din7hjcOSt3XFQ4uoaxmi1d9PT1qK1O/WAON2vQkYglMSpkaGo3rNy/c6C2J3LdS2DE5HFHnt6NQIoc+byTXtiYX3r5HxkFpGWwjXbLTDgv5m6lFNqhhjHkq3P5dBmMxhoqKltDocFSUYggdxPqO3C2+++d7Z5XEKA0jtWVn39m4c2FbmxvhED46KN+7J0U3fr8Io/jDBy9s3f1LPrn8tfsmCXVxI8hgRFGyx2h9Wso7AF1Wi90e5x2/TMSDqHcYLVG1weh4klAd4Jg6IYjcYJo5FlOYORNenEsakoACZcezTLWR02i4Gl1Nf4ITij1e60GlhSBXUxCGE8FCYZk85oMUA9R8nhEJTlNAurUJzOwjptZgPtnZezNFmjxQEcJpbGfOb4SV/D8ZsfXBqfcGTtOrzy6fUOe7LsKQAAAATJmtzZJiBOdQ6NDMctJZkWPZuwZ5uWbHvp7zZ9A6Iv6tMMy2C/qXEmO2eyGmYX0ON3T757Zipr9/MbS1zq56PNFozHUC3fEYKyKIgSBBTDsswM6j5zsjD96zEphc0S1bxb0Hc9JxCEsiiIMiJohmFS27DHueyV366q/Da2LVkUBVFEBM2yDAwO1Z891Thm2nKwIt+pkljtHJAiE75ouLP6gzv0E1W7diy3P96U39SYPwEQGJ/oqX/vf96qHeHWPfe9v9q/zJh4HEkBimEMBh2ajPB8LBKJRUXG6X6MWnsLB4IkTWYT4ZXjkWA0Fo2LtMlMqnC282MHxsc7at759XvX/a7tR158fttSNRe6w22n3/zl7z4ZdB/8y69tN927cu2evfLJfesWZ+iSPbDhjkuzf/OaFeJY00dvvnmsNrT5+RfXlxcsrN2Hf8DM0QdBKRYY6bvb1tk/NMl33M0xGxZ7zGxCkQ3Eh72Dnbc7enr7w4GOuwOWHI/DPMOsltS7S3a++tOdryZ3UooG7g3eae3sGxqWO9u78ouzs+yGBH2INJotWdn6tq6mq5HOyeEJbsX+vBQim8xH/ONddzu7+4eGw83tRaioOMuq1hAihicHOtvbe/r7pHhGV5+Hy3SY0/YdhWQYa06urr2lvf70EAh7qZylGaa0K9+KseDESEdnT/fAMDK3drkWF2c7DepOCkh91rL9f/Pv+wEAQIp6x/ta7vYNDvoke3N3zoost92QzlHVvOLQqz879CqQ+eGbH75RP2Jctg4FB7u7Y56sTIcxUY8wL6t65Z+rXpmVVSk8OTwy1t4/OgS6Olq7POU5Tos+6W0x7vxVZWv8NuuWbU/kGxe4uFii6CPz/qGWW9cbe/2CFLvZYDBn52WYEkcfGJnqv3npYutoTCT5xtqbGbu22sxzlrJCcf9o2+Vz1/r8okR11ta7dTuddkOiAYQ2u4pWbZiYuHDtzoC1eN2hXUtTGASQFPEP3Lp2s33AD4Xw5cvXaEOOetEnNtnX1FDTPBLkCbntRmO2Z6s5fdEHkIwld+W6FVMXrrSMsQXrtlcszrDii6LjgeKB8baG+rbh0VCUaKy55tQ5PGpHnwfhfQOtVy82jQtxfuROzZUs2y5beqPPFyAEZAFwBmGope5eB5exuGJb1Q6LnlVpP4bg7b9ZW307wEDUd7v2SmbW3rUY0Qew2RsOv7JBFY/SD6FkoAqCEAqF/lzyvCYmmt94o/m11/jBQREA965d+197zbZsGU5dhNDVq1d//OMf19XVJS555MiRX/3qV1qe10x4vd7q6urR0VGcPC+3271hw4bc3Fwtz+uRdhdynpfZbJ4pqiy4VTMNDY0/E+7HJEEQvF4v/linqJmkpLAhCAJCKLE4jqJUQtM05ixM0ZoAAKSgsOH1hmOxKIRfKGyI4pTPh6+w4ff7cVR7BEGYmppSQ2FjWiZJvYkJz/OKwoZ6Jvx+vzI2Jv3jFIUNv9+v0+lmobChSJEkTrZWUB7RWCyGI5ExU3WCIKLRaNLqynOuvD2kaugP7fI8r3TGOV4qvSjaJlj6PhRFGQwG/BtQ1ElomsacOiKEFJEno3HGvfCKQgpFUTRNY04jZVmOx+MAgASXfQgyFuMYhiEICIAMAE2SBoMBszpCSK/X47QSRVGKggSmV/jE43GlGVXVc0EIGQwG9UwIgkDTyufyJI0py7Lygo/z9vQQSuQiSRInckEIEUIMw8xCSEipDgCgaZplWRx1MZIkWZbFUWtJahdCqNPp5n6p9CIIQuJx+n70Uf4hfKFCSZIghCmt+yhRMEF5RSoMIYT/PqxIbREEgekGAADpdAxN0wShzMEoitJxHGZ1CCHHcTh9kqIonU6H7xU+SifBWVyYNYIgAABUNRGNRpUZLs66j9KlZ7EcMz1Dx6kLIRQEgeO4Wa/7KK7itBtFUQghZX1z7tqG8Xg8LUtIaQQhRBBE4rn//TZKqQmIB5i9g4+6bKqezKL8F7Vm+K2GrbSzQNyYC4/nX0614mNu2DT2oIX2SEz3ZU1dTENDY8GR8D0LIVmMhoIhnjTaLSYWK+MSSXwk6A/LrMlmxzl7EQ8ExVjIF4gSBpvTinU4LIJSPBwMRSXW6rTqU03jQBIfCQYjImVw2k20uqMKkuLRUDAkMSaLxZTOc/6Uq0MpHg4EQjGJZE1mq9nAUrM83T6BDZmPhgLBMA8pg9lmNetVz819CChGgt4AT5uttjRulnoECEp8JBCKItZsNenVyA56wJYcC/kDoaiAaJPNYTFyj7tV1SdB9EES7+u7cf6jj071Zhz8wbeeXIJxqJ4c83XUffzW23Wo7NDLP3y6MD1TK8SHRpvP/u714x22rS//w3c2J08XhWJ4rOvyx+991ugre+kfv7spg0nBEyRGvb3XT779Ye24e+8//egr2XoVc2VgzNdZf+b9Y+djy77yta8+tcKV1qsjOTrZfenERxcauoJs1orN+w7vWZtjT5ohkJoNwTd448KJk583j8eZvHV7jzyz77FmFyHeN9h04a1fvDeQ9+xf/PXRdenfYDVtSYxNtl36+Nip66jshW8frizKUHF/jeTrrPnw4zONfSGJKt5+9Pl9G4qcKeaLSlF/SGQNRv1CDVwJoo8sCiGvX7LYMp02I6b3YsDrC0TY3BJ7OvOqYMQX8IbkzCXFuKtqUiwaCgQJV26WyKW87RXxkWggKFiys2UqbblnMwGjE1NhQufMttjSbwpJvK+vdUDM2fvdZ/PEzis3OjrvFWdYM9MZfhA/NtjTNcFt/ObfVrBtH1d31t++t2RHzuP79osiExMRinXlZs9wZnfagALv8/pIl8sjmHU4PUL0DXd2dQ16YwgAguIcuaVLCjw4O5YBgOO3r7Xz2Yd++L2N9IWfv9XU2Zef7SxI4RMGjAzduHhp2Fixed3iTNPC+hT/JQkagtZb8tZU7tCT0dP3cEMn6y56Ys9hIJ1r9afFPQXKnr+86ikgfnqqGVOGgjG7F6+vAvTFM2djKYd90ujKW7t9twzOVfeqvi5G2xc/sc1F8sEWNRQ2ZDno9RFGp92d7wpPWpieKb8gSkCXxi+zMBaORgXC6nEYndYsC9s3MTYeAznYciZzhrSXVGzNoiZ6Lk+pbIky2Eo27eFo9lQT3oKpHPOPDXS3DwUgAiRrymPcBdkZFqwQEhu9F+fMnowMA6sr8ch3/eFgBAKsRQcAAJC8HZ9/dOY2VX7QZk6UEjm/JA7DJEmSRCodkCRJKt3nhAMACAKktpGKIAiCmLU6D0GAlO56TpAkSam1foAQkkWRIAFJMzRJUSQSBIB9XiQeUJZlCZI0TZIkzdAAAJHH0Z9MHwRJEqlsDJDC0f7moVtdwYjBumR19soCgwHzzYQgKIoiCBIAPCEjXXZZ1ZGyKnzX7iMIAiQJiqEAAHqWRKIEZRnjKxESY7wsTrZfuNAsFm4+ULncY1y4X5bmLwsW8b7hlosnzt2ZYJbuPPz0+gJ9KmszGjgQBMGyLAGBLAqiJEkywbDpDqwkTVM0BaMihFCIi0gm2XROrR4N4qcGbp0/cbE9bF2zff+O1fmp3BPB0GaXJV9meE7vMtFJI0+0p+7k8dOf33NsfvYru1aksqwU7W88f/5CQ69PQoDiLEUVe/ZtLsu246wWcRxHwpgsigDQUV5mjAyNI0wmTXRevFhTd62bzFn7ZOWaRfaFKy0G5jP6ELTRXlCx/UBhnLBmuVhVPx/8uULStCXDDnsD3pEenTjp5c2lDh2+uh4WlMFqMuvA4MiE3zM1EuCRNS9X/U1vtMlZtG6nvlRkHVkuHUOmoudMcay7JNNdgluezShZu1uXG+c8BRkGUgriW2KdBasr9+WUCxABkmLMzhwbruqFLifHELk5NTwezActw4x5vcWGM4mhdGR8rKsvZNy/9omybMuCfedSmLktZD7Qf/3Dt/73nVNXB2Lmq7VXjn7/1adXORNOUKTx9stv/+dPP6gfDwN7zeDod44e3rYicwYbFGt0LlrqXJTURxTouXHy1//2+vne8SB1rv/e0a+/8Nzm4kQZDGJwvKn62OtvH7/aOih90Nbx9NGXf3CwCHN8RLHx7qsfv/7bDy/d7gvrrnc2fvXF7z+3Vq0vKd6Wc2/97o3/u9jiR46L1/pe/O4zW5fnGNIUigmasy1aVdz8zgc//8SrK648eHRJpj3d2susp6C4tKf53V/+5M2odc3e5w+ucqo+iSUozpRRuCwDAAAC3TXv/tdv3zle3x82fVjT9fL3jx7aUmhJozHa7F5U5l4EoOhtO/uzX7/96efNU9B17fqz3/jWC1tKnQk+8dMmZ36pM382Rkl3+ZY1XW8d+9eXfwEdW154ZWlxJs6MkjAX73vx77eIlMliMaj+yWSuJFLYQFASRVGUIAKAJCmG5R7c4PBIhQ0EJYHnJYgAIAiKYRmG/rLKHBQ2EJQlgRdkhBAgKZpmGWZ608qjFTYQkiVRECWIIAIkTbMsd385KpnCxpeSrzKECJAU/aDua9oVNpAsiaIgyggBQFIMy9BUsg05qSlsICRLoihJEFAMw9A01m6fFBU2EJQkQRQhIJXMLRwTaVPYQFCSRFGUZAQIQNAs++BNpldhA8mSIIqSDBEAFMUwLEOR98ulW2EDyaIoShJEJM2yzMx/3B+vwkaieSBB0ixHs6ncEUHSnJ5OdxsQJMXoDKlsISEIimH1zOzWHwiCpFkd/Xgy9giKZik1bREExbDULJsC1wZJMzp6nhSECZJmOJp5HB2PoGiOSvvjPbM11f+4eWahz800NDT+VLk/95FlWRAEScL9WqoIlCiZrJhVlOsrghgzIYoijnrONEpeMkEQiS/7IDzPS7IsISQBIAMAIeQFAbO6ouGSWKJo2jGe5/G9wkdpIp7n1UsslCRJUY1RzwTP87Is4+gfKbnjgiDgSzhNo+j7kCSJU1eRWAAAzC6zX7GFECJJMmm7KQpNaWleCKHSeRMo6cwLSk9Jru9DkqSiE4bfHIpixrS4F055RQojHA4nKKa4q8SUNF72QQRB4LKzPVVVos+HALDGg+/KAAAA7ElEQVSWlkYlicKrrqgibNy4MSMjI3HJ1atX8zyP7xU+SsuHw2H1QoPSqqqaEEXR6XTiJHkjhKxWK4QwFAql6s/044Ep86aMLrOLC8r/wvM8TnXFsXg8jvmcJyUej88iOqsKhJBl2QRNQUxHpoUWONUDybIYicAHgibFcYwJd3euIkmXdJLIsqzaAmB/1EAIFYkozPL4cpcaCwqs6KOhoaHxONFGZg0NjflBiz4aGhrzgxZ9NDQ05gct+mhoaMwPWvTR0NCYH7Too6GhMT9o0UdDQ2N+0KKPhobG/KBFHw0NjflBiz4aGhrzw/8DMF/GZRzmHP4AAAAASUVORK5CYII=;" vertex="1" parent="1">
                    <mxGeometry x="-60" y="290" width="383" height="571" as="geometry"/>
                </mxCell>
                <mxCell id="32" value="Infinity de Guzman - TEJ3M - Unit 4-20" style="text;html=1;align=center;verticalAlign=middle;resizable=0;points=[];autosize=1;strokeColor=none;fillColor=none;" vertex="1" parent="1">
                    <mxGeometry x="352" y="290" width="240" height="20" as="geometry"/>
                </mxCell>
            </root>
        </mxGraphModel>
    </diagram>
</mxfile>